Cabin-Bold.ufo
<glyph name="exclam" format="2">
  <advance width="500"/>
  <unicode hex="0021"/>
  <outline>
    <contour>
      <point x="148" y="414" type="line"/>
      <point x="352" y="414" type="line"/>
      <point x="352" y="472" type="line"/>
      <point x="374" y="1400" type="line"/>
      <point x="126" y="1400" type="line"/>
      <point x="148" y="472" type="line"/>
    </contour>
    <contour>
      <point x="120" y="0" type="line"/>
      <point x="380" y="0" type="line"/>
      <point x="380" y="272" type="line"/>
      <point x="120" y="272" type="line"/>
    </contour>
  </outline>
</glyph>
<glyph name="numbersign" format="2">
  <advance width="1420"/>
  <unicode hex="0023"/>
  <outline>
    <contour>
      <point x="130" y="-22" type="line"/>
      <point x="318" y="-22" type="line"/>
      <point x="490" y="422" type="line"/>
      <point x="714" y="422" type="line"/>
      <point x="546" y="-22" type="line"/>
      <point x="738" y="-22" type="line"/>
      <point x="906" y="422" type="line"/>
      <point x="1140" y="422" type="line"/>
      <point x="1236" y="630" type="line"/>
      <point x="986" y="630" type="line"/>
      <point x="1060" y="828" type="line"/>
      <point x="1288" y="828" type="line"/>
      <point x="1356" y="1024" type="line"/>
      <point x="1134" y="1024" type="line"/>
      <point x="1278" y="1400" type="line"/>
      <point x="1090" y="1400" type="line"/>
      <point x="946" y="1024" type="line"/>
      <point x="718" y="1024" type="line"/>
      <point x="862" y="1400" type="line"/>
      <point x="674" y="1400" type="line"/>
      <point x="526" y="1024" type="line"/>
      <point x="274" y="1024" type="line"/>
      <point x="210" y="828" type="line"/>
      <point x="452" y="828" type="line"/>
      <point x="378" y="630" type="line"/>
      <point x="154" y="630" type="line"/>
      <point x="62" y="422" type="line"/>
      <point x="298" y="422" type="line"/>
    </contour>
    <contour>
      <point x="566" y="630" type="line"/>
      <point x="644" y="828" type="line"/>
      <point x="872" y="828" type="line"/>
      <point x="794" y="630" type="line"/>
    </contour>
  </outline>
</glyph>
<glyph name="ampersand" format="2">
  <advance width="1254"/>
  <unicode hex="0026"/>
  <outline>
    <contour>
      <point x="530" y="-48" type="curve" smooth="yes"/>
      <point x="692" y="-48"/>
      <point x="810" y="-2"/>
      <point x="898" y="68" type="curve"/>
      <point x="960" y="0" type="line"/>
      <point x="1248" y="0" type="line"/>
      <point x="1038" y="240" type="line"/>
      <point x="1122" y="400"/>
      <point x="1136" y="590"/>
      <point x="1136" y="704" type="curve"/>
      <point x="898" y="704" type="line"/>
      <point x="896" y="618"/>
      <point x="896" y="516"/>
      <point x="878" y="422" type="curve"/>
      <point x="598" y="742" type="line"/>
      <point x="740" y="844"/>
      <point x="882" y="942"/>
      <point x="882" y="1118" type="curve" smooth="yes"/>
      <point x="882" y="1288"/>
      <point x="762" y="1406"/>
      <point x="546" y="1406" type="curve" smooth="yes"/>
      <point x="346" y="1406"/>
      <point x="158" y="1284"/>
      <point x="158" y="1076" type="curve" smooth="yes"/>
      <point x="158" y="950"/>
      <point x="228" y="834"/>
      <point x="308" y="734" type="curve"/>
      <point x="178" y="638"/>
      <point x="64" y="520"/>
      <point x="64" y="336" type="curve" smooth="yes"/>
      <point x="64" y="136"/>
      <point x="206" y="-48"/>
    </contour>
    <contour>
      <point x="564" y="142" type="curve" smooth="yes"/>
      <point x="370" y="142"/>
      <point x="322" y="254"/>
      <point x="322" y="358" type="curve" smooth="yes"/>
      <point x="322" y="458"/>
      <point x="364" y="534"/>
      <point x="426" y="600" type="curve"/>
      <point x="772" y="210" type="line"/>
      <point x="724" y="168"/>
      <point x="658" y="142"/>
    </contour>
    <contour>
      <point x="494" y="864" type="curve"/>
      <point x="432" y="942"/>
      <point x="402" y="1000"/>
      <point x="402" y="1066" type="curve" smooth="yes"/>
      <point x="402" y="1160"/>
      <point x="462" y="1208"/>
      <point x="542" y="1208" type="curve" smooth="yes"/>
      <point x="616" y="1208"/>
      <point x="664" y="1172"/>
      <point x="664" y="1092" type="curve" smooth="yes"/>
      <point x="664" y="1000"/>
      <point x="590" y="932"/>
    </contour>
  </outline>
</glyph>
<glyph name="quotesingle" format="2">
  <advance width="368"/>
  <unicode hex="0027"/>
  <outline>
    <contour>
      <point x="100" y="1000" type="line"/>
      <point x="268" y="1000" type="line"/>
      <point x="308" y="1400" type="line"/>
      <point x="60" y="1400" type="line"/>
    </contour>
  </outline>
</glyph>
<glyph name="parenleft" format="2">
  <advance width="656"/>
  <unicode hex="0028"/>
  <outline>
    <contour>
      <point x="388" y="-272" type="curve"/>
      <point x="600" y="-272" type="line"/>
      <point x="472" y="-54"/>
      <point x="368" y="222"/>
      <point x="368" y="614" type="curve" smooth="yes"/>
      <point x="368" y="1006"/>
      <point x="472" y="1282"/>
      <point x="600" y="1500" type="curve"/>
      <point x="388" y="1500" type="line"/>
      <point x="246" y="1282"/>
      <point x="120" y="1014"/>
      <point x="120" y="614" type="curve" smooth="yes"/>
      <point x="120" y="214"/>
      <point x="246" y="-54"/>
    </contour>
  </outline>
</glyph>
<glyph name="parenright" format="2">
  <advance width="656"/>
  <unicode hex="0029"/>
  <outline>
    <contour>
      <point x="56" y="-272" type="curve"/>
      <point x="268" y="-272" type="line"/>
      <point x="410" y="-54"/>
      <point x="536" y="214"/>
      <point x="536" y="614" type="curve" smooth="yes"/>
      <point x="536" y="1014"/>
      <point x="410" y="1282"/>
      <point x="268" y="1500" type="curve"/>
      <point x="56" y="1500" type="line"/>
      <point x="182" y="1282"/>
      <point x="288" y="1006"/>
      <point x="288" y="614" type="curve" smooth="yes"/>
      <point x="288" y="222"/>
      <point x="182" y="-54"/>
    </contour>
  </outline>
</glyph>
<glyph name="asterisk" format="2">
  <advance width="870"/>
  <unicode hex="002A"/>
  <outline>
    <contour>
      <point x="60" y="974" type="line"/>
      <point x="144" y="848" type="line"/>
      <point x="370" y="1004" type="line"/>
      <point x="360" y="724" type="line"/>
      <point x="510" y="724" type="line"/>
      <point x="500" y="1004" type="line"/>
      <point x="726" y="848" type="line"/>
      <point x="810" y="974" type="line"/>
      <point x="556" y="1122" type="line"/>
      <point x="810" y="1270" type="line"/>
      <point x="726" y="1396" type="line"/>
      <point x="500" y="1240" type="line"/>
      <point x="510" y="1510" type="line"/>
      <point x="360" y="1510" type="line"/>
      <point x="370" y="1240" type="line"/>
      <point x="144" y="1396" type="line"/>
      <point x="60" y="1270" type="line"/>
      <point x="314" y="1122" type="line"/>
    </contour>
  </outline>
</glyph>
<glyph name="plus" format="2">
  <advance width="900"/>
  <unicode hex="002B"/>
  <outline>
    <contour>
      <point x="348" y="192" type="line"/>
      <point x="552" y="192" type="line"/>
      <point x="552" y="460" type="line"/>
      <point x="820" y="460" type="line"/>
      <point x="820" y="648" type="line"/>
      <point x="552" y="648" type="line"/>
      <point x="552" y="916" type="line"/>
      <point x="348" y="916" type="line"/>
      <point x="348" y="648" type="line"/>
      <point x="80" y="648" type="line"/>
      <point x="80" y="460" type="line"/>
      <point x="348" y="460" type="line"/>
    </contour>
  </outline>
</glyph>
<glyph name="comma" format="2">
  <advance width="464"/>
  <unicode hex="002C"/>
  <outline>
    <contour>
      <point x="240" y="-240" type="line"/>
      <point x="368" y="24" type="line"/>
      <point x="368" y="272" type="line"/>
      <point x="108" y="272" type="line"/>
      <point x="108" y="0" type="line"/>
      <point x="210" y="0" type="line"/>
      <point x="124" y="-240" type="line"/>
    </contour>
  </outline>
</glyph>
<glyph name="hyphen" format="2">
  <advance width="836"/>
  <unicode hex="002D"/>
  <outline>
    <contour>
      <point x="108" y="528" type="line"/>
      <point x="728" y="528" type="line"/>
      <point x="728" y="716" type="line"/>
      <point x="108" y="716" type="line"/>
    </contour>
  </outline>
</glyph>
<glyph name="period" format="2">
  <advance width="444"/>
  <unicode hex="002E"/>
  <outline>
    <contour>
      <point x="92" y="0" type="line"/>
      <point x="352" y="0" type="line"/>
      <point x="352" y="272" type="line"/>
      <point x="92" y="272" type="line"/>
    </contour>
  </outline>
</glyph>
<glyph name="slash" format="2">
  <advance width="718"/>
  <unicode hex="002F"/>
  <outline>
    <contour>
      <point x="-16" y="-170" type="line"/>
      <point x="234" y="-170" type="line"/>
      <point x="770" y="1400" type="line"/>
      <point x="520" y="1400" type="line"/>
    </contour>
  </outline>
</glyph>
<glyph name="zero" format="2">
  <advance width="1412"/>
  <unicode hex="0030"/>
  <outline>
    <contour>
      <point x="706" y="-28" type="curve" smooth="yes"/>
      <point x="1062" y="-28"/>
      <point x="1296" y="268"/>
      <point x="1296" y="712" type="curve" smooth="yes"/>
      <point x="1296" y="1134"/>
      <point x="1062" y="1428"/>
      <point x="706" y="1428" type="curve" smooth="yes"/>
      <point x="352" y="1428"/>
      <point x="116" y="1136"/>
      <point x="116" y="712" type="curve" smooth="yes"/>
      <point x="116" y="268"/>
      <point x="352" y="-28"/>
    </contour>
    <contour>
      <point x="706" y="202" type="curve" smooth="yes"/>
      <point x="516" y="202"/>
      <point x="372" y="354"/>
      <point x="372" y="712" type="curve" smooth="yes"/>
      <point x="372" y="1046"/>
      <point x="516" y="1202"/>
      <point x="706" y="1202" type="curve" smooth="yes"/>
      <point x="896" y="1202"/>
      <point x="1040" y="1044"/>
      <point x="1040" y="712" type="curve" smooth="yes"/>
      <point x="1040" y="350"/>
      <point x="896" y="202"/>
    </contour>
  </outline>
</glyph>
<glyph name="one" format="2">
  <advance width="738"/>
  <unicode hex="0031"/>
  <outline>
    <contour>
      <point x="288" y="0" type="line"/>
      <point x="544" y="0" type="line"/>
      <point x="544" y="1400" type="line"/>
      <point x="348" y="1400" type="line"/>
      <point x="310" y="1304"/>
      <point x="176" y="1200"/>
      <point x="90" y="1182" type="curve"/>
      <point x="112" y="966" type="line"/>
      <point x="178" y="978"/>
      <point x="236" y="1004"/>
      <point x="288" y="1038" type="curve"/>
    </contour>
  </outline>
</glyph>
<glyph name="two" format="2">
  <advance width="1058"/>
  <unicode hex="0032"/>
  <outline>
    <contour>
      <point x="88" y="0" type="line"/>
      <point x="956" y="0" type="line"/>
      <point x="956" y="240" type="line"/>
      <point x="512" y="240" type="line"/>
      <point x="676" y="490" type="line" smooth="yes"/>
      <point x="846" y="748"/>
      <point x="906" y="892"/>
      <point x="906" y="1050" type="curve" smooth="yes"/>
      <point x="906" y="1254"/>
      <point x="780" y="1428"/>
      <point x="526" y="1428" type="curve" smooth="yes"/>
      <point x="354" y="1428"/>
      <point x="224" y="1372"/>
      <point x="104" y="1276" type="curve"/>
      <point x="136" y="1018" type="line"/>
      <point x="224" y="1106"/>
      <point x="334" y="1188"/>
      <point x="474" y="1188" type="curve" smooth="yes"/>
      <point x="590" y="1188"/>
      <point x="658" y="1118"/>
      <point x="658" y="1004" type="curve" smooth="yes"/>
      <point x="658" y="892"/>
      <point x="602" y="790"/>
      <point x="456" y="566" type="curve" smooth="yes"/>
    </contour>
  </outline>
</glyph>
<glyph name="three" format="2">
  <advance width="1078"/>
  <unicode hex="0033"/>
  <outline>
    <contour>
      <point x="462" y="-28" type="curve" smooth="yes"/>
      <point x="760" y="-28"/>
      <point x="960" y="124"/>
      <point x="960" y="398" type="curve" smooth="yes"/>
      <point x="960" y="600"/>
      <point x="826" y="728"/>
      <point x="632" y="760" type="curve"/>
      <point x="634" y="714" type="line"/>
      <point x="810" y="758"/>
      <point x="910" y="890"/>
      <point x="910" y="1070" type="curve" smooth="yes"/>
      <point x="910" y="1276"/>
      <point x="762" y="1428"/>
      <point x="488" y="1428" type="curve" smooth="yes"/>
      <point x="336" y="1428"/>
      <point x="206" y="1388"/>
      <point x="114" y="1340" type="curve"/>
      <point x="152" y="1114" type="line"/>
      <point x="250" y="1170"/>
      <point x="348" y="1208"/>
      <point x="462" y="1208" type="curve" smooth="yes"/>
      <point x="594" y="1208"/>
      <point x="666" y="1140"/>
      <point x="666" y="1038" type="curve" smooth="yes"/>
      <point x="666" y="920"/>
      <point x="588" y="850"/>
      <point x="444" y="850" type="curve" smooth="yes"/>
      <point x="304" y="850" type="line"/>
      <point x="304" y="610" type="line"/>
      <point x="446" y="610" type="line" smooth="yes"/>
      <point x="618" y="610"/>
      <point x="704" y="538"/>
      <point x="704" y="398" type="curve" smooth="yes"/>
      <point x="704" y="258"/>
      <point x="608" y="192"/>
      <point x="462" y="192" type="curve" smooth="yes"/>
      <point x="336" y="192"/>
      <point x="218" y="234"/>
      <point x="130" y="278" type="curve"/>
      <point x="68" y="62" type="line"/>
      <point x="150" y="20"/>
      <point x="294" y="-28"/>
    </contour>
  </outline>
</glyph>
<glyph name="four" format="2">
  <advance width="1242"/>
  <unicode hex="0034"/>
  <outline>
    <contour>
      <point x="712" y="0" type="line"/>
      <point x="958" y="0" type="line"/>
      <point x="958" y="320" type="line"/>
      <point x="1138" y="320" type="line"/>
      <point x="1138" y="528" type="line"/>
      <point x="958" y="528" type="line"/>
      <point x="958" y="1400" type="line"/>
      <point x="784" y="1400" type="line"/>
      <point x="14" y="320" type="line"/>
      <point x="712" y="320" type="line"/>
    </contour>
    <contour>
      <point x="350" y="444" type="line"/>
      <point x="778" y="1052" type="line"/>
      <point x="712" y="1124" type="line"/>
      <point x="712" y="528" type="line"/>
      <point x="302" y="528" type="line"/>
    </contour>
  </outline>
</glyph>
<glyph name="five" format="2">
  <advance width="1074"/>
  <unicode hex="0035"/>
  <outline>
    <contour>
      <point x="482" y="-26" type="curve" smooth="yes"/>
      <point x="768" y="-26"/>
      <point x="974" y="148"/>
      <point x="974" y="436" type="curve" smooth="yes"/>
      <point x="974" y="716"/>
      <point x="788" y="880"/>
      <point x="520" y="880" type="curve" smooth="yes"/>
      <point x="438" y="880"/>
      <point x="370" y="870"/>
      <point x="306" y="852" type="curve"/>
      <point x="402" y="764" type="line"/>
      <point x="450" y="1152" type="line"/>
      <point x="902" y="1152" type="line"/>
      <point x="918" y="1400" type="line"/>
      <point x="258" y="1400" type="line"/>
      <point x="168" y="642" type="line"/>
      <point x="254" y="658"/>
      <point x="342" y="670"/>
      <point x="430" y="670" type="curve" smooth="yes"/>
      <point x="622" y="670"/>
      <point x="726" y="582"/>
      <point x="726" y="436" type="curve" smooth="yes"/>
      <point x="726" y="300"/>
      <point x="630" y="214"/>
      <point x="478" y="214" type="curve" smooth="yes"/>
      <point x="354" y="214"/>
      <point x="256" y="256"/>
      <point x="158" y="318" type="curve"/>
      <point x="98" y="86" type="line"/>
      <point x="200" y="16"/>
      <point x="328" y="-26"/>
    </contour>
  </outline>
</glyph>
<glyph name="six" format="2">
  <advance width="1124"/>
  <unicode hex="0036"/>
  <outline>
    <contour>
      <point x="580" y="-28" type="curve" smooth="yes"/>
      <point x="862" y="-28"/>
      <point x="1040" y="154"/>
      <point x="1040" y="420" type="curve" smooth="yes"/>
      <point x="1040" y="668"/>
      <point x="864" y="842"/>
      <point x="630" y="842" type="curve" smooth="yes"/>
      <point x="442" y="842"/>
      <point x="330" y="764"/>
      <point x="260" y="650" type="curve"/>
      <point x="332" y="562" type="line"/>
      <point x="332" y="928"/>
      <point x="736" y="1200"/>
      <point x="914" y="1288" type="curve"/>
      <point x="736" y="1428" type="line"/>
      <point x="454" y="1286"/>
      <point x="96" y="944"/>
      <point x="96" y="494" type="curve" smooth="yes"/>
      <point x="96" y="180"/>
      <point x="288" y="-28"/>
    </contour>
    <contour>
      <point x="584" y="184" type="curve" smooth="yes"/>
      <point x="454" y="184"/>
      <point x="360" y="284"/>
      <point x="360" y="410" type="curve" smooth="yes"/>
      <point x="360" y="536"/>
      <point x="454" y="630"/>
      <point x="584" y="630" type="curve" smooth="yes"/>
      <point x="712" y="630"/>
      <point x="808" y="536"/>
      <point x="808" y="410" type="curve" smooth="yes"/>
      <point x="808" y="284"/>
      <point x="712" y="184"/>
    </contour>
  </outline>
</glyph>
<glyph name="seven" format="2">
  <advance width="1020"/>
  <unicode hex="0037"/>
  <outline>
    <contour>
      <point x="154" y="0" type="line"/>
      <point x="422" y="0" type="line"/>
      <point x="1006" y="1400" type="line"/>
      <point x="86" y="1400" type="line"/>
      <point x="86" y="1160" type="line"/>
      <point x="750" y="1160" type="line"/>
      <point x="678" y="1258" type="line"/>
    </contour>
  </outline>
</glyph>
<glyph name="eight" format="2">
  <advance width="1208"/>
  <unicode hex="0038"/>
  <outline>
    <contour>
      <point x="604" y="-28" type="curve" smooth="yes"/>
      <point x="906" y="-28"/>
      <point x="1096" y="148"/>
      <point x="1096" y="402" type="curve" smooth="yes"/>
      <point x="1096" y="654"/>
      <point x="898" y="826"/>
      <point x="604" y="826" type="curve" smooth="yes"/>
      <point x="310" y="826"/>
      <point x="112" y="654"/>
      <point x="112" y="402" type="curve" smooth="yes"/>
      <point x="112" y="148"/>
      <point x="300" y="-28"/>
    </contour>
    <contour>
      <point x="604" y="192" type="curve" smooth="yes"/>
      <point x="442" y="192"/>
      <point x="348" y="282"/>
      <point x="348" y="418" type="curve" smooth="yes"/>
      <point x="348" y="546"/>
      <point x="442" y="640"/>
      <point x="604" y="640" type="curve" smooth="yes"/>
      <point x="766" y="640"/>
      <point x="860" y="546"/>
      <point x="860" y="418" type="curve" smooth="yes"/>
      <point x="860" y="282"/>
      <point x="766" y="192"/>
    </contour>
    <contour>
      <point x="604" y="680" type="curve" smooth="yes"/>
      <point x="860" y="680"/>
      <point x="1024" y="832"/>
      <point x="1024" y="1050" type="curve" smooth="yes"/>
      <point x="1024" y="1234"/>
      <point x="908" y="1428"/>
      <point x="604" y="1428" type="curve" smooth="yes"/>
      <point x="300" y="1428"/>
      <point x="176" y="1234"/>
      <point x="176" y="1050" type="curve" smooth="yes"/>
      <point x="176" y="832"/>
      <point x="366" y="680"/>
    </contour>
    <contour>
      <point x="604" y="866" type="curve" smooth="yes"/>
      <point x="474" y="866"/>
      <point x="400" y="948"/>
      <point x="400" y="1048" type="curve" smooth="yes"/>
      <point x="400" y="1154"/>
      <point x="474" y="1228"/>
      <point x="604" y="1228" type="curve" smooth="yes"/>
      <point x="734" y="1228"/>
      <point x="800" y="1154"/>
      <point x="800" y="1048" type="curve" smooth="yes"/>
      <point x="800" y="948"/>
      <point x="734" y="866"/>
    </contour>
  </outline>
</glyph>
<glyph name="nine" format="2">
  <advance width="1124"/>
  <unicode hex="0039"/>
  <outline>
    <contour>
      <point x="420" y="0" type="line"/>
      <point x="694" y="138"/>
      <point x="1040" y="470"/>
      <point x="1040" y="906" type="curve" smooth="yes"/>
      <point x="1040" y="1220"/>
      <point x="848" y="1428"/>
      <point x="556" y="1428" type="curve" smooth="yes"/>
      <point x="274" y="1428"/>
      <point x="96" y="1246"/>
      <point x="96" y="980" type="curve" smooth="yes"/>
      <point x="96" y="732"/>
      <point x="272" y="558"/>
      <point x="506" y="558" type="curve" smooth="yes"/>
      <point x="694" y="558"/>
      <point x="806" y="636"/>
      <point x="876" y="750" type="curve"/>
      <point x="804" y="838" type="line"/>
      <point x="804" y="486"/>
      <point x="414" y="224"/>
      <point x="242" y="140" type="curve"/>
    </contour>
    <contour>
      <point x="552" y="778" type="curve" smooth="yes"/>
      <point x="426" y="778"/>
      <point x="332" y="868"/>
      <point x="332" y="990" type="curve" smooth="yes"/>
      <point x="332" y="1112"/>
      <point x="426" y="1208"/>
      <point x="552" y="1208" type="curve" smooth="yes"/>
      <point x="680" y="1208"/>
      <point x="772" y="1112"/>
      <point x="772" y="990" type="curve" smooth="yes"/>
      <point x="772" y="868"/>
      <point x="680" y="778"/>
    </contour>
  </outline>
</glyph>
<glyph name="less" format="2">
  <advance width="822"/>
  <unicode hex="003C"/>
  <outline>
    <contour>
      <point x="786" y="134" type="line"/>
      <point x="786" y="342" type="line"/>
      <point x="288" y="554" type="line"/>
      <point x="786" y="768" type="line"/>
      <point x="786" y="976" type="line"/>
      <point x="80" y="658" type="line"/>
      <point x="80" y="450" type="line"/>
    </contour>
  </outline>
</glyph>
<glyph name="equal" format="2">
  <advance width="900"/>
  <unicode hex="003D"/>
  <outline>
    <contour>
      <point x="80" y="624" type="line"/>
      <point x="820" y="624" type="line"/>
      <point x="820" y="808" type="line"/>
      <point x="80" y="808" type="line"/>
    </contour>
    <contour>
      <point x="80" y="300" type="line"/>
      <point x="820" y="300" type="line"/>
      <point x="820" y="484" type="line"/>
      <point x="80" y="484" type="line"/>
    </contour>
  </outline>
</glyph>
<glyph name="question" format="2">
  <advance width="934"/>
  <unicode hex="003F"/>
  <outline>
    <contour>
      <point x="248" y="414" type="line"/>
      <point x="510" y="414" type="line"/>
      <point x="510" y="446" type="line" smooth="yes"/>
      <point x="510" y="560"/>
      <point x="582" y="640"/>
      <point x="664" y="722" type="curve" smooth="yes"/>
      <point x="778" y="836"/>
      <point x="854" y="934"/>
      <point x="854" y="1074" type="curve" smooth="yes"/>
      <point x="854" y="1278"/>
      <point x="704" y="1428"/>
      <point x="456" y="1428" type="curve" smooth="yes"/>
      <point x="292" y="1428"/>
      <point x="184" y="1392"/>
      <point x="80" y="1342" type="curve"/>
      <point x="108" y="1106" type="line"/>
      <point x="200" y="1150"/>
      <point x="288" y="1182"/>
      <point x="396" y="1182" type="curve" smooth="yes"/>
      <point x="504" y="1182"/>
      <point x="574" y="1126"/>
      <point x="574" y="1030" type="curve" smooth="yes"/>
      <point x="574" y="926"/>
      <point x="512" y="866"/>
      <point x="412" y="766" type="curve" smooth="yes"/>
      <point x="326" y="680"/>
      <point x="248" y="590"/>
      <point x="248" y="434" type="curve" smooth="yes"/>
    </contour>
    <contour>
      <point x="248" y="0" type="line"/>
      <point x="508" y="0" type="line"/>
      <point x="508" y="272" type="line"/>
      <point x="248" y="272" type="line"/>
    </contour>
  </outline>
</glyph>
<glyph name="at" format="2">
  <advance width="1444"/>
  <unicode hex="0040"/>
  <outline>
    <contour>
      <point x="592" y="-174" type="curve" smooth="yes"/>
      <point x="860" y="-174"/>
      <point x="1102" y="-28"/>
      <point x="1232" y="186" type="curve"/>
      <point x="1226" y="192" type="line"/>
      <point x="1158" y="134"/>
      <point x="1052" y="84"/>
      <point x="988" y="84" type="curve" smooth="yes"/>
      <point x="898" y="84"/>
      <point x="872" y="178"/>
      <point x="872" y="242" type="curve" smooth="yes"/>
      <point x="872" y="272"/>
      <point x="876" y="298"/>
      <point x="878" y="312" type="curve"/>
      <point x="792" y="162"/>
      <point x="634" y="80"/>
      <point x="518" y="80" type="curve" smooth="yes"/>
      <point x="384" y="80"/>
      <point x="336" y="190"/>
      <point x="336" y="306" type="curve" smooth="yes"/>
      <point x="336" y="578"/>
      <point x="596" y="864"/>
      <point x="846" y="864" type="curve" smooth="yes"/>
      <point x="956" y="864"/>
      <point x="1038" y="810"/>
      <point x="1088" y="758" type="curve"/>
      <point x="1038" y="544"/>
      <point x="978" y="408"/>
      <point x="978" y="290" type="curve" smooth="yes"/>
      <point x="978" y="200"/>
      <point x="1014" y="188"/>
      <point x="1064" y="188" type="curve" smooth="yes"/>
      <point x="1270" y="188"/>
      <point x="1348" y="398"/>
      <point x="1348" y="600" type="curve" smooth="yes"/>
      <point x="1348" y="908"/>
      <point x="1164" y="1106"/>
      <point x="850" y="1106" type="curve" smooth="yes"/>
      <point x="446" y="1106"/>
      <point x="96" y="776"/>
      <point x="96" y="340" type="curve" smooth="yes"/>
      <point x="96" y="16"/>
      <point x="288" y="-174"/>
    </contour>
    <contour>
      <point x="584" y="212" type="curve" smooth="yes"/>
      <point x="718" y="212"/>
      <point x="916" y="484"/>
      <point x="954" y="698" type="curve"/>
      <point x="938" y="740"/>
      <point x="886" y="742"/>
      <point x="864" y="742" type="curve" smooth="yes"/>
      <point x="716" y="742"/>
      <point x="496" y="564"/>
      <point x="496" y="346" type="curve" smooth="yes"/>
      <point x="496" y="270"/>
      <point x="522" y="212"/>
    </contour>
  </outline>
</glyph>
<glyph name="A" format="2">
  <advance width="1250"/>
  <unicode hex="0041"/>
  <anchor x="626" y="0" name="bottom"/>
  <anchor x="1114" y="0" name="ogonek"/>
  <anchor x="626" y="1400" name="top"/>
  <outline>
    <contour>
      <point x="918" y="332" type="line"/>
      <point x="918" y="556" type="line"/>
      <point x="332" y="556" type="line"/>
      <point x="332" y="332" type="line"/>
    </contour>
    <contour>
      <point x="592" y="1150" type="line"/>
      <point x="996" y="0" type="line"/>
      <point x="1244" y="0" type="line"/>
      <point x="746" y="1400" type="line"/>
      <point x="504" y="1400" type="line"/>
      <point x="6" y="0" type="line"/>
      <point x="254" y="0" type="line"/>
      <point x="658" y="1150" type="line"/>
    </contour>
  </outline>
</glyph>
<glyph name="B" format="2">
  <advance width="1252"/>
  <unicode hex="0042"/>
  <outline>
    <contour>
      <point x="154" y="0" type="line"/>
      <point x="738" y="0" type="line" smooth="yes"/>
      <point x="1020" y="0"/>
      <point x="1194" y="146"/>
      <point x="1194" y="398" type="curve" smooth="yes"/>
      <point x="1194" y="608"/>
      <point x="1084" y="736"/>
      <point x="860" y="784" type="curve"/>
      <point x="860" y="736" type="line"/>
      <point x="1008" y="786"/>
      <point x="1082" y="898"/>
      <point x="1082" y="1062" type="curve" smooth="yes"/>
      <point x="1082" y="1282"/>
      <point x="952" y="1400"/>
      <point x="682" y="1400" type="curve" smooth="yes"/>
      <point x="154" y="1400" type="line"/>
    </contour>
    <contour>
      <point x="410" y="228" type="line"/>
      <point x="410" y="622" type="line"/>
      <point x="700" y="622" type="line" smooth="yes"/>
      <point x="830" y="622"/>
      <point x="930" y="578"/>
      <point x="930" y="426" type="curve" smooth="yes"/>
      <point x="930" y="276"/>
      <point x="840" y="228"/>
      <point x="700" y="228" type="curve" smooth="yes"/>
    </contour>
    <contour>
      <point x="410" y="850" type="line"/>
      <point x="410" y="1172" type="line"/>
      <point x="644" y="1172" type="line" smooth="yes"/>
      <point x="768" y="1172"/>
      <point x="830" y="1126"/>
      <point x="830" y="1010" type="curve" smooth="yes"/>
      <point x="830" y="898"/>
      <point x="768" y="850"/>
      <point x="644" y="850" type="curve" smooth="yes"/>
    </contour>
  </outline>
</glyph>
<glyph name="D" format="2">
  <advance width="1440"/>
  <unicode hex="0044"/>
  <anchor x="720" y="0" name="bottom"/>
  <anchor x="720" y="1400" name="top"/>
  <outline>
    <contour>
      <point x="154" y="0" type="line"/>
      <point x="678" y="0" type="line" smooth="yes"/>
      <point x="1078" y="0"/>
      <point x="1368" y="260"/>
      <point x="1368" y="700" type="curve" smooth="yes"/>
      <point x="1368" y="1140"/>
      <point x="1078" y="1400"/>
      <point x="678" y="1400" type="curve" smooth="yes"/>
      <point x="154" y="1400" type="line"/>
    </contour>
    <contour>
      <point x="410" y="228" type="line"/>
      <point x="410" y="1172" type="line"/>
      <point x="678" y="1172" type="line" smooth="yes"/>
      <point x="950" y="1172"/>
      <point x="1088" y="992"/>
      <point x="1088" y="700" type="curve" smooth="yes"/>
      <point x="1088" y="408"/>
      <point x="950" y="228"/>
      <point x="678" y="228" type="curve" smooth="yes"/>
    </contour>
  </outline>
</glyph>
<glyph name="E" format="2">
  <advance width="1136"/>
  <unicode hex="0045"/>
  <anchor x="626" y="0" name="bottom"/>
  <anchor x="1006" y="0" name="ogonek"/>
  <anchor x="622" y="1400" name="top"/>
  <outline>
    <contour>
      <point x="154" y="0" type="line"/>
      <point x="1070" y="0" type="line"/>
      <point x="1070" y="248" type="line"/>
      <point x="416" y="248" type="line"/>
      <point x="416" y="606" type="line"/>
      <point x="908" y="606" type="line"/>
      <point x="908" y="854" type="line"/>
      <point x="416" y="854" type="line"/>
      <point x="416" y="1152" type="line"/>
      <point x="1050" y="1152" type="line"/>
      <point x="1050" y="1400" type="line"/>
      <point x="154" y="1400" type="line"/>
    </contour>
  </outline>
</glyph>
<glyph name="F" format="2">
  <advance width="1050"/>
  <unicode hex="0046"/>
  <outline>
    <contour>
      <point x="154" y="0" type="line"/>
      <point x="410" y="0" type="line"/>
      <point x="410" y="606" type="line"/>
      <point x="878" y="606" type="line"/>
      <point x="878" y="854" type="line"/>
      <point x="410" y="854" type="line"/>
      <point x="410" y="1152" type="line"/>
      <point x="1016" y="1152" type="line"/>
      <point x="1016" y="1400" type="line"/>
      <point x="154" y="1400" type="line"/>
    </contour>
  </outline>
</glyph>
<glyph name="G" format="2">
  <advance width="1328"/>
  <unicode hex="0047"/>
  <anchor x="782" y="0" name="bottom"/>
  <anchor x="802" y="1400" name="top"/>
  <outline>
    <contour>
      <point x="776" y="-28" type="curve" smooth="yes"/>
      <point x="968" y="-28"/>
      <point x="1136" y="20"/>
      <point x="1234" y="78" type="curve"/>
      <point x="1234" y="702" type="line"/>
      <point x="786" y="702" type="line"/>
      <point x="786" y="490" type="line"/>
      <point x="978" y="490" type="line"/>
      <point x="978" y="240" type="line"/>
      <point x="910" y="226"/>
      <point x="844" y="218"/>
      <point x="786" y="218" type="curve" smooth="yes"/>
      <point x="496" y="218"/>
      <point x="350" y="420"/>
      <point x="350" y="706" type="curve" smooth="yes"/>
      <point x="350" y="978"/>
      <point x="490" y="1182"/>
      <point x="802" y="1182" type="curve" smooth="yes"/>
      <point x="938" y="1182"/>
      <point x="1060" y="1148"/>
      <point x="1160" y="1102" type="curve"/>
      <point x="1188" y="1346" type="line"/>
      <point x="1092" y="1394"/>
      <point x="950" y="1428"/>
      <point x="802" y="1428" type="curve" smooth="yes"/>
      <point x="372" y="1428"/>
      <point x="70" y="1140"/>
      <point x="70" y="702" type="curve" smooth="yes"/>
      <point x="70" y="260"/>
      <point x="332" y="-28"/>
    </contour>
  </outline>
</glyph>
<glyph name="H" format="2">
  <advance width="1460"/>
  <unicode hex="0048"/>
  <anchor x="730" y="0" name="bottom"/>
  <anchor x="730" y="1400" name="top"/>
  <outline>
    <contour>
      <point x="154" y="0" type="line"/>
      <point x="410" y="0" type="line"/>
      <point x="410" y="606" type="line"/>
      <point x="1050" y="606" type="line"/>
      <point x="1050" y="0" type="line"/>
      <point x="1306" y="0" type="line"/>
      <point x="1306" y="1400" type="line"/>
      <point x="1050" y="1400" type="line"/>
      <point x="1050" y="846" type="line"/>
      <point x="410" y="846" type="line"/>
      <point x="410" y="1400" type="line"/>
      <point x="154" y="1400" type="line"/>
    </contour>
  </outline>
</glyph>
<glyph name="J" format="2">
  <advance width="564"/>
  <unicode hex="004A"/>
  <anchor x="282" y="1400" name="top"/>
  <outline>
    <contour>
      <point x="14" y="-344" type="line"/>
      <point x="86" y="-344" type="line" smooth="yes"/>
      <point x="286" y="-344"/>
      <point x="410" y="-252"/>
      <point x="410" y="-8" type="curve" smooth="yes"/>
      <point x="410" y="1400" type="line"/>
      <point x="154" y="1400" type="line"/>
      <point x="154" y="48" type="line" smooth="yes"/>
      <point x="154" y="-84"/>
      <point x="106" y="-124"/>
      <point x="-8" y="-124" type="curve"/>
    </contour>
  </outline>
</glyph>
<glyph name="K" format="2">
  <advance width="1254"/>
  <unicode hex="004B"/>
  <anchor x="680" y="0" name="bottom"/>
  <anchor x="680" y="1400" name="top"/>
  <outline>
    <contour>
      <point x="948" y="0" type="line"/>
      <point x="1248" y="0" type="line"/>
      <point x="726" y="740" type="line"/>
      <point x="1248" y="1400" type="line"/>
      <point x="948" y="1400" type="line"/>
      <point x="430" y="740" type="line"/>
    </contour>
    <contour>
      <point x="154" y="0" type="line"/>
      <point x="410" y="0" type="line"/>
      <point x="410" y="1400" type="line"/>
      <point x="154" y="1400" type="line"/>
    </contour>
  </outline>
</glyph>
<glyph name="L" format="2">
  <advance width="1000"/>
  <unicode hex="004C"/>
  <guideline x="493" y="124" angle="90"/>
  <anchor x="570" y="0" name="bottom"/>
  <anchor x="782" y="784" name="center"/>
  <anchor x="282" y="1400" name="top"/>
  <anchor x="788" y="1400" name="topright"/>
  <outline>
    <contour>
      <point x="154" y="0" type="line"/>
      <point x="986" y="0" type="line"/>
      <point x="986" y="228" type="line"/>
      <point x="410" y="228" type="line"/>
      <point x="410" y="1400" type="line"/>
      <point x="154" y="1400" type="line"/>
    </contour>
  </outline>
</glyph>
<glyph name="M" format="2">
  <advance width="1666"/>
  <unicode hex="004D"/>
  <anchor x="834" y="0" name="bottom"/>
  <anchor x="834" y="1400" name="top"/>
  <outline>
    <contour>
      <point x="88" y="0" type="line"/>
      <point x="354" y="0" type="line"/>
      <point x="488" y="1050" type="line"/>
      <point x="418" y="1036" type="line"/>
      <point x="834" y="294" type="line"/>
      <point x="1248" y="1038" type="line"/>
      <point x="1178" y="1052" type="line"/>
      <point x="1312" y="0" type="line"/>
      <point x="1578" y="0" type="line"/>
      <point x="1384" y="1400" type="line"/>
      <point x="1174" y="1400" type="line"/>
      <point x="834" y="762" type="line"/>
      <point x="492" y="1400" type="line"/>
      <point x="282" y="1400" type="line"/>
    </contour>
  </outline>
</glyph>
<glyph name="O" format="2">
  <advance width="1520"/>
  <unicode hex="004F"/>
  <anchor x="760" y="0" name="bottom"/>
  <anchor x="888" y="0" name="ogonek"/>
  <anchor x="760" y="1400" name="top"/>
  <anchor x="966" y="1400" name="topright"/>
  <outline>
    <contour>
      <point x="760" y="-28" type="curve" smooth="yes"/>
      <point x="1160" y="-28"/>
      <point x="1450" y="260"/>
      <point x="1450" y="700" type="curve" smooth="yes"/>
      <point x="1450" y="1140"/>
      <point x="1160" y="1428"/>
      <point x="760" y="1428" type="curve" smooth="yes"/>
      <point x="360" y="1428"/>
      <point x="70" y="1140"/>
      <point x="70" y="700" type="curve" smooth="yes"/>
      <point x="70" y="260"/>
      <point x="360" y="-28"/>
    </contour>
    <contour>
      <point x="760" y="220" type="curve" smooth="yes"/>
      <point x="480" y="220"/>
      <point x="338" y="422"/>
      <point x="338" y="700" type="curve" smooth="yes"/>
      <point x="338" y="978"/>
      <point x="480" y="1180"/>
      <point x="760" y="1180" type="curve" smooth="yes"/>
      <point x="1040" y="1180"/>
      <point x="1182" y="978"/>
      <point x="1182" y="700" type="curve" smooth="yes"/>
      <point x="1182" y="422"/>
      <point x="1040" y="220"/>
    </contour>
  </outline>
</glyph>
<glyph name="P" format="2">
  <advance width="1192"/>
  <unicode hex="0050"/>
  <outline>
    <contour>
      <point x="154" y="0" type="line"/>
      <point x="410" y="0" type="line"/>
      <point x="410" y="486" type="line"/>
      <point x="658" y="486" type="line" smooth="yes"/>
      <point x="974" y="486"/>
      <point x="1150" y="632"/>
      <point x="1150" y="948" type="curve" smooth="yes"/>
      <point x="1150" y="1260"/>
      <point x="974" y="1400"/>
      <point x="652" y="1400" type="curve" smooth="yes"/>
      <point x="154" y="1400" type="line"/>
    </contour>
    <contour>
      <point x="410" y="700" type="line"/>
      <point x="410" y="1186" type="line"/>
      <point x="622" y="1186" type="line" smooth="yes"/>
      <point x="802" y="1186"/>
      <point x="890" y="1112"/>
      <point x="890" y="944" type="curve" smooth="yes"/>
      <point x="890" y="776"/>
      <point x="802" y="700"/>
      <point x="628" y="700" type="curve" smooth="yes"/>
    </contour>
  </outline>
</glyph>
<glyph name="Q" format="2">
  <advance width="1520"/>
  <unicode hex="0051"/>
  <anchor x="760" y="0" name="bottom"/>
  <anchor x="888" y="0" name="ogonek"/>
  <anchor x="760" y="1400" name="top"/>
  <anchor x="966" y="1400" name="topright"/>
  <outline>
    <contour>
      <point x="802" y="426" type="line"/>
      <point x="1290" y="-38" type="line"/>
      <point x="1448" y="132" type="line"/>
      <point x="960" y="596" type="line"/>
    </contour>
    <component base="O"/>
  </outline>
</glyph>
<glyph name="R" format="2">
  <advance width="1252"/>
  <unicode hex="0052"/>
  <anchor x="686" y="0" name="bottom"/>
  <anchor x="638" y="1400" name="top"/>
  <outline>
    <contour>
      <point x="154" y="0" type="line"/>
      <point x="410" y="0" type="line"/>
      <point x="410" y="520" type="line"/>
      <point x="660" y="520" type="line" smooth="yes"/>
      <point x="664" y="520"/>
      <point x="666" y="520"/>
      <point x="670" y="520" type="curve"/>
      <point x="940" y="0" type="line"/>
      <point x="1226" y="0" type="line"/>
      <point x="910" y="588" type="line"/>
      <point x="1052" y="658"/>
      <point x="1148" y="770"/>
      <point x="1148" y="976" type="curve" smooth="yes"/>
      <point x="1148" y="1264"/>
      <point x="956" y="1400"/>
      <point x="666" y="1400" type="curve" smooth="yes"/>
      <point x="154" y="1400" type="line"/>
    </contour>
    <contour>
      <point x="410" y="734" type="line"/>
      <point x="410" y="1186" type="line"/>
      <point x="608" y="1186" type="line" smooth="yes"/>
      <point x="808" y="1186"/>
      <point x="880" y="1102"/>
      <point x="880" y="962" type="curve" smooth="yes"/>
      <point x="880" y="830"/>
      <point x="808" y="734"/>
      <point x="598" y="734" type="curve" smooth="yes"/>
    </contour>
  </outline>
</glyph>
<glyph name="S" format="2">
  <advance width="1160"/>
  <unicode hex="0053"/>
  <anchor x="586" y="0" name="bottom"/>
  <anchor x="622" y="1400" name="top"/>
  <outline>
    <contour>
      <point x="560" y="-28" type="curve" smooth="yes"/>
      <point x="1032" y="-28"/>
      <point x="1102" y="220"/>
      <point x="1102" y="380" type="curve" smooth="yes"/>
      <point x="1102" y="620"/>
      <point x="942" y="730"/>
      <point x="638" y="826" type="curve" smooth="yes"/>
      <point x="462" y="882"/>
      <point x="356" y="918"/>
      <point x="356" y="1036" type="curve" smooth="yes"/>
      <point x="356" y="1134"/>
      <point x="440" y="1184"/>
      <point x="590" y="1184" type="curve" smooth="yes"/>
      <point x="732" y="1184"/>
      <point x="864" y="1146"/>
      <point x="1022" y="1076" type="curve"/>
      <point x="1048" y="1338" type="line"/>
      <point x="938" y="1382"/>
      <point x="776" y="1428"/>
      <point x="606" y="1428" type="curve" smooth="yes"/>
      <point x="268" y="1428"/>
      <point x="96" y="1260"/>
      <point x="96" y="1028" type="curve" smooth="yes"/>
      <point x="96" y="792"/>
      <point x="266" y="698"/>
      <point x="490" y="620" type="curve" smooth="yes"/>
      <point x="714" y="542"/>
      <point x="816" y="506"/>
      <point x="816" y="380" type="curve" smooth="yes"/>
      <point x="816" y="270"/>
      <point x="726" y="218"/>
      <point x="590" y="218" type="curve" smooth="yes"/>
      <point x="426" y="218"/>
      <point x="266" y="278"/>
      <point x="126" y="346" type="curve"/>
      <point x="96" y="74" type="line"/>
      <point x="186" y="30"/>
      <point x="390" y="-28"/>
    </contour>
  </outline>
</glyph>
<glyph name="V" format="2">
  <advance width="1238"/>
  <unicode hex="0056"/>
  <anchor x="620" y="0" name="bottom"/>
  <anchor x="620" y="1400" name="top"/>
  <outline>
    <contour>
      <point x="498" y="0" type="line"/>
      <point x="740" y="0" type="line"/>
      <point x="1238" y="1400" type="line"/>
      <point x="980" y="1400" type="line"/>
      <point x="592" y="296" type="line"/>
      <point x="644" y="296" type="line"/>
      <point x="258" y="1400" type="line"/>
      <point x="0" y="1400" type="line"/>
    </contour>
  </outline>
</glyph>
<glyph name="W" format="2">
  <advance width="1926"/>
  <unicode hex="0057"/>
  <anchor x="964" y="0" name="bottom"/>
  <anchor x="964" y="1400" name="top"/>
  <outline>
    <contour>
      <point x="414" y="0" type="line"/>
      <point x="656" y="0" type="line"/>
      <point x="966" y="934" type="line"/>
      <point x="1278" y="0" type="line"/>
      <point x="1504" y="0" type="line"/>
      <point x="1914" y="1400" type="line"/>
      <point x="1648" y="1400" type="line"/>
      <point x="1380" y="432" type="line"/>
      <point x="1056" y="1400" type="line"/>
      <point x="878" y="1400" type="line"/>
      <point x="566" y="406" type="line"/>
      <point x="286" y="1400" type="line"/>
      <point x="20" y="1400" type="line"/>
    </contour>
  </outline>
</glyph>
<glyph name="X" format="2">
  <advance width="1252"/>
  <unicode hex="0058"/>
  <outline>
    <contour>
      <point x="-4" y="0" type="line"/>
      <point x="280" y="0" type="line"/>
      <point x="626" y="510" type="line"/>
      <point x="972" y="0" type="line"/>
      <point x="1256" y="0" type="line"/>
      <point x="766" y="718" type="line"/>
      <point x="1232" y="1400" type="line"/>
      <point x="948" y="1400" type="line"/>
      <point x="626" y="924" type="line"/>
      <point x="304" y="1400" type="line"/>
      <point x="20" y="1400" type="line"/>
      <point x="486" y="718" type="line"/>
    </contour>
  </outline>
</glyph>
<glyph name="Y" format="2">
  <advance width="1208"/>
  <unicode hex="0059"/>
  <anchor x="604" y="0" name="bottom"/>
  <anchor x="604" y="1400" name="top"/>
  <outline>
    <contour>
      <point x="476" y="0" type="line"/>
      <point x="732" y="0" type="line"/>
      <point x="732" y="566" type="line"/>
      <point x="1224" y="1400" type="line"/>
      <point x="944" y="1400" type="line"/>
      <point x="544" y="690" type="line"/>
      <point x="664" y="690" type="line"/>
      <point x="264" y="1400" type="line"/>
      <point x="-16" y="1400" type="line"/>
      <point x="476" y="566" type="line"/>
    </contour>
  </outline>
</glyph>
<glyph name="Z" format="2">
  <advance width="1096"/>
  <unicode hex="005A"/>
  <anchor x="505" y="0" name="bottom"/>
  <anchor x="594" y="1400" name="top"/>
  <outline>
    <contour>
      <point x="16" y="0" type="line"/>
      <point x="1072" y="0" type="line"/>
      <point x="1072" y="228" type="line"/>
      <point x="322" y="228" type="line"/>
      <point x="366" y="148" type="line"/>
      <point x="1082" y="1400" type="line"/>
      <point x="106" y="1400" type="line"/>
      <point x="106" y="1172" type="line"/>
      <point x="776" y="1172" type="line"/>
      <point x="732" y="1252" type="line"/>
    </contour>
  </outline>
</glyph>
<glyph name="bracketleft" format="2">
  <advance width="670"/>
  <unicode hex="005B"/>
  <outline>
    <contour>
      <point x="134" y="-272" type="line"/>
      <point x="648" y="-272" type="line"/>
      <point x="648" y="-54" type="line"/>
      <point x="360" y="-54" type="line"/>
      <point x="360" y="1282" type="line"/>
      <point x="648" y="1282" type="line"/>
      <point x="648" y="1500" type="line"/>
      <point x="134" y="1500" type="line"/>
    </contour>
  </outline>
</glyph>
<glyph name="backslash" format="2">
  <advance width="678"/>
  <unicode hex="005C"/>
  <outline>
    <contour>
      <point x="480" y="-170" type="line"/>
      <point x="730" y="-170" type="line"/>
      <point x="234" y="1400" type="line"/>
      <point x="-16" y="1400" type="line"/>
    </contour>
  </outline>
</glyph>
<glyph name="bracketright" format="2">
  <advance width="670"/>
  <unicode hex="005D"/>
  <outline>
    <contour>
      <point x="22" y="-272" type="line"/>
      <point x="536" y="-272" type="line"/>
      <point x="536" y="1500" type="line"/>
      <point x="22" y="1500" type="line"/>
      <point x="22" y="1282" type="line"/>
      <point x="310" y="1282" type="line"/>
      <point x="310" y="-54" type="line"/>
      <point x="22" y="-54" type="line"/>
    </contour>
  </outline>
</glyph>
<glyph name="asciicircum" format="2">
  <advance width="1024"/>
  <unicode hex="005E"/>
  <outline>
    <contour>
      <point x="100" y="830" type="line"/>
      <point x="512" y="1204" type="line"/>
      <point x="924" y="830" type="line"/>
      <point x="924" y="1094" type="line"/>
      <point x="512" y="1518" type="line"/>
      <point x="100" y="1094" type="line"/>
    </contour>
  </outline>
</glyph>
<glyph name="underscore" format="2">
  <advance width="1116"/>
  <unicode hex="005F"/>
  <outline>
    <contour>
      <point x="-2" y="-260" type="line"/>
      <point x="1118" y="-260" type="line"/>
      <point x="1118" y="-72" type="line"/>
      <point x="-2" y="-72" type="line"/>
    </contour>
  </outline>
</glyph>
<glyph name="b" format="2">
  <advance width="1142"/>
  <unicode hex="0062"/>
  <anchor x="618" y="0" name="bottom"/>
  <anchor x="238" y="1500" name="top"/>
  <outline>
    <contour>
      <point x="636" y="-20" type="curve" smooth="yes"/>
      <point x="930" y="-20"/>
      <point x="1086" y="218"/>
      <point x="1086" y="498" type="curve" smooth="yes"/>
      <point x="1086" y="778"/>
      <point x="930" y="1016"/>
      <point x="636" y="1016" type="curve" smooth="yes"/>
      <point x="496" y="1016"/>
      <point x="390" y="962"/>
      <point x="302" y="872" type="curve"/>
      <point x="362" y="834" type="line"/>
      <point x="362" y="1500" type="line"/>
      <point x="114" y="1500" type="line"/>
      <point x="114" y="0" type="line"/>
      <point x="346" y="0" type="line"/>
      <point x="358" y="170" type="line"/>
      <point x="284" y="118" type="line"/>
      <point x="380" y="32"/>
      <point x="484" y="-20"/>
    </contour>
    <contour>
      <point x="600" y="184" type="curve" smooth="yes"/>
      <point x="426" y="184"/>
      <point x="350" y="312"/>
      <point x="350" y="498" type="curve" smooth="yes"/>
      <point x="350" y="684"/>
      <point x="426" y="812"/>
      <point x="600" y="812" type="curve" smooth="yes"/>
      <point x="748" y="812"/>
      <point x="832" y="684"/>
      <point x="832" y="498" type="curve" smooth="yes"/>
      <point x="832" y="312"/>
      <point x="748" y="184"/>
    </contour>
  </outline>
</glyph>
<glyph name="c" format="2">
  <advance width="910"/>
  <unicode hex="0063"/>
  <anchor x="546" y="0" name="bottom"/>
  <anchor x="542" y="1000" name="top"/>
  <outline>
    <contour>
      <point x="580" y="-20" type="curve" smooth="yes"/>
      <point x="688" y="-20"/>
      <point x="790" y="4"/>
      <point x="860" y="40" type="curve"/>
      <point x="838" y="250" type="line"/>
      <point x="766" y="208"/>
      <point x="688" y="184"/>
      <point x="610" y="184" type="curve" smooth="yes"/>
      <point x="426" y="184"/>
      <point x="310" y="320"/>
      <point x="310" y="498" type="curve" smooth="yes"/>
      <point x="310" y="684"/>
      <point x="420" y="812"/>
      <point x="612" y="812" type="curve" smooth="yes"/>
      <point x="696" y="812"/>
      <point x="774" y="788"/>
      <point x="836" y="756" type="curve"/>
      <point x="856" y="956" type="line"/>
      <point x="792" y="992"/>
      <point x="700" y="1020"/>
      <point x="588" y="1020" type="curve" smooth="yes"/>
      <point x="232" y="1020"/>
      <point x="56" y="784"/>
      <point x="56" y="498" type="curve" smooth="yes"/>
      <point x="56" y="214"/>
      <point x="236" y="-20"/>
    </contour>
  </outline>
</glyph>
<glyph name="e" format="2">
  <advance width="1030"/>
  <unicode hex="0065"/>
  <anchor x="516" y="0" name="bottom"/>
  <anchor x="868" y="56" name="ogonek"/>
  <anchor x="562" y="1000" name="top"/>
  <outline>
    <contour>
      <point x="598" y="-20" type="curve" smooth="yes"/>
      <point x="740" y="-20"/>
      <point x="856" y="16"/>
      <point x="932" y="56" type="curve"/>
      <point x="920" y="266" type="line"/>
      <point x="836" y="216"/>
      <point x="736" y="184"/>
      <point x="620" y="184" type="curve" smooth="yes"/>
      <point x="472" y="184"/>
      <point x="342" y="260"/>
      <point x="314" y="446" type="curve"/>
      <point x="960" y="446" type="line"/>
      <point x="970" y="494"/>
      <point x="976" y="538"/>
      <point x="976" y="582" type="curve" smooth="yes"/>
      <point x="976" y="820"/>
      <point x="832" y="1016"/>
      <point x="544" y="1016" type="curve" smooth="yes"/>
      <point x="230" y="1016"/>
      <point x="56" y="780"/>
      <point x="56" y="506" type="curve" smooth="yes"/>
      <point x="56" y="222"/>
      <point x="236" y="-20"/>
    </contour>
    <contour>
      <point x="320" y="614" type="line"/>
      <point x="344" y="728"/>
      <point x="416" y="812"/>
      <point x="544" y="812" type="curve" smooth="yes"/>
      <point x="678" y="812"/>
      <point x="724" y="704"/>
      <point x="724" y="614" type="curve"/>
    </contour>
  </outline>
</glyph>
<glyph name="f" format="2">
  <advance width="680"/>
  <unicode hex="0066"/>
  <outline>
    <contour>
      <point x="176" y="0" type="line"/>
      <point x="424" y="0" type="line"/>
      <point x="424" y="796" type="line"/>
      <point x="644" y="796" type="line"/>
      <point x="644" y="1000" type="line"/>
      <point x="424" y="1000" type="line"/>
      <point x="424" y="1168" type="line" smooth="yes"/>
      <point x="424" y="1256"/>
      <point x="470" y="1292"/>
      <point x="542" y="1292" type="curve" smooth="yes"/>
      <point x="578" y="1292"/>
      <point x="600" y="1288"/>
      <point x="620" y="1282" type="curve"/>
      <point x="642" y="1482" type="line"/>
      <point x="598" y="1492"/>
      <point x="544" y="1500"/>
      <point x="480" y="1500" type="curve" smooth="yes"/>
      <point x="284" y="1500"/>
      <point x="176" y="1388"/>
      <point x="176" y="1212" type="curve" smooth="yes"/>
      <point x="176" y="1000" type="line"/>
      <point x="56" y="1000" type="line"/>
      <point x="34" y="796" type="line"/>
      <point x="176" y="796" type="line"/>
    </contour>
  </outline>
</glyph>
<glyph name="g" format="2">
  <advance width="1002"/>
  <unicode hex="0067"/>
  <anchor x="514" y="-484" name="bottom"/>
  <anchor x="502" y="1000" name="top"/>
  <outline>
    <contour>
      <point x="512" y="-504" type="curve" smooth="yes"/>
      <point x="818" y="-504"/>
      <point x="998" y="-372"/>
      <point x="998" y="-172" type="curve" smooth="yes"/>
      <point x="998" y="0"/>
      <point x="868" y="90"/>
      <point x="654" y="118" type="curve" smooth="yes"/>
      <point x="482" y="140" type="line" smooth="yes"/>
      <point x="388" y="154"/>
      <point x="346" y="170"/>
      <point x="346" y="206" type="curve" smooth="yes"/>
      <point x="346" y="220"/>
      <point x="354" y="232"/>
      <point x="368" y="238" type="curve"/>
      <point x="402" y="230"/>
      <point x="436" y="224"/>
      <point x="474" y="224" type="curve" smooth="yes"/>
      <point x="736" y="224"/>
      <point x="878" y="406"/>
      <point x="878" y="622" type="curve" smooth="yes"/>
      <point x="878" y="702"/>
      <point x="858" y="780"/>
      <point x="818" y="842" type="curve"/>
      <point x="840" y="844"/>
      <point x="862" y="844"/>
      <point x="874" y="844" type="curve" smooth="yes"/>
      <point x="904" y="844"/>
      <point x="934" y="844"/>
      <point x="964" y="844" type="curve"/>
      <point x="980" y="1000" type="line"/>
      <point x="958" y="1000"/>
      <point x="938" y="1000"/>
      <point x="916" y="1000" type="curve" smooth="yes"/>
      <point x="822" y="1000"/>
      <point x="742" y="978"/>
      <point x="702" y="956" type="curve"/>
      <point x="642" y="996"/>
      <point x="564" y="1020"/>
      <point x="474" y="1020" type="curve" smooth="yes"/>
      <point x="212" y="1020"/>
      <point x="68" y="838"/>
      <point x="68" y="622" type="curve" smooth="yes"/>
      <point x="68" y="490"/>
      <point x="120" y="372"/>
      <point x="222" y="300" type="curve"/>
      <point x="162" y="272"/>
      <point x="122" y="224"/>
      <point x="122" y="160" type="curve" smooth="yes"/>
      <point x="122" y="98"/>
      <point x="157" y="50"/>
      <point x="210" y="18" type="curve"/>
      <point x="104" y="-41"/>
      <point x="48" y="-118"/>
      <point x="48" y="-218" type="curve" smooth="yes"/>
      <point x="48" y="-396"/>
      <point x="232" y="-504"/>
    </contour>
    <contour>
      <point x="522" y="-316" type="curve" smooth="yes"/>
      <point x="354" y="-316"/>
      <point x="254" y="-270"/>
      <point x="254" y="-172" type="curve" smooth="yes"/>
      <point x="254" y="-100"/>
      <point x="304" y="-58"/>
      <point x="369" y="-32" type="curve"/>
      <point x="588" y="-64" type="line" smooth="yes"/>
      <point x="720" y="-84"/>
      <point x="778" y="-114"/>
      <point x="778" y="-190" type="curve" smooth="yes"/>
      <point x="778" y="-276"/>
      <point x="690" y="-316"/>
    </contour>
    <contour>
      <point x="474" y="408" type="curve" smooth="yes"/>
      <point x="354" y="408"/>
      <point x="292" y="492"/>
      <point x="292" y="622" type="curve" smooth="yes"/>
      <point x="292" y="752"/>
      <point x="354" y="836"/>
      <point x="474" y="836" type="curve" smooth="yes"/>
      <point x="592" y="836"/>
      <point x="654" y="752"/>
      <point x="654" y="622" type="curve" smooth="yes"/>
      <point x="654" y="492"/>
      <point x="592" y="408"/>
    </contour>
  </outline>
</glyph>
<glyph name="h" format="2">
  <advance width="1102"/>
  <unicode hex="0068"/>
  <anchor x="552" y="0" name="bottom"/>
  <anchor x="238" y="1480" name="top"/>
  <outline>
    <contour>
      <point x="114" y="0" type="line"/>
      <point x="362" y="0" type="line"/>
      <point x="362" y="796" type="line"/>
      <point x="316" y="662" type="line"/>
      <point x="372" y="754"/>
      <point x="440" y="812"/>
      <point x="556" y="812" type="curve" smooth="yes"/>
      <point x="692" y="812"/>
      <point x="748" y="724"/>
      <point x="748" y="538" type="curve" smooth="yes"/>
      <point x="748" y="0" type="line"/>
      <point x="996" y="0" type="line"/>
      <point x="996" y="556" type="line" smooth="yes"/>
      <point x="996" y="828"/>
      <point x="884" y="1016"/>
      <point x="620" y="1016" type="curve" smooth="yes"/>
      <point x="482" y="1016"/>
      <point x="390" y="956"/>
      <point x="306" y="898" type="curve"/>
      <point x="362" y="854" type="line"/>
      <point x="362" y="1500" type="line"/>
      <point x="114" y="1500" type="line"/>
    </contour>
  </outline>
</glyph>
<glyph name="j" format="2">
  <advance width="480"/>
  <unicode hex="006A"/>
  <outline>
    <contour>
      <point x="18" y="-484" type="line"/>
      <point x="96" y="-484" type="line" smooth="yes"/>
      <point x="268" y="-484"/>
      <point x="364" y="-432"/>
      <point x="364" y="-222" type="curve" smooth="yes"/>
      <point x="364" y="1000" type="line"/>
      <point x="116" y="1000" type="line"/>
      <point x="116" y="-120" type="line" smooth="yes"/>
      <point x="116" y="-242"/>
      <point x="90" y="-280"/>
      <point x="-4" y="-280" type="curve"/>
    </contour>
    <contour>
      <point x="116" y="1152" type="line"/>
      <point x="364" y="1152" type="line"/>
      <point x="364" y="1400" type="line"/>
      <point x="116" y="1400" type="line"/>
    </contour>
  </outline>
</glyph>
<glyph name="k" format="2">
  <advance width="970"/>
  <unicode hex="006B"/>
  <anchor x="522" y="0" name="bottom"/>
  <anchor x="238" y="1500" name="top"/>
  <outline>
    <contour>
      <point x="114" y="0" type="line"/>
      <point x="362" y="0" type="line"/>
      <point x="362" y="444" type="line"/>
      <point x="680" y="0" type="line"/>
      <point x="960" y="0" type="line"/>
      <point x="588" y="520" type="line"/>
      <point x="952" y="1000" type="line"/>
      <point x="672" y="1000" type="line"/>
      <point x="362" y="590" type="line"/>
      <point x="362" y="1500" type="line"/>
      <point x="114" y="1500" type="line"/>
    </contour>
  </outline>
</glyph>
<glyph name="l" format="2">
  <advance width="526"/>
  <unicode hex="006C"/>
  <anchor x="322" y="0" name="bottom"/>
  <anchor x="564" y="830" name="center"/>
  <anchor x="240" y="1500" name="top"/>
  <anchor x="454" y="1500" name="topright"/>
  <outline>
    <contour>
      <point x="372" y="-20" type="curve" smooth="yes"/>
      <point x="462" y="-20" type="line"/>
      <point x="484" y="184" type="line"/>
      <point x="386" y="184"/>
      <point x="364" y="184"/>
      <point x="364" y="344" type="curve" smooth="yes"/>
      <point x="364" y="1500" type="line"/>
      <point x="116" y="1500" type="line"/>
      <point x="116" y="242" type="line" smooth="yes"/>
      <point x="116" y="98"/>
      <point x="194" y="-20"/>
    </contour>
  </outline>
</glyph>
<glyph name="m" format="2">
  <advance width="1738"/>
  <unicode hex="006D"/>
  <anchor x="874" y="0" name="bottom"/>
  <anchor x="920" y="1000" name="top"/>
  <outline>
    <contour>
      <point x="116" y="0" type="line"/>
      <point x="364" y="0" type="line"/>
      <point x="364" y="796" type="line"/>
      <point x="318" y="662" type="line"/>
      <point x="374" y="754"/>
      <point x="442" y="812"/>
      <point x="558" y="812" type="curve" smooth="yes"/>
      <point x="694" y="812"/>
      <point x="750" y="724"/>
      <point x="750" y="538" type="curve" smooth="yes"/>
      <point x="750" y="0" type="line"/>
      <point x="998" y="0" type="line"/>
      <point x="998" y="556" type="line" smooth="yes"/>
      <point x="998" y="714"/>
      <point x="1062" y="812"/>
      <point x="1196" y="812" type="curve" smooth="yes"/>
      <point x="1330" y="812"/>
      <point x="1384" y="724"/>
      <point x="1384" y="538" type="curve" smooth="yes"/>
      <point x="1384" y="0" type="line"/>
      <point x="1632" y="0" type="line"/>
      <point x="1632" y="556" type="line" smooth="yes"/>
      <point x="1632" y="834"/>
      <point x="1514" y="1016"/>
      <point x="1238" y="1016" type="curve" smooth="yes"/>
      <point x="1082" y="1016"/>
      <point x="952" y="950"/>
      <point x="888" y="836" type="curve"/>
      <point x="948" y="822" type="line"/>
      <point x="894" y="942"/>
      <point x="790" y="1016"/>
      <point x="630" y="1016" type="curve" smooth="yes"/>
      <point x="488" y="1016"/>
      <point x="384" y="958"/>
      <point x="308" y="898" type="curve"/>
      <point x="344" y="854" type="line"/>
      <point x="328" y="1000" type="line"/>
      <point x="116" y="1000" type="line"/>
    </contour>
  </outline>
</glyph>
<glyph name="n" format="2">
  <advance width="1104"/>
  <unicode hex="006E"/>
  <anchor x="558" y="0" name="bottom"/>
  <anchor x="586" y="980" name="top"/>
  <outline>
    <contour>
      <point x="116" y="0" type="line"/>
      <point x="364" y="0" type="line"/>
      <point x="364" y="782" type="line"/>
      <point x="318" y="660" type="line"/>
      <point x="372" y="752"/>
      <point x="438" y="812"/>
      <point x="552" y="812" type="curve" smooth="yes"/>
      <point x="692" y="812"/>
      <point x="750" y="724"/>
      <point x="750" y="538" type="curve" smooth="yes"/>
      <point x="750" y="0" type="line"/>
      <point x="998" y="0" type="line"/>
      <point x="998" y="558" type="line" smooth="yes"/>
      <point x="998" y="828"/>
      <point x="876" y="1016"/>
      <point x="620" y="1016" type="curve" smooth="yes"/>
      <point x="480" y="1016"/>
      <point x="376" y="954"/>
      <point x="300" y="890" type="curve"/>
      <point x="358" y="814" type="line"/>
      <point x="348" y="1000" type="line"/>
      <point x="116" y="1000" type="line"/>
    </contour>
  </outline>
</glyph>
<glyph name="o" format="2">
  <advance width="1140"/>
  <unicode hex="006F"/>
  <anchor x="570" y="0" name="bottom"/>
  <anchor x="650" y="0" name="ogonek"/>
  <anchor x="570" y="1000" name="top"/>
  <anchor x="704" y="1000" name="topright"/>
  <outline>
    <contour>
      <point x="570" y="-20" type="curve" smooth="yes"/>
      <point x="896" y="-20"/>
      <point x="1084" y="218"/>
      <point x="1084" y="498" type="curve" smooth="yes"/>
      <point x="1084" y="780"/>
      <point x="896" y="1020"/>
      <point x="570" y="1020" type="curve" smooth="yes"/>
      <point x="244" y="1020"/>
      <point x="56" y="780"/>
      <point x="56" y="498" type="curve" smooth="yes"/>
      <point x="56" y="218"/>
      <point x="244" y="-20"/>
    </contour>
    <contour>
      <point x="570" y="184" type="curve" smooth="yes"/>
      <point x="404" y="184"/>
      <point x="310" y="312"/>
      <point x="310" y="498" type="curve" smooth="yes"/>
      <point x="310" y="686"/>
      <point x="404" y="816"/>
      <point x="570" y="816" type="curve" smooth="yes"/>
      <point x="736" y="816"/>
      <point x="830" y="686"/>
      <point x="830" y="498" type="curve" smooth="yes"/>
      <point x="830" y="312"/>
      <point x="736" y="184"/>
    </contour>
  </outline>
</glyph>
<glyph name="p" format="2">
  <advance width="1144"/>
  <unicode hex="0070"/>
  <outline>
    <contour>
      <point x="116" y="-484" type="line"/>
      <point x="364" y="-484" type="line"/>
      <point x="364" y="164" type="line"/>
      <point x="300" y="114" type="line"/>
      <point x="400" y="20"/>
      <point x="482" y="-20"/>
      <point x="638" y="-20" type="curve" smooth="yes"/>
      <point x="932" y="-20"/>
      <point x="1088" y="218"/>
      <point x="1088" y="498" type="curve" smooth="yes"/>
      <point x="1088" y="778"/>
      <point x="932" y="1016"/>
      <point x="638" y="1016" type="curve" smooth="yes"/>
      <point x="482" y="1016"/>
      <point x="382" y="954"/>
      <point x="290" y="860" type="curve"/>
      <point x="364" y="834" type="line"/>
      <point x="316" y="1000" type="line"/>
      <point x="116" y="1000" type="line"/>
    </contour>
    <contour>
      <point x="600" y="184" type="curve" smooth="yes"/>
      <point x="428" y="184"/>
      <point x="352" y="312"/>
      <point x="352" y="498" type="curve" smooth="yes"/>
      <point x="352" y="684"/>
      <point x="428" y="812"/>
      <point x="600" y="812" type="curve" smooth="yes"/>
      <point x="748" y="812"/>
      <point x="834" y="684"/>
      <point x="834" y="498" type="curve" smooth="yes"/>
      <point x="834" y="312"/>
      <point x="748" y="184"/>
    </contour>
  </outline>
</glyph>
<glyph name="q" format="2">
  <advance width="1144"/>
  <unicode hex="0071"/>
  <outline>
    <contour>
      <point x="780" y="-484" type="line"/>
      <point x="1028" y="-484" type="line"/>
      <point x="1028" y="1000" type="line"/>
      <point x="838" y="1000" type="line"/>
      <point x="780" y="834" type="line"/>
      <point x="854" y="860" type="line"/>
      <point x="772" y="954"/>
      <point x="670" y="1016"/>
      <point x="516" y="1016" type="curve" smooth="yes"/>
      <point x="216" y="1016"/>
      <point x="56" y="778"/>
      <point x="56" y="498" type="curve" smooth="yes"/>
      <point x="56" y="218"/>
      <point x="216" y="-20"/>
      <point x="516" y="-20" type="curve" smooth="yes"/>
      <point x="664" y="-20"/>
      <point x="758" y="30"/>
      <point x="844" y="118" type="curve"/>
      <point x="780" y="164" type="line"/>
    </contour>
    <contour>
      <point x="556" y="184" type="curve" smooth="yes"/>
      <point x="400" y="184"/>
      <point x="310" y="312"/>
      <point x="310" y="498" type="curve" smooth="yes"/>
      <point x="310" y="684"/>
      <point x="400" y="812"/>
      <point x="556" y="812" type="curve" smooth="yes"/>
      <point x="720" y="812"/>
      <point x="792" y="684"/>
      <point x="792" y="498" type="curve" smooth="yes"/>
      <point x="792" y="312"/>
      <point x="720" y="184"/>
    </contour>
  </outline>
</glyph>
<glyph name="r" format="2">
  <advance width="660"/>
  <unicode hex="0072"/>
  <anchor x="240" y="0" name="bottom"/>
  <anchor x="434" y="1000" name="top"/>
  <outline>
    <contour>
      <point x="116" y="0" type="line"/>
      <point x="364" y="0" type="line"/>
      <point x="364" y="682" type="line"/>
      <point x="392" y="738"/>
      <point x="468" y="782"/>
      <point x="552" y="782" type="curve" smooth="yes"/>
      <point x="580" y="782"/>
      <point x="608" y="780"/>
      <point x="638" y="772" type="curve"/>
      <point x="656" y="1016" type="line"/>
      <point x="646" y="1018"/>
      <point x="628" y="1020"/>
      <point x="612" y="1020" type="curve" smooth="yes"/>
      <point x="502" y="1020"/>
      <point x="404" y="950"/>
      <point x="354" y="894" type="curve"/>
      <point x="348" y="1000" type="line"/>
      <point x="116" y="1000" type="line"/>
    </contour>
  </outline>
</glyph>
<glyph name="s" format="2">
  <advance width="846"/>
  <unicode hex="0073"/>
  <anchor x="416" y="0" name="bottom"/>
  <anchor x="440" y="1000" name="top"/>
  <outline>
    <contour>
      <point x="400" y="-20" type="curve" smooth="yes"/>
      <point x="652" y="-20"/>
      <point x="792" y="88"/>
      <point x="792" y="278" type="curve" smooth="yes"/>
      <point x="792" y="432"/>
      <point x="704" y="508"/>
      <point x="518" y="580" type="curve" smooth="yes"/>
      <point x="374" y="636"/>
      <point x="312" y="660"/>
      <point x="312" y="738" type="curve" smooth="yes"/>
      <point x="312" y="802"/>
      <point x="360" y="838"/>
      <point x="446" y="838" type="curve" smooth="yes"/>
      <point x="554" y="838"/>
      <point x="640" y="792"/>
      <point x="730" y="730" type="curve"/>
      <point x="752" y="942" type="line"/>
      <point x="666" y="990"/>
      <point x="568" y="1020"/>
      <point x="442" y="1020" type="curve" smooth="yes"/>
      <point x="214" y="1020"/>
      <point x="72" y="900"/>
      <point x="72" y="728" type="curve" smooth="yes"/>
      <point x="72" y="562"/>
      <point x="176" y="486"/>
      <point x="360" y="418" type="curve" smooth="yes"/>
      <point x="482" y="372"/>
      <point x="544" y="344"/>
      <point x="544" y="266" type="curve" smooth="yes"/>
      <point x="544" y="196"/>
      <point x="490" y="166"/>
      <point x="392" y="166" type="curve" smooth="yes"/>
      <point x="282" y="166"/>
      <point x="186" y="206"/>
      <point x="84" y="266" type="curve"/>
      <point x="62" y="54" type="line"/>
      <point x="168" y="6"/>
      <point x="268" y="-20"/>
    </contour>
  </outline>
</glyph>
<glyph name="t" format="2">
  <advance width="688"/>
  <unicode hex="0074"/>
  <anchor x="454" y="0" name="bottom"/>
  <anchor x="300" y="1224" name="top"/>
  <anchor x="514" y="1444" name="topright"/>
  <outline>
    <contour>
      <point x="442" y="-20" type="curve" smooth="yes"/>
      <point x="620" y="-20" type="line"/>
      <point x="642" y="184" type="line"/>
      <point x="574" y="184" type="line" smooth="yes"/>
      <point x="434" y="184"/>
      <point x="422" y="192"/>
      <point x="422" y="344" type="curve" smooth="yes"/>
      <point x="422" y="796" type="line"/>
      <point x="642" y="796" type="line"/>
      <point x="642" y="1000" type="line"/>
      <point x="422" y="1000" type="line"/>
      <point x="422" y="1246" type="line"/>
      <point x="174" y="1220" type="line"/>
      <point x="174" y="1000" type="line"/>
      <point x="54" y="1000" type="line"/>
      <point x="32" y="796" type="line"/>
      <point x="174" y="796" type="line"/>
      <point x="174" y="242" type="line" smooth="yes"/>
      <point x="174" y="112"/>
      <point x="254" y="-20"/>
    </contour>
  </outline>
</glyph>
<glyph name="u" format="2">
  <advance width="1104"/>
  <unicode hex="0075"/>
  <anchor x="552" y="0" name="bottom"/>
  <anchor x="924" y="0" name="ogonek"/>
  <anchor x="552" y="1000" name="top"/>
  <anchor x="852" y="1000" name="topright"/>
  <outline>
    <contour>
      <point x="530" y="-20" type="curve" smooth="yes"/>
      <point x="632" y="-20"/>
      <point x="750" y="42"/>
      <point x="798" y="104" type="curve"/>
      <point x="744" y="174" type="line"/>
      <point x="756" y="0" type="line"/>
      <point x="988" y="0" type="line"/>
      <point x="988" y="1000" type="line"/>
      <point x="740" y="1000" type="line"/>
      <point x="740" y="214" type="line"/>
      <point x="784" y="340" type="line"/>
      <point x="734" y="244"/>
      <point x="664" y="188"/>
      <point x="552" y="188" type="curve" smooth="yes"/>
      <point x="412" y="188"/>
      <point x="354" y="276"/>
      <point x="354" y="462" type="curve" smooth="yes"/>
      <point x="354" y="1000" type="line"/>
      <point x="106" y="1000" type="line"/>
      <point x="106" y="462" type="line" smooth="yes"/>
      <point x="106" y="180"/>
      <point x="218" y="-20"/>
    </contour>
  </outline>
</glyph>
<glyph name="w" format="2">
  <advance width="1452"/>
  <unicode hex="0077"/>
  <anchor x="726" y="0" name="bottom"/>
  <anchor x="726" y="1000" name="top"/>
  <outline>
    <contour>
      <point x="312" y="0" type="line"/>
      <point x="520" y="0" type="line"/>
      <point x="726" y="652" type="line"/>
      <point x="932" y="0" type="line"/>
      <point x="1140" y="0" type="line"/>
      <point x="1432" y="1000" type="line"/>
      <point x="1190" y="1000" type="line"/>
      <point x="1016" y="302" type="line"/>
      <point x="830" y="980" type="line"/>
      <point x="622" y="980" type="line"/>
      <point x="434" y="302" type="line"/>
      <point x="262" y="1000" type="line"/>
      <point x="20" y="1000" type="line"/>
    </contour>
  </outline>
</glyph>
<glyph name="x" format="2">
  <advance width="982"/>
  <unicode hex="0078"/>
  <outline>
    <contour>
      <point x="20" y="0" type="line"/>
      <point x="316" y="0" type="line"/>
      <point x="484" y="290" type="line"/>
      <point x="666" y="0" type="line"/>
      <point x="962" y="0" type="line"/>
      <point x="630" y="500" type="line"/>
      <point x="962" y="1000" type="line"/>
      <point x="666" y="1000" type="line"/>
      <point x="498" y="710" type="line"/>
      <point x="316" y="1000" type="line"/>
      <point x="20" y="1000" type="line"/>
      <point x="352" y="500" type="line"/>
    </contour>
  </outline>
</glyph>
<glyph name="z" format="2">
  <advance width="944"/>
  <unicode hex="007A"/>
  <anchor x="478" y="0" name="bottom"/>
  <anchor x="484" y="1000" name="top"/>
  <outline>
    <contour>
      <point x="36" y="0" type="line"/>
      <point x="914" y="0" type="line"/>
      <point x="914" y="210" type="line"/>
      <point x="330" y="210" type="line"/>
      <point x="368" y="120" type="line"/>
      <point x="910" y="1000" type="line"/>
      <point x="82" y="1000" type="line"/>
      <point x="82" y="790" type="line"/>
      <point x="606" y="790" type="line"/>
      <point x="578" y="880" type="line"/>
    </contour>
  </outline>
</glyph>
<glyph name="braceleft" format="2">
  <advance width="676"/>
  <unicode hex="007B"/>
  <outline>
    <contour>
      <point x="578" y="-272" type="curve" smooth="yes"/>
      <point x="652" y="-272" type="line"/>
      <point x="652" y="-54" type="line"/>
      <point x="598" y="-54" type="line" smooth="yes"/>
      <point x="478" y="-54"/>
      <point x="410" y="-12"/>
      <point x="410" y="108" type="curve" smooth="yes"/>
      <point x="410" y="190"/>
      <point x="426" y="300"/>
      <point x="426" y="380" type="curve" smooth="yes"/>
      <point x="426" y="540"/>
      <point x="338" y="608"/>
      <point x="202" y="642" type="curve"/>
      <point x="202" y="586" type="line"/>
      <point x="338" y="622"/>
      <point x="426" y="688"/>
      <point x="426" y="848" type="curve" smooth="yes"/>
      <point x="426" y="928"/>
      <point x="410" y="1038"/>
      <point x="410" y="1120" type="curve" smooth="yes"/>
      <point x="410" y="1240"/>
      <point x="478" y="1282"/>
      <point x="598" y="1282" type="curve" smooth="yes"/>
      <point x="652" y="1282" type="line"/>
      <point x="652" y="1500" type="line"/>
      <point x="578" y="1500" type="line" smooth="yes"/>
      <point x="322" y="1500"/>
      <point x="216" y="1368"/>
      <point x="216" y="1180" type="curve" smooth="yes"/>
      <point x="216" y="1102"/>
      <point x="232" y="994"/>
      <point x="232" y="908" type="curve" smooth="yes"/>
      <point x="232" y="764"/>
      <point x="192" y="694"/>
      <point x="60" y="694" type="curve"/>
      <point x="60" y="534" type="line"/>
      <point x="192" y="534"/>
      <point x="232" y="464"/>
      <point x="232" y="320" type="curve" smooth="yes"/>
      <point x="232" y="234"/>
      <point x="216" y="126"/>
      <point x="216" y="48" type="curve" smooth="yes"/>
      <point x="216" y="-140"/>
      <point x="322" y="-272"/>
    </contour>
  </outline>
</glyph>
<glyph name="bar" format="2">
  <advance width="448"/>
  <unicode hex="007C"/>
  <outline>
    <contour>
      <point x="100" y="-420" type="line"/>
      <point x="348" y="-420" type="line"/>
      <point x="348" y="1500" type="line"/>
      <point x="100" y="1500" type="line"/>
    </contour>
  </outline>
</glyph>
<glyph name="braceright" format="2">
  <advance width="676"/>
  <unicode hex="007D"/>
  <outline>
    <contour>
      <point x="24" y="-272" type="line"/>
      <point x="98" y="-272" type="line" smooth="yes"/>
      <point x="354" y="-272"/>
      <point x="460" y="-140"/>
      <point x="460" y="48" type="curve" smooth="yes"/>
      <point x="460" y="126"/>
      <point x="444" y="234"/>
      <point x="444" y="320" type="curve" smooth="yes"/>
      <point x="444" y="464"/>
      <point x="484" y="534"/>
      <point x="616" y="534" type="curve"/>
      <point x="616" y="694" type="line"/>
      <point x="484" y="694"/>
      <point x="444" y="764"/>
      <point x="444" y="908" type="curve" smooth="yes"/>
      <point x="444" y="994"/>
      <point x="460" y="1102"/>
      <point x="460" y="1180" type="curve" smooth="yes"/>
      <point x="460" y="1368"/>
      <point x="354" y="1500"/>
      <point x="98" y="1500" type="curve" smooth="yes"/>
      <point x="24" y="1500" type="line"/>
      <point x="24" y="1282" type="line"/>
      <point x="78" y="1282" type="line" smooth="yes"/>
      <point x="198" y="1282"/>
      <point x="266" y="1240"/>
      <point x="266" y="1120" type="curve" smooth="yes"/>
      <point x="266" y="1038"/>
      <point x="250" y="928"/>
      <point x="250" y="848" type="curve" smooth="yes"/>
      <point x="250" y="688"/>
      <point x="338" y="620"/>
      <point x="474" y="586" type="curve"/>
      <point x="474" y="642" type="line"/>
      <point x="338" y="608"/>
      <point x="250" y="540"/>
      <point x="250" y="380" type="curve" smooth="yes"/>
      <point x="250" y="300"/>
      <point x="266" y="190"/>
      <point x="266" y="108" type="curve" smooth="yes"/>
      <point x="266" y="-12"/>
      <point x="198" y="-54"/>
      <point x="78" y="-54" type="curve" smooth="yes"/>
      <point x="24" y="-54" type="line"/>
    </contour>
  </outline>
</glyph>
<glyph name="asciitilde" format="2">
  <advance width="930"/>
  <unicode hex="007E"/>
  <outline>
    <contour>
      <point x="638" y="578" type="curve" smooth="yes"/>
      <point x="770" y="578"/>
      <point x="844" y="672"/>
      <point x="850" y="844" type="curve"/>
      <point x="676" y="844" type="line"/>
      <point x="676" y="792"/>
      <point x="646" y="762"/>
      <point x="598" y="762" type="curve" smooth="yes"/>
      <point x="498" y="762"/>
      <point x="412" y="858"/>
      <point x="292" y="858" type="curve" smooth="yes"/>
      <point x="160" y="858"/>
      <point x="86" y="764"/>
      <point x="80" y="592" type="curve"/>
      <point x="254" y="592" type="line"/>
      <point x="254" y="644"/>
      <point x="284" y="674"/>
      <point x="332" y="674" type="curve" smooth="yes"/>
      <point x="440" y="674"/>
      <point x="522" y="578"/>
    </contour>
  </outline>
</glyph>
<glyph name="cent" format="2">
  <advance width="910"/>
  <unicode hex="00A2"/>
  <outline>
    <contour>
      <point x="580" y="-20" type="curve" smooth="yes"/>
      <point x="688" y="-20"/>
      <point x="790" y="4"/>
      <point x="860" y="40" type="curve"/>
      <point x="838" y="250" type="line"/>
      <point x="766" y="208"/>
      <point x="688" y="184"/>
      <point x="610" y="184" type="curve" smooth="yes"/>
      <point x="426" y="184"/>
      <point x="310" y="320"/>
      <point x="310" y="498" type="curve" smooth="yes"/>
      <point x="310" y="684"/>
      <point x="420" y="812"/>
      <point x="612" y="812" type="curve" smooth="yes"/>
      <point x="696" y="812"/>
      <point x="774" y="788"/>
      <point x="836" y="756" type="curve"/>
      <point x="856" y="956" type="line"/>
      <point x="792" y="992"/>
      <point x="700" y="1020"/>
      <point x="588" y="1020" type="curve" smooth="yes"/>
      <point x="232" y="1020"/>
      <point x="56" y="784"/>
      <point x="56" y="498" type="curve" smooth="yes"/>
      <point x="56" y="214"/>
      <point x="236" y="-20"/>
    </contour>
    <contour>
      <point x="460" y="-288" type="line"/>
      <point x="656" y="-288" type="line"/>
      <point x="636" y="68" type="line"/>
      <point x="480" y="68" type="line"/>
    </contour>
    <contour>
      <point x="480" y="936" type="line"/>
      <point x="636" y="936" type="line"/>
      <point x="656" y="1278" type="line"/>
      <point x="460" y="1278" type="line"/>
    </contour>
  </outline>
</glyph>
<glyph name="sterling" format="2">
  <advance width="1040"/>
  <unicode hex="00A3"/>
  <outline>
    <contour>
      <point x="96" y="0" type="curve"/>
      <point x="988" y="0" type="line"/>
      <point x="988" y="240" type="line"/>
      <point x="276" y="240" type="line"/>
      <point x="346" y="98" type="line"/>
      <point x="430" y="268"/>
      <point x="462" y="392"/>
      <point x="490" y="652" type="curve" smooth="yes"/>
      <point x="524" y="972" type="line" smooth="yes"/>
      <point x="538" y="1110"/>
      <point x="606" y="1184"/>
      <point x="732" y="1184" type="curve" smooth="yes"/>
      <point x="816" y="1184"/>
      <point x="882" y="1152"/>
      <point x="958" y="1096" type="curve"/>
      <point x="978" y="1358" type="line"/>
      <point x="896" y="1404"/>
      <point x="814" y="1428"/>
      <point x="718" y="1428" type="curve" smooth="yes"/>
      <point x="434" y="1428"/>
      <point x="300" y="1252"/>
      <point x="268" y="956" type="curve" smooth="yes"/>
      <point x="234" y="636" type="line" smooth="yes"/>
      <point x="206" y="376"/>
      <point x="172" y="220"/>
    </contour>
    <contour>
      <point x="80" y="624" type="line"/>
      <point x="864" y="624" type="line"/>
      <point x="864" y="800" type="line"/>
      <point x="80" y="800" type="line"/>
    </contour>
  </outline>
</glyph>
<glyph name="currency" format="2">
  <advance width="1484"/>
  <unicode hex="00A4"/>
  <outline>
    <contour>
      <point x="742" y="1214" type="curve" smooth="yes"/>
      <point x="422" y="1214"/>
      <point x="206" y="994"/>
      <point x="206" y="696" type="curve" smooth="yes"/>
      <point x="206" y="402"/>
      <point x="416" y="178"/>
      <point x="742" y="178" type="curve" smooth="yes"/>
      <point x="1062" y="178"/>
      <point x="1278" y="400"/>
      <point x="1278" y="696" type="curve" smooth="yes"/>
      <point x="1278" y="996"/>
      <point x="1056" y="1214"/>
    </contour>
    <contour>
      <point x="742" y="990" type="curve" smooth="yes"/>
      <point x="922" y="990"/>
      <point x="1024" y="870"/>
      <point x="1024" y="696" type="curve" smooth="yes"/>
      <point x="1024" y="522"/>
      <point x="922" y="402"/>
      <point x="742" y="402" type="curve" smooth="yes"/>
      <point x="562" y="402"/>
      <point x="460" y="522"/>
      <point x="460" y="696" type="curve" smooth="yes"/>
      <point x="460" y="870"/>
      <point x="562" y="990"/>
    </contour>
    <contour>
      <point x="214" y="1340" type="line"/>
      <point x="100" y="1228" type="line"/>
      <point x="396" y="930" type="line"/>
      <point x="506" y="1046" type="line"/>
    </contour>
    <contour>
      <point x="394" y="460" type="line"/>
      <point x="100" y="164" type="line"/>
      <point x="214" y="52" type="line"/>
      <point x="506" y="346" type="line"/>
    </contour>
    <contour>
      <point x="1084" y="464" type="line"/>
      <point x="970" y="354" type="line"/>
      <point x="1270" y="52" type="line"/>
      <point x="1384" y="164" type="line"/>
    </contour>
    <contour>
      <point x="1270" y="1340" type="line"/>
      <point x="982" y="1052" type="line"/>
      <point x="1096" y="938" type="line"/>
      <point x="1384" y="1228" type="line"/>
    </contour>
  </outline>
</glyph>
<glyph name="yen" format="2">
  <advance width="1208"/>
  <unicode hex="00A5"/>
  <outline>
    <contour>
      <point x="476" y="0" type="line"/>
      <point x="732" y="0" type="line"/>
      <point x="732" y="566" type="line"/>
      <point x="1224" y="1400" type="line"/>
      <point x="944" y="1400" type="line"/>
      <point x="544" y="690" type="line"/>
      <point x="664" y="690" type="line"/>
      <point x="264" y="1400" type="line"/>
      <point x="-16" y="1400" type="line"/>
      <point x="476" y="566" type="line"/>
    </contour>
    <contour>
      <point x="194" y="248" type="line"/>
      <point x="1014" y="248" type="line"/>
      <point x="1014" y="424" type="line"/>
      <point x="194" y="424" type="line"/>
    </contour>
    <contour>
      <point x="194" y="528" type="line"/>
      <point x="1014" y="528" type="line"/>
      <point x="1014" y="704" type="line"/>
      <point x="194" y="704" type="line"/>
    </contour>
  </outline>
</glyph>
<glyph name="brokenbar" format="2">
  <advance width="448"/>
  <unicode hex="00A6"/>
  <outline>
    <contour>
      <point x="100" y="684" type="line"/>
      <point x="348" y="684" type="line"/>
      <point x="348" y="1500" type="line"/>
      <point x="100" y="1500" type="line"/>
    </contour>
    <contour>
      <point x="100" y="-420" type="line"/>
      <point x="348" y="-420" type="line"/>
      <point x="348" y="396" type="line"/>
      <point x="100" y="396" type="line"/>
    </contour>
  </outline>
</glyph>
<glyph name="section" format="2">
  <advance width="920"/>
  <unicode hex="00A7"/>
  <outline>
    <contour>
      <point x="414" y="-170" type="curve" smooth="yes"/>
      <point x="682" y="-170"/>
      <point x="756" y="14"/>
      <point x="756" y="164" type="curve" smooth="yes"/>
      <point x="756" y="260"/>
      <point x="728" y="324"/>
      <point x="670" y="372" type="curve"/>
      <point x="784" y="442"/>
      <point x="842" y="552"/>
      <point x="842" y="666" type="curve" smooth="yes"/>
      <point x="842" y="1040"/>
      <point x="336" y="1010"/>
      <point x="336" y="1208" type="curve" smooth="yes"/>
      <point x="336" y="1280"/>
      <point x="412" y="1308"/>
      <point x="488" y="1308" type="curve" smooth="yes"/>
      <point x="574" y="1308"/>
      <point x="692" y="1262"/>
      <point x="774" y="1208" type="curve"/>
      <point x="792" y="1418" type="line"/>
      <point x="728" y="1458"/>
      <point x="616" y="1500"/>
      <point x="506" y="1500" type="curve" smooth="yes"/>
      <point x="280" y="1500"/>
      <point x="162" y="1358"/>
      <point x="162" y="1188" type="curve" smooth="yes"/>
      <point x="162" y="1076"/>
      <point x="210" y="990"/>
      <point x="248" y="958" type="curve"/>
      <point x="146" y="884"/>
      <point x="78" y="792"/>
      <point x="78" y="664" type="curve" smooth="yes"/>
      <point x="78" y="302"/>
      <point x="584" y="358"/>
      <point x="584" y="138" type="curve" smooth="yes"/>
      <point x="584" y="66"/>
      <point x="524" y="22"/>
      <point x="428" y="22" type="curve" smooth="yes"/>
      <point x="342" y="22"/>
      <point x="226" y="68"/>
      <point x="146" y="122" type="curve"/>
      <point x="128" y="-88" type="line"/>
      <point x="202" y="-128"/>
      <point x="304" y="-170"/>
    </contour>
    <contour>
      <point x="568" y="462" type="curve"/>
      <point x="368" y="538"/>
      <point x="268" y="598"/>
      <point x="268" y="708" type="curve" smooth="yes"/>
      <point x="268" y="790"/>
      <point x="316" y="844"/>
      <point x="358" y="874" type="curve"/>
      <point x="550" y="788"/>
      <point x="656" y="736"/>
      <point x="656" y="622" type="curve" smooth="yes"/>
      <point x="656" y="548"/>
      <point x="612" y="494"/>
    </contour>
  </outline>
</glyph>
<glyph name="copyright" format="2">
  <advance width="1402"/>
  <unicode hex="00A9"/>
  <outline>
    <contour>
      <point x="702" y="72" type="curve" smooth="yes"/>
      <point x="1064" y="72"/>
      <point x="1324" y="334"/>
      <point x="1324" y="730" type="curve" smooth="yes"/>
      <point x="1324" y="1126"/>
      <point x="1064" y="1386"/>
      <point x="702" y="1386" type="curve" smooth="yes"/>
      <point x="340" y="1386"/>
      <point x="78" y="1126"/>
      <point x="78" y="730" type="curve" smooth="yes"/>
      <point x="78" y="334"/>
      <point x="340" y="72"/>
    </contour>
    <contour>
      <point x="718" y="380" type="curve" smooth="yes"/>
      <point x="788" y="380"/>
      <point x="866" y="398"/>
      <point x="922" y="430" type="curve"/>
      <point x="902" y="598" type="line"/>
      <point x="840" y="568"/>
      <point x="784" y="548"/>
      <point x="718" y="548" type="curve" smooth="yes"/>
      <point x="624" y="548"/>
      <point x="572" y="620"/>
      <point x="572" y="726" type="curve" smooth="yes"/>
      <point x="572" y="836"/>
      <point x="624" y="904"/>
      <point x="718" y="904" type="curve" smooth="yes"/>
      <point x="784" y="904"/>
      <point x="840" y="884"/>
      <point x="902" y="858" type="curve"/>
      <point x="922" y="1028" type="line"/>
      <point x="866" y="1054"/>
      <point x="790" y="1074"/>
      <point x="718" y="1074" type="curve" smooth="yes"/>
      <point x="526" y="1074"/>
      <point x="390" y="936"/>
      <point x="390" y="726" type="curve" smooth="yes"/>
      <point x="390" y="518"/>
      <point x="528" y="380"/>
    </contour>
    <contour>
      <point x="702" y="212" type="curve" smooth="yes"/>
      <point x="388" y="212"/>
      <point x="234" y="434"/>
      <point x="234" y="730" type="curve" smooth="yes"/>
      <point x="234" y="1026"/>
      <point x="388" y="1246"/>
      <point x="702" y="1246" type="curve" smooth="yes"/>
      <point x="1014" y="1246"/>
      <point x="1168" y="1026"/>
      <point x="1168" y="730" type="curve" smooth="yes"/>
      <point x="1168" y="434"/>
      <point x="1014" y="212"/>
    </contour>
  </outline>
</glyph>
<glyph name="ordfeminine" format="2">
  <advance width="722"/>
  <unicode hex="00AA"/>
  <outline>
    <contour>
      <point x="242" y="868" type="curve" smooth="yes"/>
      <point x="300" y="868"/>
      <point x="372" y="892"/>
      <point x="410" y="932" type="curve"/>
      <point x="436" y="892"/>
      <point x="478" y="868"/>
      <point x="544" y="868" type="curve" smooth="yes"/>
      <point x="642" y="868" type="line"/>
      <point x="650" y="1038" type="line"/>
      <point x="618" y="1038" type="line" smooth="yes"/>
      <point x="598" y="1038"/>
      <point x="586" y="1048"/>
      <point x="586" y="1086" type="curve" smooth="yes"/>
      <point x="586" y="1258" type="line" smooth="yes"/>
      <point x="586" y="1382"/>
      <point x="494" y="1464"/>
      <point x="348" y="1464" type="curve" smooth="yes"/>
      <point x="274" y="1464"/>
      <point x="196" y="1450"/>
      <point x="110" y="1426" type="curve"/>
      <point x="120" y="1264" type="line"/>
      <point x="176" y="1282"/>
      <point x="240" y="1294"/>
      <point x="298" y="1294" type="curve" smooth="yes"/>
      <point x="366" y="1294"/>
      <point x="378" y="1274"/>
      <point x="378" y="1258" type="curve"/>
      <point x="200" y="1238"/>
      <point x="60" y="1180"/>
      <point x="60" y="1034" type="curve" smooth="yes"/>
      <point x="60" y="928"/>
      <point x="136" y="868"/>
    </contour>
    <contour>
      <point x="324" y="1010" type="curve" smooth="yes"/>
      <point x="300" y="1010"/>
      <point x="280" y="1024"/>
      <point x="280" y="1054" type="curve" smooth="yes"/>
      <point x="280" y="1100"/>
      <point x="318" y="1118"/>
      <point x="380" y="1126" type="curve"/>
      <point x="380" y="1028" type="line"/>
      <point x="362" y="1016"/>
      <point x="344" y="1010"/>
    </contour>
  </outline>
</glyph>
<glyph name="logicalnot" format="2">
  <advance width="1020"/>
  <unicode hex="00AC"/>
  <outline>
    <contour>
      <point x="736" y="302" type="line"/>
      <point x="940" y="302" type="line"/>
      <point x="940" y="812" type="line"/>
      <point x="80" y="812" type="line"/>
      <point x="80" y="624" type="line"/>
      <point x="736" y="624" type="line"/>
    </contour>
  </outline>
</glyph>
<glyph name="softhyphen" format="2">
  <advance width="888"/>
  <unicode hex="00AD"/>
  <outline>
    <contour>
      <point x="134" y="528" type="line"/>
      <point x="754" y="528" type="line"/>
      <point x="754" y="716" type="line"/>
      <point x="134" y="716" type="line"/>
    </contour>
  </outline>
</glyph>
<glyph name="registered" format="2">
  <advance width="1402"/>
  <unicode hex="00AE"/>
  <outline>
    <contour>
      <point x="702" y="74" type="curve" smooth="yes"/>
      <point x="1062" y="74"/>
      <point x="1322" y="336"/>
      <point x="1322" y="730" type="curve" smooth="yes"/>
      <point x="1322" y="1126"/>
      <point x="1062" y="1386"/>
      <point x="702" y="1386" type="curve" smooth="yes"/>
      <point x="342" y="1386"/>
      <point x="80" y="1126"/>
      <point x="80" y="730" type="curve" smooth="yes"/>
      <point x="80" y="336"/>
      <point x="342" y="74"/>
    </contour>
    <contour>
      <point x="702" y="214" type="curve" smooth="yes"/>
      <point x="390" y="214"/>
      <point x="236" y="436"/>
      <point x="236" y="730" type="curve" smooth="yes"/>
      <point x="236" y="1026"/>
      <point x="390" y="1244"/>
      <point x="702" y="1244" type="curve" smooth="yes"/>
      <point x="1014" y="1244"/>
      <point x="1166" y="1026"/>
      <point x="1166" y="730" type="curve" smooth="yes"/>
      <point x="1166" y="436"/>
      <point x="1014" y="214"/>
    </contour>
    <contour>
      <point x="450" y="406" type="line"/>
      <point x="626" y="406" type="line"/>
      <point x="626" y="630" type="line"/>
      <point x="694" y="630" type="line"/>
      <point x="810" y="406" type="line"/>
      <point x="996" y="406" type="line"/>
      <point x="848" y="682" type="line"/>
      <point x="896" y="712"/>
      <point x="942" y="778"/>
      <point x="942" y="856" type="curve" smooth="yes"/>
      <point x="942" y="1006"/>
      <point x="854" y="1076"/>
      <point x="704" y="1076" type="curve" smooth="yes"/>
      <point x="450" y="1076" type="line"/>
    </contour>
    <contour>
      <point x="626" y="792" type="line"/>
      <point x="626" y="926" type="line"/>
      <point x="690" y="926" type="line" smooth="yes"/>
      <point x="742" y="926"/>
      <point x="762" y="900"/>
      <point x="762" y="860" type="curve" smooth="yes"/>
      <point x="762" y="822"/>
      <point x="740" y="792"/>
      <point x="690" y="792" type="curve" smooth="yes"/>
    </contour>
  </outline>
</glyph>
<glyph name="degree" format="2">
  <advance width="578"/>
  <unicode hex="00B0"/>
  <outline>
    <contour>
      <point x="288" y="964" type="curve" smooth="yes"/>
      <point x="462" y="964"/>
      <point x="562" y="1088"/>
      <point x="562" y="1236" type="curve" smooth="yes"/>
      <point x="562" y="1384"/>
      <point x="462" y="1510"/>
      <point x="288" y="1510" type="curve" smooth="yes"/>
      <point x="116" y="1510"/>
      <point x="16" y="1384"/>
      <point x="16" y="1236" type="curve" smooth="yes"/>
      <point x="16" y="1088"/>
      <point x="116" y="964"/>
    </contour>
    <contour>
      <point x="288" y="1086" type="curve" smooth="yes"/>
      <point x="204" y="1086"/>
      <point x="152" y="1146"/>
      <point x="152" y="1236" type="curve" smooth="yes"/>
      <point x="152" y="1326"/>
      <point x="204" y="1388"/>
      <point x="288" y="1388" type="curve" smooth="yes"/>
      <point x="378" y="1388"/>
      <point x="424" y="1326"/>
      <point x="424" y="1236" type="curve" smooth="yes"/>
      <point x="424" y="1146"/>
      <point x="378" y="1086"/>
    </contour>
  </outline>
</glyph>
<glyph name="plusminus" format="2">
  <advance width="900"/>
  <unicode hex="00B1"/>
  <outline>
    <contour>
      <point x="352" y="370" type="line"/>
      <point x="548" y="370" type="line"/>
      <point x="548" y="630" type="line"/>
      <point x="820" y="630" type="line"/>
      <point x="820" y="810" type="line"/>
      <point x="548" y="810" type="line"/>
      <point x="548" y="1070" type="line"/>
      <point x="352" y="1070" type="line"/>
      <point x="352" y="810" type="line"/>
      <point x="80" y="810" type="line"/>
      <point x="80" y="630" type="line"/>
      <point x="352" y="630" type="line"/>
    </contour>
    <contour>
      <point x="80" y="94" type="line"/>
      <point x="820" y="94" type="line"/>
      <point x="820" y="274" type="line"/>
      <point x="80" y="274" type="line"/>
    </contour>
  </outline>
</glyph>
<glyph name="micro" format="2">
  <advance width="1216"/>
  <unicode hex="00B5"/>
  <outline>
    <contour>
      <point x="134" y="-484" type="line"/>
      <point x="382" y="-484" type="line"/>
      <point x="382" y="18" type="line"/>
      <point x="430" y="-2"/>
      <point x="490" y="-16"/>
      <point x="558" y="-16" type="curve" smooth="yes"/>
      <point x="670" y="-16"/>
      <point x="752" y="30"/>
      <point x="808" y="84" type="curve"/>
      <point x="848" y="20"/>
      <point x="918" y="-20"/>
      <point x="1024" y="-20" type="curve" smooth="yes"/>
      <point x="1114" y="-20" type="line"/>
      <point x="1136" y="184" type="line"/>
      <point x="1104" y="184" type="line" smooth="yes"/>
      <point x="1032" y="184"/>
      <point x="1016" y="194"/>
      <point x="1016" y="344" type="curve" smooth="yes"/>
      <point x="1016" y="1000" type="line"/>
      <point x="768" y="1000" type="line"/>
      <point x="768" y="272" type="line"/>
      <point x="722" y="218"/>
      <point x="662" y="188"/>
      <point x="580" y="188" type="curve" smooth="yes"/>
      <point x="440" y="188"/>
      <point x="382" y="264"/>
      <point x="382" y="422" type="curve" smooth="yes"/>
      <point x="382" y="1000" type="line"/>
      <point x="134" y="1000" type="line"/>
    </contour>
  </outline>
</glyph>
<glyph name="paragraph" format="2">
  <advance width="1250"/>
  <unicode hex="00B6"/>
  <outline>
    <contour>
      <point x="584" y="0" type="line"/>
      <point x="722" y="0" type="line"/>
      <point x="722" y="1186" type="line"/>
      <point x="846" y="1186" type="line"/>
      <point x="846" y="0" type="line"/>
      <point x="1022" y="0" type="line"/>
      <point x="1022" y="1186" type="line"/>
      <point x="1160" y="1186" type="line"/>
      <point x="1160" y="1400" type="line"/>
      <point x="640" y="1400" type="line" smooth="yes"/>
      <point x="254" y="1400"/>
      <point x="66" y="1166"/>
      <point x="66" y="932" type="curve" smooth="yes"/>
      <point x="66" y="706"/>
      <point x="240" y="478"/>
      <point x="584" y="458" type="curve"/>
    </contour>
  </outline>
</glyph>
<glyph name="periodcentered" format="2">
  <advance width="464"/>
  <unicode hex="00B7"/>
  <outline>
    <contour>
      <point x="108" y="426" type="line"/>
      <point x="356" y="426" type="line"/>
      <point x="356" y="686" type="line"/>
      <point x="108" y="686" type="line"/>
    </contour>
  </outline>
</glyph>
<glyph name="ordmasculine" format="2">
  <advance width="754"/>
  <unicode hex="00BA"/>
  <outline>
    <contour>
      <point x="376" y="868" type="curve"/>
      <point x="580" y="868"/>
      <point x="696" y="1012"/>
      <point x="696" y="1166" type="curve" smooth="yes"/>
      <point x="696" y="1320"/>
      <point x="580" y="1464"/>
      <point x="376" y="1464" type="curve" smooth="yes"/>
      <point x="174" y="1464"/>
      <point x="56" y="1320"/>
      <point x="56" y="1166" type="curve" smooth="yes"/>
      <point x="56" y="1012"/>
      <point x="174" y="868"/>
    </contour>
    <contour>
      <point x="376" y="1022" type="curve" smooth="yes"/>
      <point x="308" y="1022"/>
      <point x="266" y="1092"/>
      <point x="266" y="1166" type="curve" smooth="yes"/>
      <point x="266" y="1240"/>
      <point x="308" y="1310"/>
      <point x="376" y="1310" type="curve" smooth="yes"/>
      <point x="444" y="1310"/>
      <point x="486" y="1240"/>
      <point x="486" y="1166" type="curve" smooth="yes"/>
      <point x="486" y="1092"/>
      <point x="444" y="1022"/>
    </contour>
  </outline>
</glyph>
<glyph name="AE" format="2">
  <advance width="1732"/>
  <unicode hex="00C6"/>
  <anchor x="868" y="0" name="bottom"/>
  <anchor x="1154" y="1400" name="top"/>
  <outline>
    <contour>
      <point x="-22" y="0" type="line"/>
      <point x="244" y="0" type="line"/>
      <point x="794" y="1146" type="line"/>
      <point x="794" y="0" type="line"/>
      <point x="1666" y="0" type="line"/>
      <point x="1666" y="248" type="line"/>
      <point x="1056" y="248" type="line"/>
      <point x="1056" y="606" type="line"/>
      <point x="1512" y="606" type="line"/>
      <point x="1512" y="854" type="line"/>
      <point x="1056" y="854" type="line"/>
      <point x="1056" y="1152" type="line"/>
      <point x="1648" y="1152" type="line"/>
      <point x="1648" y="1400" type="line"/>
      <point x="660" y="1400" type="line"/>
    </contour>
    <contour>
      <point x="352" y="338" type="line"/>
      <point x="826" y="338" type="line"/>
      <point x="826" y="586" type="line"/>
      <point x="352" y="586" type="line"/>
    </contour>
  </outline>
</glyph>
<glyph name="Eth" format="2">
  <advance width="1462"/>
  <unicode hex="00D0"/>
  <outline>
    <contour>
      <point x="176" y="0" type="line"/>
      <point x="700" y="0" type="line" smooth="yes"/>
      <point x="1100" y="0"/>
      <point x="1390" y="260"/>
      <point x="1390" y="700" type="curve" smooth="yes"/>
      <point x="1390" y="1140"/>
      <point x="1100" y="1400"/>
      <point x="700" y="1400" type="curve" smooth="yes"/>
      <point x="176" y="1400" type="line"/>
      <point x="176" y="806" type="line"/>
      <point x="46" y="806" type="line"/>
      <point x="46" y="618" type="line"/>
      <point x="176" y="618" type="line"/>
    </contour>
    <contour>
      <point x="432" y="246" type="line"/>
      <point x="432" y="618" type="line"/>
      <point x="676" y="618" type="line"/>
      <point x="676" y="806" type="line"/>
      <point x="432" y="806" type="line"/>
      <point x="432" y="1154" type="line"/>
      <point x="700" y="1154" type="line" smooth="yes"/>
      <point x="972" y="1154"/>
      <point x="1110" y="980"/>
      <point x="1110" y="700" type="curve" smooth="yes"/>
      <point x="1110" y="420"/>
      <point x="972" y="246"/>
      <point x="700" y="246" type="curve" smooth="yes"/>
    </contour>
  </outline>
</glyph>
<glyph name="multiply" format="2">
  <advance width="868"/>
  <unicode hex="00D7"/>
  <outline>
    <contour>
      <point x="198" y="184" type="line"/>
      <point x="804" y="790" type="line"/>
      <point x="670" y="924" type="line"/>
      <point x="64" y="318" type="line"/>
    </contour>
    <contour>
      <point x="670" y="184" type="line"/>
      <point x="804" y="318" type="line"/>
      <point x="198" y="924" type="line"/>
      <point x="64" y="790" type="line"/>
    </contour>
  </outline>
</glyph>
<glyph name="Oslash" format="2">
  <advance width="1520"/>
  <unicode hex="00D8"/>
  <guideline x="35" y="350" angle="90"/>
  <guideline x="725" y="350" angle="90"/>
  <anchor x="760" y="1400" name="top"/>
  <anchor x="760" y="0" name="bottom"/>
  <anchor x="888" y="0" name="ogonek"/>
  <anchor x="966" y="1400" name="topright"/>
  <outline>
    <contour>
      <point x="122" y="-88" type="line"/>
      <point x="324" y="-88" type="line"/>
      <point x="1398" y="1488" type="line"/>
      <point x="1196" y="1488" type="line"/>
    </contour>
    <component base="O"/>
  </outline>
</glyph>
<glyph name="Thorn" format="2">
  <advance width="1136"/>
  <unicode hex="00DE"/>
  <outline>
    <contour>
      <point x="154" y="0" type="line"/>
      <point x="410" y="0" type="line"/>
      <point x="410" y="330" type="line"/>
      <point x="646" y="330" type="line" smooth="yes"/>
      <point x="942" y="330"/>
      <point x="1094" y="470"/>
      <point x="1094" y="720" type="curve" smooth="yes"/>
      <point x="1094" y="970"/>
      <point x="942" y="1110"/>
      <point x="646" y="1110" type="curve" smooth="yes"/>
      <point x="410" y="1110" type="line"/>
      <point x="410" y="1400" type="line"/>
      <point x="154" y="1400" type="line"/>
    </contour>
    <contour>
      <point x="410" y="544" type="line"/>
      <point x="410" y="896" type="line"/>
      <point x="616" y="896" type="line" smooth="yes"/>
      <point x="782" y="896"/>
      <point x="834" y="844"/>
      <point x="834" y="720" type="curve" smooth="yes"/>
      <point x="834" y="610"/>
      <point x="782" y="544"/>
      <point x="616" y="544" type="curve" smooth="yes"/>
    </contour>
  </outline>
</glyph>
<glyph name="germandbls" format="2">
  <advance width="1260"/>
  <unicode hex="00DF"/>
  <outline>
    <contour>
      <point x="748" y="-28" type="curve" smooth="yes"/>
      <point x="992" y="-28"/>
      <point x="1220" y="88"/>
      <point x="1220" y="338" type="curve" smooth="yes"/>
      <point x="1220" y="626"/>
      <point x="858" y="656"/>
      <point x="858" y="794" type="curve" smooth="yes"/>
      <point x="858" y="834"/>
      <point x="880" y="866"/>
      <point x="940" y="922" type="curve" smooth="yes"/>
      <point x="1036" y="1010"/>
      <point x="1100" y="1066"/>
      <point x="1100" y="1206" type="curve" smooth="yes"/>
      <point x="1100" y="1404"/>
      <point x="926" y="1528"/>
      <point x="662" y="1528" type="curve" smooth="yes"/>
      <point x="372" y="1528"/>
      <point x="174" y="1374"/>
      <point x="174" y="1060" type="curve" smooth="yes"/>
      <point x="174" y="1000" type="line"/>
      <point x="54" y="1000" type="line"/>
      <point x="32" y="796" type="line"/>
      <point x="174" y="796" type="line"/>
      <point x="174" y="0" type="line"/>
      <point x="422" y="0" type="line"/>
      <point x="422" y="1064" type="line" smooth="yes"/>
      <point x="422" y="1226"/>
      <point x="500" y="1324"/>
      <point x="658" y="1324" type="curve" smooth="yes"/>
      <point x="784" y="1324"/>
      <point x="852" y="1268"/>
      <point x="852" y="1184" type="curve" smooth="yes"/>
      <point x="852" y="1108"/>
      <point x="818" y="1070"/>
      <point x="750" y="1004" type="curve" smooth="yes"/>
      <point x="650" y="908"/>
      <point x="604" y="860"/>
      <point x="604" y="776" type="curve" smooth="yes"/>
      <point x="604" y="564"/>
      <point x="966" y="548"/>
      <point x="966" y="334" type="curve" smooth="yes"/>
      <point x="966" y="234"/>
      <point x="882" y="176"/>
      <point x="750" y="176" type="curve" smooth="yes"/>
      <point x="680" y="176"/>
      <point x="616" y="182"/>
      <point x="550" y="194" type="curve"/>
      <point x="550" y="-10" type="line"/>
      <point x="618" y="-22"/>
      <point x="678" y="-28"/>
    </contour>
  </outline>
</glyph>
<glyph name="ae" format="2">
  <advance width="1566"/>
  <unicode hex="00E6"/>
  <anchor x="802" y="1000" name="top"/>
  <outline>
    <contour>
      <point x="370" y="-20" type="curve" smooth="yes"/>
      <point x="516" y="-20"/>
      <point x="666" y="56"/>
      <point x="760" y="170" type="curve"/>
      <point x="684" y="280" type="line"/>
      <point x="612" y="204"/>
      <point x="528" y="170"/>
      <point x="452" y="170" type="curve" smooth="yes"/>
      <point x="368" y="170"/>
      <point x="302" y="208"/>
      <point x="302" y="288" type="curve" smooth="yes"/>
      <point x="302" y="390"/>
      <point x="420" y="446"/>
      <point x="634" y="446" type="curve" smooth="yes"/>
      <point x="1496" y="446" type="line"/>
      <point x="1506" y="494"/>
      <point x="1512" y="538"/>
      <point x="1512" y="582" type="curve" smooth="yes"/>
      <point x="1512" y="820"/>
      <point x="1372" y="1016"/>
      <point x="1090" y="1016" type="curve" smooth="yes"/>
      <point x="904" y="1016"/>
      <point x="768" y="930"/>
      <point x="690" y="802" type="curve"/>
      <point x="818" y="828" type="line"/>
      <point x="764" y="960"/>
      <point x="650" y="1016"/>
      <point x="492" y="1016" type="curve" smooth="yes"/>
      <point x="368" y="1016"/>
      <point x="248" y="986"/>
      <point x="128" y="928" type="curve"/>
      <point x="150" y="726" type="line"/>
      <point x="256" y="778"/>
      <point x="334" y="802"/>
      <point x="424" y="802" type="curve" smooth="yes"/>
      <point x="578" y="802"/>
      <point x="612" y="706"/>
      <point x="612" y="550" type="curve" smooth="yes"/>
      <point x="612" y="506" type="line" smooth="yes"/>
      <point x="612" y="222"/>
      <point x="788" y="-20"/>
      <point x="1144" y="-20" type="curve" smooth="yes"/>
      <point x="1282" y="-20"/>
      <point x="1390" y="16"/>
      <point x="1468" y="56" type="curve"/>
      <point x="1456" y="266" type="line"/>
      <point x="1372" y="220"/>
      <point x="1262" y="184"/>
      <point x="1158" y="184" type="curve" smooth="yes"/>
      <point x="1008" y="184"/>
      <point x="866" y="282"/>
      <point x="866" y="522" type="curve" smooth="yes"/>
      <point x="866" y="700"/>
      <point x="946" y="812"/>
      <point x="1090" y="812" type="curve" smooth="yes"/>
      <point x="1208" y="812"/>
      <point x="1260" y="720"/>
      <point x="1260" y="614" type="curve"/>
      <point x="598" y="614" type="line" smooth="yes"/>
      <point x="326" y="614"/>
      <point x="42" y="520"/>
      <point x="42" y="260" type="curve" smooth="yes"/>
      <point x="42" y="82"/>
      <point x="178" y="-20"/>
    </contour>
  </outline>
</glyph>
<glyph name="eth" format="2">
  <advance width="1002"/>
  <unicode hex="00F0"/>
  <outline>
    <contour>
      <point x="484" y="-26" type="curve" smooth="yes"/>
      <point x="690" y="-26"/>
      <point x="944" y="90"/>
      <point x="944" y="516" type="curve" smooth="yes"/>
      <point x="944" y="968"/>
      <point x="728" y="1292"/>
      <point x="288" y="1402" type="curve"/>
      <point x="246" y="1270" type="line"/>
      <point x="572" y="1174"/>
      <point x="686" y="974"/>
      <point x="696" y="694" type="curve"/>
      <point x="736" y="734" type="line"/>
      <point x="674" y="790"/>
      <point x="602" y="852"/>
      <point x="456" y="852" type="curve" smooth="yes"/>
      <point x="174" y="852"/>
      <point x="32" y="626"/>
      <point x="32" y="410" type="curve" smooth="yes"/>
      <point x="32" y="156"/>
      <point x="228" y="-26"/>
    </contour>
    <contour>
      <point x="488" y="176" type="curve" smooth="yes"/>
      <point x="338" y="176"/>
      <point x="268" y="284"/>
      <point x="268" y="410" type="curve" smooth="yes"/>
      <point x="268" y="544"/>
      <point x="338" y="658"/>
      <point x="482" y="658" type="curve" smooth="yes"/>
      <point x="628" y="658"/>
      <point x="704" y="544"/>
      <point x="704" y="414" type="curve" smooth="yes"/>
      <point x="704" y="284"/>
      <point x="628" y="176"/>
    </contour>
    <contour>
      <point x="322" y="980" type="line"/>
      <point x="848" y="1274" type="line"/>
      <point x="774" y="1400" type="line"/>
      <point x="246" y="1106" type="line"/>
    </contour>
  </outline>
</glyph>
<glyph name="divide" format="2">
  <advance width="980"/>
  <unicode hex="00F7"/>
  <outline>
    <contour>
      <point x="80" y="460" type="line"/>
      <point x="900" y="460" type="line"/>
      <point x="900" y="648" type="line"/>
      <point x="80" y="648" type="line"/>
    </contour>
    <contour>
      <point x="366" y="88" type="line"/>
      <point x="614" y="88" type="line"/>
      <point x="614" y="340" type="line"/>
      <point x="366" y="340" type="line"/>
    </contour>
    <contour>
      <point x="366" y="768" type="line"/>
      <point x="614" y="768" type="line"/>
      <point x="614" y="1020" type="line"/>
      <point x="366" y="1020" type="line"/>
    </contour>
  </outline>
</glyph>
<glyph name="oslash" format="2">
  <advance width="1140"/>
  <unicode hex="00F8"/>
  <guideline x="542" y="249" angle="90"/>
  <guideline x="28" y="249" angle="90"/>
  <anchor x="570" y="1000" name="top"/>
  <outline>
    <contour>
      <point x="864" y="1060" type="line"/>
      <point x="104" y="-80" type="line"/>
      <point x="276" y="-80" type="line"/>
      <point x="1036" y="1060" type="line"/>
    </contour>
    <component base="o"/>
  </outline>
</glyph>
<glyph name="thorn" format="2">
  <advance width="1164"/>
  <unicode hex="00FE"/>
  <outline>
    <contour>
      <point x="116" y="-484" type="line"/>
      <point x="364" y="-484" type="line"/>
      <point x="364" y="164" type="line"/>
      <point x="300" y="118" type="line"/>
      <point x="406" y="30"/>
      <point x="484" y="-20"/>
      <point x="640" y="-20" type="curve" smooth="yes"/>
      <point x="946" y="-20"/>
      <point x="1108" y="218"/>
      <point x="1108" y="498" type="curve" smooth="yes"/>
      <point x="1108" y="778"/>
      <point x="946" y="1016"/>
      <point x="640" y="1016" type="curve" smooth="yes"/>
      <point x="484" y="1016"/>
      <point x="400" y="966"/>
      <point x="304" y="882" type="curve"/>
      <point x="364" y="834" type="line"/>
      <point x="364" y="1500" type="line"/>
      <point x="116" y="1500" type="line"/>
    </contour>
    <contour>
      <point x="608" y="184" type="curve" smooth="yes"/>
      <point x="430" y="184"/>
      <point x="352" y="312"/>
      <point x="352" y="498" type="curve" smooth="yes"/>
      <point x="352" y="684"/>
      <point x="430" y="812"/>
      <point x="608" y="812" type="curve" smooth="yes"/>
      <point x="764" y="812"/>
      <point x="854" y="684"/>
      <point x="854" y="498" type="curve" smooth="yes"/>
      <point x="854" y="312"/>
      <point x="764" y="184"/>
    </contour>
  </outline>
</glyph>
<glyph name="dcroat" format="2">
  <advance width="1150"/>
  <unicode hex="0111"/>
  <outline>
    <contour>
      <point x="480" y="1174" type="line"/>
      <point x="1168" y="1174" type="line"/>
      <point x="1168" y="1340" type="line"/>
      <point x="480" y="1340" type="line"/>
    </contour>
    <component base="d"/>
  </outline>
</glyph>
<glyph name="Hbar" format="2">
  <advance width="1480"/>
  <unicode hex="0126"/>
  <outline>
    <contour>
      <point x="154" y="0" type="line"/>
      <point x="410" y="0" type="line"/>
      <point x="410" y="606" type="line"/>
      <point x="1070" y="606" type="line"/>
      <point x="1070" y="0" type="line"/>
      <point x="1326" y="0" type="line"/>
      <point x="1326" y="1400" type="line"/>
      <point x="1070" y="1400" type="line"/>
      <point x="1070" y="854" type="line"/>
      <point x="410" y="854" type="line"/>
      <point x="410" y="1400" type="line"/>
      <point x="154" y="1400" type="line"/>
    </contour>
    <contour>
      <point x="24" y="972" type="line"/>
      <point x="1456" y="972" type="line"/>
      <point x="1456" y="1160" type="line"/>
      <point x="24" y="1160" type="line"/>
    </contour>
  </outline>
</glyph>
<glyph name="hbar" format="2">
  <advance width="1110"/>
  <unicode hex="0127"/>
  <outline>
    <contour>
      <point x="122" y="0" type="line"/>
      <point x="370" y="0" type="line"/>
      <point x="370" y="796" type="line"/>
      <point x="324" y="662" type="line"/>
      <point x="380" y="754"/>
      <point x="448" y="812"/>
      <point x="564" y="812" type="curve" smooth="yes"/>
      <point x="700" y="812"/>
      <point x="756" y="724"/>
      <point x="756" y="538" type="curve" smooth="yes"/>
      <point x="756" y="0" type="line"/>
      <point x="1004" y="0" type="line"/>
      <point x="1004" y="556" type="line" smooth="yes"/>
      <point x="1004" y="828"/>
      <point x="892" y="1016"/>
      <point x="628" y="1016" type="curve" smooth="yes"/>
      <point x="490" y="1016"/>
      <point x="398" y="956"/>
      <point x="314" y="898" type="curve"/>
      <point x="370" y="858" type="line"/>
      <point x="370" y="1500" type="line"/>
      <point x="122" y="1500" type="line"/>
    </contour>
    <contour>
      <point x="-18" y="1174" type="line"/>
      <point x="670" y="1174" type="line"/>
      <point x="670" y="1340" type="line"/>
      <point x="-18" y="1340" type="line"/>
    </contour>
  </outline>
</glyph>
<glyph name="idotless" format="2">
  <advance width="480"/>
  <unicode hex="0131"/>
  <anchor x="240" y="0" name="bottom"/>
  <anchor x="300" y="0" name="ogonek"/>
  <anchor x="240" y="1000" name="top"/>
  <outline>
    <contour>
      <point x="116" y="0" type="line"/>
      <point x="364" y="0" type="line"/>
      <point x="364" y="1000" type="line"/>
      <point x="116" y="1000" type="line"/>
    </contour>
  </outline>
</glyph>
<glyph name="IJ" format="2">
  <advance width="1396"/>
  <unicode hex="0132"/>
  <outline>
    <contour>
      <point x="406" y="480" type="curve"/>
      <point x="150" y="440" type="line"/>
      <point x="196" y="152"/>
      <point x="374" y="-28"/>
      <point x="698" y="-28" type="curve"/>
      <point x="1078" y="-28"/>
      <point x="1258" y="220"/>
      <point x="1258" y="600" type="curve" smooth="yes"/>
      <point x="1258" y="1400" type="line"/>
      <point x="1002" y="1400" type="line"/>
      <point x="1002" y="666" type="line" smooth="yes"/>
      <point x="1002" y="398"/>
      <point x="952" y="218"/>
      <point x="698" y="218" type="curve" smooth="yes"/>
      <point x="508" y="218"/>
      <point x="432" y="318"/>
    </contour>
    <contour>
      <point x="138" y="666" type="line"/>
      <point x="394" y="666" type="line"/>
      <point x="394" y="1400" type="line"/>
      <point x="138" y="1400" type="line"/>
    </contour>
  </outline>
</glyph>
<glyph name="kgreenlandic" format="2">
  <advance width="1034"/>
  <unicode hex="0138"/>
  <outline>
    <contour>
      <point x="116" y="0" type="line"/>
      <point x="364" y="0" type="line"/>
      <point x="364" y="438" type="line"/>
      <point x="742" y="0" type="line"/>
      <point x="1022" y="0" type="line"/>
      <point x="564" y="520" type="line"/>
      <point x="1022" y="1000" type="line"/>
      <point x="742" y="1000" type="line"/>
      <point x="364" y="584" type="line"/>
      <point x="364" y="1000" type="line"/>
      <point x="116" y="1000" type="line"/>
    </contour>
  </outline>
</glyph>
<glyph name="Lslash" format="2">
  <advance width="1000"/>
  <unicode hex="0141"/>
  <outline>
    <contour>
      <point x="154" y="0" type="line"/>
      <point x="986" y="0" type="line"/>
      <point x="986" y="248" type="line"/>
      <point x="410" y="248" type="line"/>
      <point x="410" y="1400" type="line"/>
      <point x="154" y="1400" type="line"/>
    </contour>
    <contour>
      <point x="24" y="704" type="line"/>
      <point x="818" y="908" type="line"/>
      <point x="818" y="1108" type="line"/>
      <point x="24" y="904" type="line"/>
    </contour>
  </outline>
</glyph>
<glyph name="lslash" format="2">
  <advance width="514"/>
  <unicode hex="0142"/>
  <outline>
    <contour>
      <point x="344" y="-20" type="curve" smooth="yes"/>
      <point x="434" y="-20" type="line"/>
      <point x="456" y="184" type="line"/>
      <point x="358" y="184"/>
      <point x="336" y="184"/>
      <point x="336" y="344" type="curve" smooth="yes"/>
      <point x="336" y="1500" type="line"/>
      <point x="88" y="1500" type="line"/>
      <point x="88" y="242" type="line" smooth="yes"/>
      <point x="88" y="98"/>
      <point x="166" y="-20"/>
    </contour>
    <contour>
      <point x="-40" y="760" type="line"/>
      <point x="494" y="898" type="line"/>
      <point x="494" y="1072" type="line"/>
      <point x="-40" y="934" type="line"/>
    </contour>
  </outline>
</glyph>
<glyph name="Eng" format="2">
  <advance width="1440"/>
  <unicode hex="014A"/>
  <outline>
    <contour>
      <point x="1300" y="100" type="curve" smooth="yes"/>
      <point x="1300" y="836" type="line" smooth="yes"/>
      <point x="1300" y="1190"/>
      <point x="1130" y="1428"/>
      <point x="788" y="1428" type="curve" smooth="yes"/>
      <point x="632" y="1428"/>
      <point x="488" y="1372"/>
      <point x="384" y="1266" type="curve"/>
      <point x="372" y="1400" type="line"/>
      <point x="154" y="1400" type="line"/>
      <point x="154" y="0" type="line"/>
      <point x="410" y="0" type="line"/>
      <point x="410" y="1038" type="line"/>
      <point x="474" y="1124"/>
      <point x="580" y="1182"/>
      <point x="726" y="1182" type="curve" smooth="yes"/>
      <point x="936" y="1182"/>
      <point x="1044" y="1044"/>
      <point x="1044" y="796" type="curve" smooth="yes"/>
      <point x="1044" y="84" type="line" smooth="yes"/>
      <point x="1044" y="-82"/>
      <point x="946" y="-164"/>
      <point x="800" y="-164" type="curve" smooth="yes"/>
      <point x="750" y="-164"/>
      <point x="700" y="-160"/>
      <point x="652" y="-150" type="curve"/>
      <point x="626" y="-386" type="line"/>
      <point x="680" y="-402"/>
      <point x="738" y="-410"/>
      <point x="798" y="-410" type="curve" smooth="yes"/>
      <point x="1090" y="-410"/>
      <point x="1300" y="-246"/>
    </contour>
  </outline>
</glyph>
<glyph name="eng" format="2">
  <advance width="1104"/>
  <unicode hex="014B"/>
  <outline>
    <contour>
      <point x="998" y="34" type="curve" smooth="yes"/>
      <point x="998" y="558" type="line" smooth="yes"/>
      <point x="998" y="828"/>
      <point x="876" y="1016"/>
      <point x="620" y="1016" type="curve" smooth="yes"/>
      <point x="510" y="1016"/>
      <point x="422" y="978"/>
      <point x="352" y="930" type="curve"/>
      <point x="348" y="1000" type="line"/>
      <point x="116" y="1000" type="line"/>
      <point x="116" y="0" type="line"/>
      <point x="364" y="0" type="line"/>
      <point x="364" y="726" type="line"/>
      <point x="410" y="780"/>
      <point x="468" y="812"/>
      <point x="552" y="812" type="curve" smooth="yes"/>
      <point x="692" y="812"/>
      <point x="750" y="724"/>
      <point x="750" y="538" type="curve" smooth="yes"/>
      <point x="750" y="14" type="line" smooth="yes"/>
      <point x="750" y="-98"/>
      <point x="680" y="-154"/>
      <point x="578" y="-154" type="curve" smooth="yes"/>
      <point x="532" y="-154"/>
      <point x="488" y="-148"/>
      <point x="444" y="-136" type="curve"/>
      <point x="418" y="-336" type="line"/>
      <point x="468" y="-350"/>
      <point x="524" y="-358"/>
      <point x="580" y="-358" type="curve" smooth="yes"/>
      <point x="822" y="-358"/>
      <point x="998" y="-230"/>
    </contour>
  </outline>
</glyph>
<glyph name="oe" format="2">
  <advance width="1790"/>
  <unicode hex="0153"/>
  <anchor x="948" y="1000" name="top"/>
  <outline>
    <contour>
      <point x="570" y="-20" type="curve" smooth="yes"/>
      <point x="764" y="-20"/>
      <point x="908" y="76"/>
      <point x="990" y="218" type="curve"/>
      <point x="910" y="218" type="line"/>
      <point x="994" y="76"/>
      <point x="1144" y="-20"/>
      <point x="1358" y="-20" type="curve" smooth="yes"/>
      <point x="1500" y="-20"/>
      <point x="1616" y="16"/>
      <point x="1692" y="56" type="curve"/>
      <point x="1680" y="266" type="line"/>
      <point x="1598" y="222"/>
      <point x="1466" y="184"/>
      <point x="1372" y="184" type="curve" smooth="yes"/>
      <point x="1240" y="184"/>
      <point x="1102" y="260"/>
      <point x="1074" y="446" type="curve"/>
      <point x="1720" y="446" type="line"/>
      <point x="1730" y="494"/>
      <point x="1736" y="538"/>
      <point x="1736" y="582" type="curve" smooth="yes"/>
      <point x="1736" y="820"/>
      <point x="1592" y="1016"/>
      <point x="1304" y="1016" type="curve" smooth="yes"/>
      <point x="1124" y="1016"/>
      <point x="990" y="928"/>
      <point x="912" y="796" type="curve"/>
      <point x="982" y="796" type="line"/>
      <point x="898" y="932"/>
      <point x="758" y="1020"/>
      <point x="570" y="1020" type="curve" smooth="yes"/>
      <point x="244" y="1020"/>
      <point x="56" y="780"/>
      <point x="56" y="498" type="curve" smooth="yes"/>
      <point x="56" y="218"/>
      <point x="244" y="-20"/>
    </contour>
    <contour>
      <point x="570" y="184" type="curve" smooth="yes"/>
      <point x="404" y="184"/>
      <point x="310" y="312"/>
      <point x="310" y="498" type="curve" smooth="yes"/>
      <point x="310" y="686"/>
      <point x="404" y="816"/>
      <point x="570" y="816" type="curve" smooth="yes"/>
      <point x="736" y="816"/>
      <point x="830" y="686"/>
      <point x="830" y="498" type="curve" smooth="yes"/>
      <point x="830" y="312"/>
      <point x="736" y="184"/>
    </contour>
    <contour>
      <point x="1080" y="614" type="line"/>
      <point x="1104" y="728"/>
      <point x="1176" y="812"/>
      <point x="1304" y="812" type="curve" smooth="yes"/>
      <point x="1438" y="812"/>
      <point x="1484" y="704"/>
      <point x="1484" y="614" type="curve"/>
    </contour>
  </outline>
</glyph>
<glyph name="Tbar" format="2">
  <advance width="1108"/>
  <unicode hex="0166"/>
  <outline>
    <contour>
      <point x="426" y="0" type="line"/>
      <point x="682" y="0" type="line"/>
      <point x="682" y="1152" type="line"/>
      <point x="1078" y="1152" type="line"/>
      <point x="1078" y="1400" type="line"/>
      <point x="30" y="1400" type="line"/>
      <point x="30" y="1152" type="line"/>
      <point x="426" y="1152" type="line"/>
    </contour>
    <contour>
      <point x="146" y="612" type="line"/>
      <point x="962" y="612" type="line"/>
      <point x="962" y="778" type="line"/>
      <point x="146" y="778" type="line"/>
    </contour>
  </outline>
</glyph>
<glyph name="Schwa" format="2">
  <advance width="1428"/>
  <unicode hex="018F"/>
  <outline>
    <contour>
      <point x="1078" y="684" type="curve" smooth="yes"/>
      <point x="1078" y="376"/>
      <point x="930" y="218"/>
      <point x="690" y="218" type="curve" smooth="yes"/>
      <point x="466" y="218"/>
      <point x="352" y="352"/>
      <point x="340" y="524" type="curve"/>
      <point x="1218" y="524" type="line"/>
      <point x="1218" y="752" type="line"/>
      <point x="76" y="752" type="line"/>
      <point x="64" y="694"/>
      <point x="60" y="636"/>
      <point x="60" y="588" type="curve" smooth="yes"/>
      <point x="60" y="214"/>
      <point x="310" y="-28"/>
      <point x="682" y="-28" type="curve" smooth="yes"/>
      <point x="1108" y="-28"/>
      <point x="1358" y="280"/>
      <point x="1358" y="680" type="curve" smooth="yes"/>
      <point x="1358" y="1100"/>
      <point x="1098" y="1428"/>
      <point x="638" y="1428" type="curve" smooth="yes"/>
      <point x="450" y="1428"/>
      <point x="276" y="1380"/>
      <point x="142" y="1310" type="curve"/>
      <point x="158" y="1070" type="line"/>
      <point x="296" y="1136"/>
      <point x="454" y="1182"/>
      <point x="616" y="1182" type="curve" smooth="yes"/>
      <point x="916" y="1182"/>
      <point x="1078" y="994"/>
    </contour>
  </outline>
</glyph>
<glyph name="florin" format="2">
  <advance width="690"/>
  <unicode hex="0192"/>
  <outline>
    <contour>
      <point x="18" y="796" type="line"/>
      <point x="656" y="796" type="line"/>
      <point x="678" y="1000" type="line"/>
      <point x="40" y="1000" type="line"/>
    </contour>
    <contour>
      <point x="294" y="86" type="curve" smooth="yes"/>
      <point x="446" y="1026" type="line" smooth="yes"/>
      <point x="470" y="1172"/>
      <point x="524" y="1230"/>
      <point x="636" y="1230" type="curve" smooth="yes"/>
      <point x="672" y="1230"/>
      <point x="702" y="1224"/>
      <point x="728" y="1214" type="curve"/>
      <point x="750" y="1406" type="line"/>
      <point x="708" y="1422"/>
      <point x="660" y="1428"/>
      <point x="600" y="1428" type="curve" smooth="yes"/>
      <point x="380" y="1428"/>
      <point x="252" y="1314"/>
      <point x="212" y="1054" type="curve" smooth="yes"/>
      <point x="60" y="114" type="line" smooth="yes"/>
      <point x="36" y="-30"/>
      <point x="-18" y="-90"/>
      <point x="-130" y="-90" type="curve" smooth="yes"/>
      <point x="-166" y="-90"/>
      <point x="-196" y="-84"/>
      <point x="-222" y="-74" type="curve"/>
      <point x="-244" y="-266" type="line"/>
      <point x="-202" y="-282"/>
      <point x="-154" y="-288"/>
      <point x="-94" y="-288" type="curve" smooth="yes"/>
      <point x="126" y="-288"/>
      <point x="250" y="-184"/>
    </contour>
  </outline>
</glyph>
<glyph name="jdotless" format="2">
  <advance width="480"/>
  <unicode hex="0237"/>
  <anchor x="240" y="1000" name="top"/>
  <outline>
    <contour>
      <point x="18" y="-484" type="line"/>
      <point x="108" y="-484" type="line" smooth="yes"/>
      <point x="286" y="-484"/>
      <point x="364" y="-366"/>
      <point x="364" y="-222" type="curve" smooth="yes"/>
      <point x="364" y="1000" type="line"/>
      <point x="116" y="1000" type="line"/>
      <point x="116" y="-120" type="line" smooth="yes"/>
      <point x="116" y="-278"/>
      <point x="102" y="-280"/>
      <point x="-4" y="-280" type="curve"/>
    </contour>
  </outline>
</glyph>
<glyph name="ringhalfright" format="2">
  <advance width="388"/>
  <unicode hex="02BE"/>
  <outline>
    <contour>
      <point x="90" y="1140" type="line"/>
      <point x="220" y="1140"/>
      <point x="298" y="1228"/>
      <point x="298" y="1334" type="curve" smooth="yes"/>
      <point x="298" y="1440"/>
      <point x="220" y="1530"/>
      <point x="90" y="1530" type="curve"/>
      <point x="90" y="1424" type="line"/>
      <point x="140" y="1424"/>
      <point x="178" y="1386"/>
      <point x="178" y="1334" type="curve" smooth="yes"/>
      <point x="178" y="1280"/>
      <point x="140" y="1244"/>
      <point x="90" y="1244" type="curve"/>
    </contour>
  </outline>
</glyph>
<glyph name="ringhalfleft" format="2">
  <advance width="388"/>
  <unicode hex="02BF"/>
  <outline>
    <contour>
      <point x="298" y="1140" type="curve"/>
      <point x="298" y="1244" type="line"/>
      <point x="248" y="1244"/>
      <point x="210" y="1280"/>
      <point x="210" y="1334" type="curve" smooth="yes"/>
      <point x="210" y="1386"/>
      <point x="248" y="1424"/>
      <point x="298" y="1424" type="curve"/>
      <point x="298" y="1530" type="line"/>
      <point x="170" y="1530"/>
      <point x="90" y="1440"/>
      <point x="90" y="1334" type="curve" smooth="yes"/>
      <point x="90" y="1228"/>
      <point x="170" y="1140"/>
    </contour>
  </outline>
</glyph>
<glyph name="verticallinemod" format="2">
  <advance width="340"/>
  <unicode hex="02C8"/>
  <outline>
    <contour>
      <point x="90" y="1530" type="line"/>
      <point x="90" y="1140" type="line"/>
      <point x="250" y="1140" type="line"/>
      <point x="250" y="1530" type="line"/>
    </contour>
  </outline>
</glyph>
<glyph name="verticallinelowmod" format="2">
  <advance width="352"/>
  <unicode hex="02CC"/>
  <outline>
    <contour>
      <point x="90" y="230" type="line"/>
      <point x="90" y="-160" type="line"/>
      <point x="262" y="-160" type="line"/>
      <point x="262" y="230" type="line"/>
    </contour>
  </outline>
</glyph>
<glyph name="gravecomb" format="2">
  <unicode hex="0300"/>
  <anchor x="0" y="1000" name="_top"/>
  <anchor x="0" y="1500" name="top"/>
  <outline>
    <contour>
      <point x="196" y="1140" type="line"/>
      <point x="196" y="1298" type="line"/>
      <point x="-198" y="1522" type="line"/>
      <point x="-198" y="1292" type="line"/>
    </contour>
  </outline>
</glyph>
<glyph name="acutecomb" format="2">
  <unicode hex="0301"/>
  <anchor x="0" y="1000" name="_top"/>
  <anchor x="0" y="1500" name="top"/>
  <outline>
    <contour>
      <point x="-196" y="1140" type="line"/>
      <point x="198" y="1292" type="line"/>
      <point x="198" y="1522" type="line"/>
      <point x="-196" y="1298" type="line"/>
    </contour>
  </outline>
</glyph>
<glyph name="circumflexcomb" format="2">
  <unicode hex="0302"/>
  <anchor x="0" y="1000" name="_top"/>
  <anchor x="0" y="1500" name="top"/>
  <outline>
    <contour>
      <point x="-264" y="1108" type="line"/>
      <point x="0" y="1274" type="line"/>
      <point x="264" y="1108" type="line"/>
      <point x="264" y="1266" type="line"/>
      <point x="0" y="1490" type="line"/>
      <point x="-264" y="1266" type="line"/>
    </contour>
  </outline>
</glyph>
<glyph name="tildecomb" format="2">
  <unicode hex="0303"/>
  <anchor x="0" y="1000" name="_top"/>
  <anchor x="0" y="1442" name="top"/>
  <outline>
    <contour>
      <point x="170" y="1156" type="curve" smooth="yes"/>
      <point x="278" y="1156"/>
      <point x="336" y="1242"/>
      <point x="342" y="1398" type="curve"/>
      <point x="172" y="1398" type="line"/>
      <point x="172" y="1354"/>
      <point x="146" y="1326"/>
      <point x="104" y="1326" type="curve" smooth="yes"/>
      <point x="20" y="1326"/>
      <point x="-70" y="1414"/>
      <point x="-170" y="1414" type="curve" smooth="yes"/>
      <point x="-278" y="1414"/>
      <point x="-336" y="1328"/>
      <point x="-342" y="1172" type="curve"/>
      <point x="-172" y="1172" type="line"/>
      <point x="-172" y="1216"/>
      <point x="-146" y="1244"/>
      <point x="-104" y="1244" type="curve" smooth="yes"/>
      <point x="-20" y="1244"/>
      <point x="70" y="1156"/>
    </contour>
  </outline>
</glyph>
<glyph name="brevecomb" format="2">
  <unicode hex="0306"/>
  <anchor x="0" y="1000" name="_top"/>
  <anchor x="0" y="1518" name="top"/>
  <outline>
    <contour>
      <point x="0" y="1174" type="curve" smooth="yes"/>
      <point x="192" y="1174"/>
      <point x="308" y="1300"/>
      <point x="308" y="1452" type="curve"/>
      <point x="138" y="1452" type="line"/>
      <point x="138" y="1370"/>
      <point x="84" y="1324"/>
      <point x="0" y="1324" type="curve" smooth="yes"/>
      <point x="-84" y="1324"/>
      <point x="-138" y="1370"/>
      <point x="-138" y="1452" type="curve"/>
      <point x="-308" y="1452" type="line"/>
      <point x="-308" y="1300"/>
      <point x="-190" y="1174"/>
    </contour>
  </outline>
</glyph>
<glyph name="dotaccentcomb" format="2">
  <unicode hex="0307"/>
  <anchor x="0" y="1000" name="_top"/>
  <anchor x="0" y="1362" name="top"/>
  <outline>
    <contour>
      <point x="-104" y="1204" type="line"/>
      <point x="104" y="1204" type="line"/>
      <point x="104" y="1398" type="line"/>
      <point x="-104" y="1398" type="line"/>
    </contour>
  </outline>
</glyph>
<glyph name="dieresiscomb" format="2">
  <unicode hex="0308"/>
  <anchor x="0" y="1000" name="_top"/>
  <anchor x="0" y="1400" name="top"/>
  <outline>
    <contour>
      <point x="106" y="1182" type="line"/>
      <point x="298" y="1182" type="line"/>
      <point x="298" y="1362" type="line"/>
      <point x="106" y="1362" type="line"/>
    </contour>
    <contour>
      <point x="-298" y="1182" type="line"/>
      <point x="-106" y="1182" type="line"/>
      <point x="-106" y="1362" type="line"/>
      <point x="-298" y="1362" type="line"/>
    </contour>
  </outline>
</glyph>
<glyph name="ringcomb" format="2">
  <unicode hex="030A"/>
  <anchor x="0" y="1000" name="_top"/>
  <anchor x="0" y="1490" name="top"/>
  <outline>
    <contour>
      <point x="0" y="1140" type="curve" smooth="yes"/>
      <point x="130" y="1140"/>
      <point x="208" y="1228"/>
      <point x="208" y="1334" type="curve" smooth="yes"/>
      <point x="208" y="1440"/>
      <point x="130" y="1530"/>
      <point x="0" y="1530" type="curve" smooth="yes"/>
      <point x="-128" y="1530"/>
      <point x="-208" y="1440"/>
      <point x="-208" y="1334" type="curve" smooth="yes"/>
      <point x="-208" y="1228"/>
      <point x="-128" y="1140"/>
    </contour>
    <contour>
      <point x="0" y="1244" type="curve" smooth="yes"/>
      <point x="-50" y="1244"/>
      <point x="-88" y="1280"/>
      <point x="-88" y="1334" type="curve" smooth="yes"/>
      <point x="-88" y="1386"/>
      <point x="-50" y="1424"/>
      <point x="0" y="1424" type="curve" smooth="yes"/>
      <point x="50" y="1424"/>
      <point x="88" y="1386"/>
      <point x="88" y="1334" type="curve" smooth="yes"/>
      <point x="88" y="1280"/>
      <point x="50" y="1244"/>
    </contour>
  </outline>
</glyph>
<glyph name="hungarumlautcomb" format="2">
  <unicode hex="030B"/>
  <anchor x="0" y="1000" name="_top"/>
  <anchor x="0" y="1510" name="top"/>
  <outline>
    <contour>
      <point x="60" y="1176" type="line"/>
      <point x="218" y="1176" type="line"/>
      <point x="458" y="1530" type="line"/>
      <point x="228" y="1530" type="line"/>
    </contour>
    <contour>
      <point x="-234" y="1176" type="line"/>
      <point x="-76" y="1176" type="line"/>
      <point x="148" y="1530" type="line"/>
      <point x="-82" y="1530" type="line"/>
    </contour>
  </outline>
</glyph>
<glyph name="caroncomb" format="2">
  <unicode hex="030C"/>
  <anchor x="0" y="1000" name="_top"/>
  <anchor x="0" y="1450" name="top"/>
  <outline>
    <contour>
      <point x="0" y="1118" type="line"/>
      <point x="264" y="1342" type="line"/>
      <point x="264" y="1500" type="line"/>
      <point x="0" y="1334" type="line"/>
      <point x="-264" y="1500" type="line"/>
      <point x="-264" y="1342" type="line"/>
    </contour>
  </outline>
</glyph>
<glyph name="dblgravecomb" format="2">
  <unicode hex="030F"/>
  <anchor x="0" y="1000" name="_top"/>
  <anchor x="0" y="1510" name="top"/>
  <outline>
    <contour>
      <point x="238" y="1176" type="line"/>
      <point x="110" y="1530" type="line"/>
      <point x="-120" y="1530" type="line"/>
      <point x="80" y="1176" type="line"/>
    </contour>
    <contour>
      <point x="-56" y="1176" type="line"/>
      <point x="-200" y="1530" type="line"/>
      <point x="-430" y="1530" type="line"/>
      <point x="-214" y="1176" type="line"/>
    </contour>
  </outline>
</glyph>
<glyph name="breveinvertedcomb" format="2">
  <unicode hex="0311"/>
  <anchor x="0" y="1000" name="_top"/>
  <anchor x="0" y="1414" name="top"/>
  <outline>
    <contour>
      <point x="0" y="1452" type="curve" smooth="yes"/>
      <point x="-190" y="1452"/>
      <point x="-308" y="1326"/>
      <point x="-308" y="1174" type="curve"/>
      <point x="-138" y="1174" type="line"/>
      <point x="-138" y="1256"/>
      <point x="-84" y="1302"/>
      <point x="0" y="1302" type="curve" smooth="yes"/>
      <point x="84" y="1302"/>
      <point x="138" y="1256"/>
      <point x="138" y="1174" type="curve"/>
      <point x="308" y="1174" type="line"/>
      <point x="308" y="1326"/>
      <point x="192" y="1452"/>
    </contour>
  </outline>
</glyph>
<glyph name="commaaccentcomb" format="2">
  <unicode hex="0326"/>
  <anchor x="0" y="0" name="_bottom"/>
  <anchor x="0" y="-618" name="bottom"/>
  <outline>
    <contour>
      <point x="2" y="-628" type="line"/>
      <point x="126" y="-384" type="line"/>
      <point x="126" y="-182" type="line"/>
      <point x="-120" y="-182" type="line"/>
      <point x="-120" y="-408" type="line"/>
      <point x="-28" y="-408" type="line"/>
      <point x="-104" y="-628" type="line"/>
    </contour>
  </outline>
</glyph>
<glyph name="cedillacomb" format="2">
  <unicode hex="0327"/>
  <anchor x="0" y="0" name="_bottom"/>
  <anchor x="0" y="-458" name="bottom"/>
  <outline>
    <contour>
      <point x="12" y="-158" type="line"/>
      <point x="60" y="0" type="line"/>
      <point x="-50" y="0" type="line"/>
      <point x="-106" y="-234" type="line"/>
      <point x="-70" y="-224"/>
      <point x="-42" y="-220"/>
      <point x="-10" y="-220" type="curve" smooth="yes"/>
      <point x="58" y="-220"/>
      <point x="92" y="-244"/>
      <point x="92" y="-290" type="curve" smooth="yes"/>
      <point x="92" y="-334"/>
      <point x="54" y="-356"/>
      <point x="-2" y="-356" type="curve" smooth="yes"/>
      <point x="-50" y="-356"/>
      <point x="-90" y="-342"/>
      <point x="-132" y="-322" type="curve"/>
      <point x="-170" y="-440" type="line"/>
      <point x="-132" y="-460"/>
      <point x="-78" y="-478"/>
      <point x="-6" y="-478" type="curve" smooth="yes"/>
      <point x="120" y="-478"/>
      <point x="220" y="-412"/>
      <point x="220" y="-282" type="curve" smooth="yes"/>
      <point x="220" y="-172"/>
      <point x="148" y="-108"/>
      <point x="32" y="-108" type="curve" smooth="yes"/>
      <point x="-4" y="-108"/>
      <point x="-34" y="-116"/>
      <point x="-66" y="-128" type="curve"/>
    </contour>
  </outline>
</glyph>
<glyph name="ogonekcomb" format="2">
  <unicode hex="0328"/>
  <anchor x="0" y="0" name="_ogonek"/>
  <outline>
    <contour>
      <point x="-60" y="0" type="line"/>
      <point x="-134" y="-52"/>
      <point x="-218" y="-140"/>
      <point x="-218" y="-246" type="curve" smooth="yes"/>
      <point x="-218" y="-360"/>
      <point x="-130" y="-422"/>
      <point x="-14" y="-422" type="curve" smooth="yes"/>
      <point x="62" y="-422"/>
      <point x="118" y="-404"/>
      <point x="160" y="-382" type="curve"/>
      <point x="126" y="-272" type="line"/>
      <point x="88" y="-290"/>
      <point x="52" y="-300"/>
      <point x="6" y="-300" type="curve" smooth="yes"/>
      <point x="-52" y="-300"/>
      <point x="-90" y="-270"/>
      <point x="-90" y="-208" type="curve" smooth="yes"/>
      <point x="-90" y="-136"/>
      <point x="-28" y="-70"/>
      <point x="64" y="0" type="curve"/>
    </contour>
  </outline>
</glyph>
<glyph name="pi" format="2">
  <advance width="1292"/>
  <unicode hex="03C0"/>
  <outline>
    <contour>
      <point x="1134" y="184" type="curve" smooth="yes"/>
      <point x="1078" y="184"/>
      <point x="1048" y="214"/>
      <point x="1048" y="276" type="curve" smooth="yes"/>
      <point x="1048" y="796" type="line"/>
      <point x="1252" y="796" type="line"/>
      <point x="1252" y="1000" type="line"/>
      <point x="36" y="1000" type="line"/>
      <point x="36" y="796" type="line"/>
      <point x="238" y="796" type="line"/>
      <point x="238" y="0" type="line"/>
      <point x="486" y="0" type="line"/>
      <point x="486" y="796" type="line"/>
      <point x="800" y="796" type="line"/>
      <point x="800" y="252" type="line" smooth="yes"/>
      <point x="800" y="74"/>
      <point x="896" y="-20"/>
      <point x="1068" y="-20" type="curve" smooth="yes"/>
      <point x="1140" y="-20"/>
      <point x="1206" y="-2"/>
      <point x="1244" y="18" type="curve"/>
      <point x="1244" y="206" type="line"/>
      <point x="1216" y="194"/>
      <point x="1176" y="184"/>
    </contour>
  </outline>
</glyph>
<glyph name="Germandbls" format="2">
  <advance width="1340"/>
  <unicode hex="1E9E"/>
  <outline>
    <contour>
      <point x="154" y="0" type="line"/>
      <point x="410" y="0" type="line"/>
      <point x="410" y="906" type="line" smooth="yes"/>
      <point x="410" y="1090"/>
      <point x="536" y="1202"/>
      <point x="730" y="1202" type="curve" smooth="yes"/>
      <point x="872" y="1202"/>
      <point x="978" y="1162"/>
      <point x="1048" y="1120" type="curve"/>
      <point x="1070" y="1286" type="line"/>
      <point x="650" y="848" type="line"/>
      <point x="650" y="636" type="line"/>
      <point x="744" y="636" type="line" smooth="yes"/>
      <point x="922" y="636"/>
      <point x="1012" y="560"/>
      <point x="1012" y="424" type="curve" smooth="yes"/>
      <point x="1012" y="296"/>
      <point x="920" y="218"/>
      <point x="776" y="218" type="curve" smooth="yes"/>
      <point x="706" y="218"/>
      <point x="640" y="224"/>
      <point x="574" y="238" type="curve"/>
      <point x="574" y="0" type="line"/>
      <point x="648" y="-18"/>
      <point x="728" y="-28"/>
      <point x="814" y="-28" type="curve" smooth="yes"/>
      <point x="1080" y="-28"/>
      <point x="1292" y="114"/>
      <point x="1292" y="410" type="curve" smooth="yes"/>
      <point x="1292" y="720"/>
      <point x="1060" y="840"/>
      <point x="742" y="840" type="curve"/>
      <point x="786" y="696" type="line"/>
      <point x="1172" y="1098" type="line"/>
      <point x="1172" y="1310" type="line"/>
      <point x="1066" y="1378"/>
      <point x="914" y="1428"/>
      <point x="730" y="1428" type="curve" smooth="yes"/>
      <point x="388" y="1428"/>
      <point x="154" y="1256"/>
      <point x="154" y="902" type="curve" smooth="yes"/>
    </contour>
  </outline>
</glyph>
<glyph name="figuredash" format="2">
  <advance width="1412"/>
  <unicode hex="2012"/>
  <outline>
    <contour>
      <point x="0" y="528" type="line"/>
      <point x="1412" y="528" type="line"/>
      <point x="1412" y="716" type="line"/>
      <point x="0" y="716" type="line"/>
    </contour>
  </outline>
</glyph>
<glyph name="dagger" format="2">
  <advance width="852"/>
  <unicode hex="2020"/>
  <outline>
    <contour>
      <point x="336" y="0" type="line"/>
      <point x="516" y="0" type="line"/>
      <point x="576" y="514" type="line"/>
      <point x="518" y="750" type="line"/>
      <point x="780" y="698" type="line"/>
      <point x="780" y="962" type="line"/>
      <point x="518" y="908" type="line"/>
      <point x="576" y="1214" type="line"/>
      <point x="276" y="1214" type="line"/>
      <point x="334" y="908" type="line"/>
      <point x="72" y="962" type="line"/>
      <point x="72" y="698" type="line"/>
      <point x="334" y="750" type="line"/>
      <point x="276" y="514" type="line"/>
    </contour>
  </outline>
</glyph>
<glyph name="daggerdbl" format="2">
  <advance width="944"/>
  <unicode hex="2021"/>
  <outline>
    <contour>
      <point x="322" y="-118" type="line"/>
      <point x="622" y="-118" type="line"/>
      <point x="564" y="188" type="line"/>
      <point x="826" y="134" type="line"/>
      <point x="826" y="398" type="line"/>
      <point x="564" y="346" type="line"/>
      <point x="622" y="548" type="line"/>
      <point x="564" y="750" type="line"/>
      <point x="826" y="698" type="line"/>
      <point x="826" y="962" type="line"/>
      <point x="564" y="908" type="line"/>
      <point x="622" y="1214" type="line"/>
      <point x="322" y="1214" type="line"/>
      <point x="380" y="908" type="line"/>
      <point x="118" y="962" type="line"/>
      <point x="118" y="698" type="line"/>
      <point x="380" y="750" type="line"/>
      <point x="322" y="548" type="line"/>
      <point x="380" y="346" type="line"/>
      <point x="118" y="398" type="line"/>
      <point x="118" y="134" type="line"/>
      <point x="380" y="188" type="line"/>
    </contour>
  </outline>
</glyph>
<glyph name="bullet" format="2">
  <advance width="596"/>
  <unicode hex="2022"/>
  <outline>
    <contour>
      <point x="298" y="338" type="curve" smooth="yes"/>
      <point x="418" y="338"/>
      <point x="516" y="436"/>
      <point x="516" y="556" type="curve" smooth="yes"/>
      <point x="516" y="676"/>
      <point x="418" y="774"/>
      <point x="298" y="774" type="curve" smooth="yes"/>
      <point x="178" y="774"/>
      <point x="80" y="676"/>
      <point x="80" y="556" type="curve" smooth="yes"/>
      <point x="80" y="436"/>
      <point x="178" y="338"/>
    </contour>
  </outline>
</glyph>
<glyph name="minute" format="2">
  <advance width="382"/>
  <unicode hex="2032"/>
  <outline>
    <contour>
      <point x="72" y="1006" type="line"/>
      <point x="212" y="1006" type="line"/>
      <point x="270" y="1400" type="line"/>
      <point x="72" y="1400" type="line"/>
    </contour>
  </outline>
</glyph>
<glyph name="guilsinglleft" format="2">
  <advance width="694"/>
  <unicode hex="2039"/>
  <outline>
    <contour>
      <point x="326" y="156" type="line"/>
      <point x="620" y="156" type="line"/>
      <point x="316" y="568" type="line"/>
      <point x="620" y="980" type="line"/>
      <point x="326" y="980" type="line"/>
      <point x="22" y="568" type="line"/>
    </contour>
  </outline>
</glyph>
<glyph name="guilsinglright" format="2">
  <advance width="694"/>
  <unicode hex="203A"/>
  <outline>
    <contour>
      <point x="74" y="156" type="line"/>
      <point x="368" y="156" type="line"/>
      <point x="672" y="568" type="line"/>
      <point x="368" y="980" type="line"/>
      <point x="74" y="980" type="line"/>
      <point x="378" y="568" type="line"/>
    </contour>
  </outline>
</glyph>
<glyph name="fraction" format="2">
  <advance width="192"/>
  <unicode hex="2044"/>
  <outline>
    <contour>
      <point x="-416" y="0" type="line"/>
      <point x="-216" y="0" type="line"/>
      <point x="608" y="1400" type="line"/>
      <point x="410" y="1400" type="line"/>
    </contour>
  </outline>
</glyph>
<glyph name="colonsign" format="2">
  <advance width="1218"/>
  <unicode hex="20A1"/>
  <outline>
    <contour>
      <point x="788" y="-28" type="curve" smooth="yes"/>
      <point x="924" y="-28"/>
      <point x="1052" y="4"/>
      <point x="1158" y="54" type="curve"/>
      <point x="1130" y="298" type="line"/>
      <point x="1022" y="250"/>
      <point x="922" y="218"/>
      <point x="788" y="218" type="curve" smooth="yes"/>
      <point x="498" y="218"/>
      <point x="350" y="420"/>
      <point x="350" y="700" type="curve" smooth="yes"/>
      <point x="350" y="980"/>
      <point x="500" y="1182"/>
      <point x="794" y="1182" type="curve" smooth="yes"/>
      <point x="926" y="1182"/>
      <point x="1028" y="1148"/>
      <point x="1130" y="1102" type="curve"/>
      <point x="1158" y="1346" type="line"/>
      <point x="1068" y="1392"/>
      <point x="944" y="1428"/>
      <point x="796" y="1428" type="curve" smooth="yes"/>
      <point x="374" y="1428"/>
      <point x="70" y="1140"/>
      <point x="70" y="700" type="curve" smooth="yes"/>
      <point x="70" y="260"/>
      <point x="362" y="-28"/>
    </contour>
    <contour>
      <point x="390" y="-228" type="line"/>
      <point x="538" y="-228" type="line"/>
      <point x="798" y="1628" type="line"/>
      <point x="650" y="1628" type="line"/>
    </contour>
    <contour>
      <point x="692" y="-228" type="line"/>
      <point x="840" y="-228" type="line"/>
      <point x="1100" y="1628" type="line"/>
      <point x="952" y="1628" type="line"/>
    </contour>
  </outline>
</glyph>
<glyph name="franc" format="2">
  <advance width="1050"/>
  <unicode hex="20A3"/>
  <outline>
    <contour>
      <point x="154" y="0" type="line"/>
      <point x="410" y="0" type="line"/>
      <point x="410" y="606" type="line"/>
      <point x="878" y="606" type="line"/>
      <point x="878" y="854" type="line"/>
      <point x="410" y="854" type="line"/>
      <point x="410" y="1152" type="line"/>
      <point x="1016" y="1152" type="line"/>
      <point x="1016" y="1400" type="line"/>
      <point x="154" y="1400" type="line"/>
    </contour>
    <contour>
      <point x="14" y="248" type="line"/>
      <point x="754" y="248" type="line"/>
      <point x="754" y="424" type="line"/>
      <point x="14" y="424" type="line"/>
    </contour>
  </outline>
</glyph>
<glyph name="naira" format="2">
  <advance width="1534"/>
  <unicode hex="20A6"/>
  <outline>
    <contour>
      <point x="214" y="0" type="line"/>
      <point x="470" y="0" type="line"/>
      <point x="470" y="960" type="line"/>
      <point x="1110" y="0" type="line"/>
      <point x="1320" y="0" type="line"/>
      <point x="1320" y="1400" type="line"/>
      <point x="1064" y="1400" type="line"/>
      <point x="1064" y="496" type="line"/>
      <point x="466" y="1400" type="line"/>
      <point x="214" y="1400" type="line"/>
    </contour>
    <contour>
      <point x="74" y="658" type="line"/>
      <point x="1460" y="658" type="line"/>
      <point x="1460" y="804" type="line"/>
      <point x="74" y="804" type="line"/>
    </contour>
  </outline>
</glyph>
<glyph name="peseta" format="2">
  <advance width="2606"/>
  <unicode hex="20A7"/>
  <outline>
    <contour>
      <point x="154" y="0" type="line"/>
      <point x="410" y="0" type="line"/>
      <point x="410" y="460" type="line"/>
      <point x="620" y="460" type="line" smooth="yes"/>
      <point x="876" y="460"/>
      <point x="1100" y="596"/>
      <point x="1100" y="944" type="curve" smooth="yes"/>
      <point x="1100" y="1258"/>
      <point x="928" y="1400"/>
      <point x="614" y="1400" type="curve" smooth="yes"/>
      <point x="154" y="1400" type="line"/>
    </contour>
    <contour>
      <point x="410" y="700" type="line"/>
      <point x="410" y="1186" type="line"/>
      <point x="584" y="1186" type="line" smooth="yes"/>
      <point x="756" y="1186"/>
      <point x="840" y="1112"/>
      <point x="840" y="944" type="curve" smooth="yes"/>
      <point x="840" y="776"/>
      <point x="756" y="700"/>
      <point x="590" y="700" type="curve" smooth="yes"/>
    </contour>
    <contour>
      <point x="1564" y="-20" type="curve" smooth="yes"/>
      <point x="1742" y="-20" type="line"/>
      <point x="1764" y="184" type="line"/>
      <point x="1696" y="184" type="line" smooth="yes"/>
      <point x="1556" y="184"/>
      <point x="1544" y="192"/>
      <point x="1544" y="344" type="curve" smooth="yes"/>
      <point x="1544" y="796" type="line"/>
      <point x="1764" y="796" type="line"/>
      <point x="1764" y="1000" type="line"/>
      <point x="1544" y="1000" type="line"/>
      <point x="1544" y="1246" type="line"/>
      <point x="1296" y="1220" type="line"/>
      <point x="1296" y="1000" type="line"/>
      <point x="1176" y="1000" type="line"/>
      <point x="1154" y="796" type="line"/>
      <point x="1296" y="796" type="line"/>
      <point x="1296" y="242" type="line" smooth="yes"/>
      <point x="1296" y="112"/>
      <point x="1376" y="-20"/>
    </contour>
    <contour>
      <point x="2160" y="-20" type="curve"/>
      <point x="2502" y="-20"/>
      <point x="2552" y="152"/>
      <point x="2552" y="274" type="curve" smooth="yes"/>
      <point x="2552" y="480"/>
      <point x="2412" y="542"/>
      <point x="2278" y="580" type="curve" smooth="yes"/>
      <point x="2152" y="616"/>
      <point x="2050" y="632"/>
      <point x="2050" y="728" type="curve" smooth="yes"/>
      <point x="2050" y="808"/>
      <point x="2130" y="838"/>
      <point x="2216" y="838" type="curve" smooth="yes"/>
      <point x="2324" y="838"/>
      <point x="2440" y="780"/>
      <point x="2490" y="730" type="curve"/>
      <point x="2512" y="942" type="line"/>
      <point x="2458" y="978"/>
      <point x="2328" y="1016"/>
      <point x="2198" y="1016" type="curve" smooth="yes"/>
      <point x="1916" y="1016"/>
      <point x="1832" y="838"/>
      <point x="1832" y="698" type="curve" smooth="yes"/>
      <point x="1832" y="506"/>
      <point x="1980" y="460"/>
      <point x="2120" y="418" type="curve" smooth="yes"/>
      <point x="2218" y="388"/>
      <point x="2304" y="360"/>
      <point x="2304" y="276" type="curve" smooth="yes"/>
      <point x="2304" y="226"/>
      <point x="2272" y="166"/>
      <point x="2152" y="166" type="curve" smooth="yes"/>
      <point x="2040" y="166"/>
      <point x="1906" y="218"/>
      <point x="1844" y="266" type="curve"/>
      <point x="1822" y="54" type="line"/>
      <point x="1880" y="16"/>
      <point x="2004" y="-20"/>
    </contour>
  </outline>
</glyph>
<glyph name="won" format="2">
  <advance width="1934"/>
  <unicode hex="20A9"/>
  <outline>
    <contour>
      <point x="414" y="0" type="line"/>
      <point x="656" y="0" type="line"/>
      <point x="1000" y="1140" type="line"/>
      <point x="932" y="1140" type="line"/>
      <point x="1278" y="0" type="line"/>
      <point x="1504" y="0" type="line"/>
      <point x="1834" y="1400" type="line"/>
      <point x="1568" y="1400" type="line"/>
      <point x="1358" y="254" type="line"/>
      <point x="1416" y="254" type="line"/>
      <point x="1056" y="1360" type="line"/>
      <point x="878" y="1360" type="line"/>
      <point x="532" y="254" type="line"/>
      <point x="588" y="254" type="line"/>
      <point x="366" y="1400" type="line"/>
      <point x="100" y="1400" type="line"/>
    </contour>
    <contour>
      <point x="20" y="644" type="line"/>
      <point x="1914" y="644" type="line"/>
      <point x="1914" y="808" type="line"/>
      <point x="20" y="808" type="line"/>
    </contour>
  </outline>
</glyph>
<glyph name="dong" format="2">
  <advance width="1142"/>
  <unicode hex="20AB"/>
  <outline>
    <contour>
      <point x="520" y="-20" type="curve" smooth="yes"/>
      <point x="672" y="-20"/>
      <point x="760" y="32"/>
      <point x="854" y="118" type="curve"/>
      <point x="782" y="170" type="line"/>
      <point x="794" y="0" type="line"/>
      <point x="1028" y="0" type="line"/>
      <point x="1028" y="1500" type="line"/>
      <point x="780" y="1500" type="line"/>
      <point x="780" y="834" type="line"/>
      <point x="840" y="886" type="line"/>
      <point x="762" y="962"/>
      <point x="666" y="1016"/>
      <point x="520" y="1016" type="curve" smooth="yes"/>
      <point x="216" y="1016"/>
      <point x="56" y="778"/>
      <point x="56" y="498" type="curve" smooth="yes"/>
      <point x="56" y="218"/>
      <point x="216" y="-20"/>
    </contour>
    <contour>
      <point x="196" y="-294" type="line"/>
      <point x="1028" y="-294" type="line"/>
      <point x="1028" y="-106" type="line"/>
      <point x="196" y="-106" type="line"/>
    </contour>
    <contour>
      <point x="556" y="184" type="curve" smooth="yes"/>
      <point x="400" y="184"/>
      <point x="310" y="312"/>
      <point x="310" y="498" type="curve" smooth="yes"/>
      <point x="310" y="684"/>
      <point x="400" y="812"/>
      <point x="556" y="812" type="curve" smooth="yes"/>
      <point x="720" y="812"/>
      <point x="792" y="684"/>
      <point x="792" y="498" type="curve" smooth="yes"/>
      <point x="792" y="312"/>
      <point x="720" y="184"/>
    </contour>
    <contour>
      <point x="544" y="1194" type="line"/>
      <point x="1136" y="1194" type="line"/>
      <point x="1136" y="1360" type="line"/>
      <point x="544" y="1360" type="line"/>
    </contour>
  </outline>
</glyph>
<glyph name="euro" format="2">
  <advance width="1282"/>
  <unicode hex="20AC"/>
  <outline>
    <contour>
      <point x="852" y="-28" type="curve" smooth="yes"/>
      <point x="988" y="-28"/>
      <point x="1116" y="4"/>
      <point x="1222" y="54" type="curve"/>
      <point x="1194" y="298" type="line"/>
      <point x="1086" y="250"/>
      <point x="986" y="218"/>
      <point x="852" y="218" type="curve" smooth="yes"/>
      <point x="562" y="218"/>
      <point x="414" y="420"/>
      <point x="414" y="700" type="curve" smooth="yes"/>
      <point x="414" y="980"/>
      <point x="564" y="1182"/>
      <point x="858" y="1182" type="curve" smooth="yes"/>
      <point x="990" y="1182"/>
      <point x="1092" y="1148"/>
      <point x="1194" y="1102" type="curve"/>
      <point x="1222" y="1346" type="line"/>
      <point x="1132" y="1392"/>
      <point x="1008" y="1428"/>
      <point x="860" y="1428" type="curve" smooth="yes"/>
      <point x="438" y="1428"/>
      <point x="134" y="1140"/>
      <point x="134" y="700" type="curve" smooth="yes"/>
      <point x="134" y="260"/>
      <point x="426" y="-28"/>
    </contour>
    <contour>
      <point x="-12" y="458" type="line"/>
      <point x="988" y="458" type="line"/>
      <point x="988" y="634" type="line"/>
      <point x="-12" y="634" type="line"/>
    </contour>
    <contour>
      <point x="-12" y="776" type="line"/>
      <point x="988" y="776" type="line"/>
      <point x="988" y="952" type="line"/>
      <point x="-12" y="952" type="line"/>
    </contour>
  </outline>
</glyph>
<glyph name="kip" format="2">
  <advance width="1242"/>
  <unicode hex="20AD"/>
  <outline>
    <contour>
      <point x="948" y="0" type="line"/>
      <point x="1248" y="0" type="line"/>
      <point x="726" y="740" type="line"/>
      <point x="1248" y="1400" type="line"/>
      <point x="948" y="1400" type="line"/>
      <point x="430" y="740" type="line"/>
    </contour>
    <contour>
      <point x="154" y="0" type="line"/>
      <point x="410" y="0" type="line"/>
      <point x="410" y="1400" type="line"/>
      <point x="154" y="1400" type="line"/>
    </contour>
    <contour>
      <point x="14" y="648" type="line"/>
      <point x="1156" y="648" type="line"/>
      <point x="1156" y="828" type="line"/>
      <point x="14" y="828" type="line"/>
    </contour>
  </outline>
</glyph>
<glyph name="peso" format="2">
  <advance width="1336"/>
  <unicode hex="20B1"/>
  <outline>
    <contour>
      <point x="180" y="0" type="line"/>
      <point x="436" y="0" type="line"/>
      <point x="436" y="386" type="line"/>
      <point x="684" y="386" type="line" smooth="yes"/>
      <point x="946" y="386"/>
      <point x="1176" y="528"/>
      <point x="1176" y="894" type="curve" smooth="yes"/>
      <point x="1176" y="1242"/>
      <point x="1000" y="1400"/>
      <point x="678" y="1400" type="curve" smooth="yes"/>
      <point x="180" y="1400" type="line"/>
    </contour>
    <contour>
      <point x="436" y="600" type="line"/>
      <point x="436" y="1186" type="line"/>
      <point x="648" y="1186" type="line" smooth="yes"/>
      <point x="842" y="1186"/>
      <point x="936" y="1096"/>
      <point x="936" y="894" type="curve" smooth="yes"/>
      <point x="936" y="692"/>
      <point x="842" y="600"/>
      <point x="654" y="600" type="curve" smooth="yes"/>
    </contour>
    <contour>
      <point x="40" y="944" type="line"/>
      <point x="1296" y="944" type="line"/>
      <point x="1296" y="1086" type="line"/>
      <point x="40" y="1086" type="line"/>
    </contour>
    <contour>
      <point x="40" y="700" type="line"/>
      <point x="1296" y="700" type="line"/>
      <point x="1296" y="842" type="line"/>
      <point x="40" y="842" type="line"/>
    </contour>
  </outline>
</glyph>
<glyph name="guarani" format="2">
  <advance width="1328"/>
  <unicode hex="20B2"/>
  <outline>
    <contour>
      <point x="776" y="-28" type="curve" smooth="yes"/>
      <point x="968" y="-28"/>
      <point x="1136" y="20"/>
      <point x="1234" y="78" type="curve"/>
      <point x="1234" y="702" type="line"/>
      <point x="786" y="702" type="line"/>
      <point x="786" y="490" type="line"/>
      <point x="978" y="490" type="line"/>
      <point x="978" y="240" type="line"/>
      <point x="910" y="226"/>
      <point x="844" y="218"/>
      <point x="786" y="218" type="curve" smooth="yes"/>
      <point x="496" y="218"/>
      <point x="350" y="420"/>
      <point x="350" y="706" type="curve" smooth="yes"/>
      <point x="350" y="978"/>
      <point x="490" y="1182"/>
      <point x="802" y="1182" type="curve" smooth="yes"/>
      <point x="938" y="1182"/>
      <point x="1060" y="1148"/>
      <point x="1160" y="1102" type="curve"/>
      <point x="1188" y="1346" type="line"/>
      <point x="1092" y="1394"/>
      <point x="950" y="1428"/>
      <point x="802" y="1428" type="curve" smooth="yes"/>
      <point x="372" y="1428"/>
      <point x="70" y="1140"/>
      <point x="70" y="702" type="curve" smooth="yes"/>
      <point x="70" y="260"/>
      <point x="332" y="-28"/>
    </contour>
    <contour>
      <point x="678" y="-288" type="line"/>
      <point x="874" y="-288" type="line"/>
      <point x="854" y="68" type="line"/>
      <point x="698" y="68" type="line"/>
    </contour>
    <contour>
      <point x="698" y="1346" type="line"/>
      <point x="854" y="1346" type="line"/>
      <point x="874" y="1688" type="line"/>
      <point x="678" y="1688" type="line"/>
    </contour>
  </outline>
</glyph>
<glyph name="cedi" format="2">
  <advance width="1218"/>
  <unicode hex="20B5"/>
  <outline>
    <contour>
      <point x="788" y="-28" type="curve" smooth="yes"/>
      <point x="924" y="-28"/>
      <point x="1052" y="4"/>
      <point x="1158" y="54" type="curve"/>
      <point x="1130" y="298" type="line"/>
      <point x="1022" y="250"/>
      <point x="922" y="218"/>
      <point x="788" y="218" type="curve" smooth="yes"/>
      <point x="498" y="218"/>
      <point x="350" y="420"/>
      <point x="350" y="700" type="curve" smooth="yes"/>
      <point x="350" y="980"/>
      <point x="500" y="1182"/>
      <point x="794" y="1182" type="curve" smooth="yes"/>
      <point x="926" y="1182"/>
      <point x="1028" y="1148"/>
      <point x="1130" y="1102" type="curve"/>
      <point x="1158" y="1346" type="line"/>
      <point x="1068" y="1392"/>
      <point x="944" y="1428"/>
      <point x="796" y="1428" type="curve" smooth="yes"/>
      <point x="374" y="1428"/>
      <point x="70" y="1140"/>
      <point x="70" y="700" type="curve" smooth="yes"/>
      <point x="70" y="260"/>
      <point x="362" y="-28"/>
    </contour>
    <contour>
      <point x="648" y="-288" type="line"/>
      <point x="844" y="-288" type="line"/>
      <point x="824" y="68" type="line"/>
      <point x="668" y="68" type="line"/>
    </contour>
    <contour>
      <point x="668" y="1346" type="line"/>
      <point x="824" y="1346" type="line"/>
      <point x="844" y="1688" type="line"/>
      <point x="648" y="1688" type="line"/>
    </contour>
  </outline>
</glyph>
<glyph name="rupeeIndian" format="2">
  <advance width="1090"/>
  <unicode hex="20B9"/>
  <outline>
    <contour>
      <point x="100" y="484" type="line"/>
      <point x="374" y="484" type="line" smooth="yes"/>
      <point x="698" y="484"/>
      <point x="910" y="648"/>
      <point x="910" y="920" type="curve" smooth="yes"/>
      <point x="910" y="1084"/>
      <point x="836" y="1206"/>
      <point x="704" y="1286" type="curve"/>
      <point x="686" y="1224" type="line"/>
      <point x="1042" y="1224" type="line"/>
      <point x="1042" y="1400" type="line"/>
      <point x="100" y="1400" type="line"/>
      <point x="100" y="1224" type="line"/>
      <point x="346" y="1224" type="line" smooth="yes"/>
      <point x="546" y="1224"/>
      <point x="660" y="1128"/>
      <point x="660" y="940" type="curve" smooth="yes"/>
      <point x="660" y="750"/>
      <point x="546" y="660"/>
      <point x="346" y="660" type="curve" smooth="yes"/>
      <point x="100" y="660" type="line"/>
    </contour>
    <contour>
      <point x="750" y="0" type="line"/>
      <point x="1028" y="0" type="line"/>
      <point x="626" y="568" type="line"/>
      <point x="352" y="568" type="line"/>
    </contour>
    <contour>
      <point x="100" y="854" type="line"/>
      <point x="1042" y="854" type="line"/>
      <point x="1042" y="1030" type="line"/>
      <point x="100" y="1030" type="line"/>
    </contour>
  </outline>
</glyph>
<glyph name="liraTurkish" format="2">
  <advance width="1190"/>
  <unicode hex="20BA"/>
  <outline>
    <contour>
      <point x="436" y="1400" type="line"/>
      <point x="180" y="1400" type="line"/>
      <point x="180" y="0" type="line"/>
      <point x="490" y="0" type="line" smooth="yes"/>
      <point x="892" y="0"/>
      <point x="1110" y="218"/>
      <point x="1110" y="620" type="curve" smooth="yes"/>
      <point x="1110" y="674" type="line"/>
      <point x="854" y="674" type="line"/>
      <point x="854" y="620" type="line" smooth="yes"/>
      <point x="854" y="376"/>
      <point x="738" y="246"/>
      <point x="510" y="246" type="curve" smooth="yes"/>
      <point x="436" y="246" type="line"/>
    </contour>
    <contour>
      <point x="40" y="560" type="line"/>
      <point x="976" y="840" type="line"/>
      <point x="976" y="1030" type="line"/>
      <point x="40" y="750" type="line"/>
    </contour>
    <contour>
      <point x="40" y="886" type="line"/>
      <point x="976" y="1166" type="line"/>
      <point x="976" y="1356" type="line"/>
      <point x="40" y="1076" type="line"/>
    </contour>
  </outline>
</glyph>
<glyph name="manat" format="2">
  <advance width="1356"/>
  <unicode hex="20BC"/>
  <outline>
    <contour>
      <point x="708" y="1168" type="curve" smooth="yes"/>
      <point x="314" y="1168"/>
      <point x="128" y="928"/>
      <point x="128" y="560" type="curve" smooth="yes"/>
      <point x="128" y="0" type="line"/>
      <point x="384" y="0" type="line"/>
      <point x="384" y="514" type="line" smooth="yes"/>
      <point x="384" y="740"/>
      <point x="438" y="922"/>
      <point x="708" y="922" type="curve" smooth="yes"/>
      <point x="978" y="922"/>
      <point x="1032" y="740"/>
      <point x="1032" y="514" type="curve" smooth="yes"/>
      <point x="1032" y="0" type="line"/>
      <point x="1288" y="0" type="line"/>
      <point x="1288" y="560" type="line" smooth="yes"/>
      <point x="1288" y="928"/>
      <point x="1102" y="1168"/>
    </contour>
    <contour>
      <point x="594" y="0" type="line"/>
      <point x="824" y="0" type="line"/>
      <point x="824" y="1400" type="line"/>
      <point x="594" y="1400" type="line"/>
    </contour>
  </outline>
</glyph>
<glyph name="ruble" format="2">
  <advance width="1218"/>
  <unicode hex="20BD"/>
  <outline>
    <contour>
      <point x="180" y="0" type="line"/>
      <point x="436" y="0" type="line"/>
      <point x="436" y="1186" type="line"/>
      <point x="648" y="1186" type="line" smooth="yes"/>
      <point x="828" y="1186"/>
      <point x="916" y="1112"/>
      <point x="916" y="944" type="curve" smooth="yes"/>
      <point x="916" y="776"/>
      <point x="828" y="700"/>
      <point x="654" y="700" type="curve" smooth="yes"/>
      <point x="40" y="700" type="line"/>
      <point x="40" y="486" type="line"/>
      <point x="684" y="486" type="line" smooth="yes"/>
      <point x="1000" y="486"/>
      <point x="1176" y="632"/>
      <point x="1176" y="948" type="curve" smooth="yes"/>
      <point x="1176" y="1260"/>
      <point x="1000" y="1400"/>
      <point x="678" y="1400" type="curve" smooth="yes"/>
      <point x="180" y="1400" type="line"/>
    </contour>
    <contour>
      <point x="40" y="164" type="line"/>
      <point x="780" y="164" type="line"/>
      <point x="780" y="340" type="line"/>
      <point x="40" y="340" type="line"/>
    </contour>
  </outline>
</glyph>
<glyph name="literSign" format="2">
  <advance width="1136"/>
  <unicode hex="2113"/>
  <outline>
    <contour>
      <point x="622" y="-16" type="curve" smooth="yes"/>
      <point x="904" y="-16"/>
      <point x="990" y="132"/>
      <point x="996" y="368" type="curve"/>
      <point x="796" y="368" type="line"/>
      <point x="792" y="238"/>
      <point x="758" y="158"/>
      <point x="664" y="158" type="curve" smooth="yes"/>
      <point x="574" y="158"/>
      <point x="530" y="214"/>
      <point x="530" y="360" type="curve" smooth="yes"/>
      <point x="530" y="1124" type="line" smooth="yes"/>
      <point x="530" y="1240"/>
      <point x="570" y="1282"/>
      <point x="634" y="1282" type="curve" smooth="yes"/>
      <point x="706" y="1282"/>
      <point x="738" y="1226"/>
      <point x="738" y="1112" type="curve" smooth="yes"/>
      <point x="738" y="804"/>
      <point x="492" y="750"/>
      <point x="100" y="636" type="curve"/>
      <point x="100" y="466" type="line"/>
      <point x="624" y="600"/>
      <point x="968" y="718"/>
      <point x="968" y="1104" type="curve" smooth="yes"/>
      <point x="968" y="1328"/>
      <point x="848" y="1446"/>
      <point x="634" y="1446" type="curve" smooth="yes"/>
      <point x="388" y="1446"/>
      <point x="282" y="1306"/>
      <point x="282" y="1086" type="curve" smooth="yes"/>
      <point x="282" y="366" type="line" smooth="yes"/>
      <point x="282" y="132"/>
      <point x="400" y="-16"/>
    </contour>
  </outline>
</glyph>
<glyph name="numero" format="2">
  <advance width="2476"/>
  <unicode hex="2116"/>
  <outline>
    <contour>
      <point x="154" y="0" type="line"/>
      <point x="410" y="0" type="line"/>
      <point x="410" y="960" type="line"/>
      <point x="1050" y="0" type="line"/>
      <point x="1260" y="0" type="line"/>
      <point x="1260" y="1400" type="line"/>
      <point x="1004" y="1400" type="line"/>
      <point x="1004" y="496" type="line"/>
      <point x="406" y="1400" type="line"/>
      <point x="154" y="1400" type="line"/>
    </contour>
    <contour>
      <point x="1634" y="118" type="line"/>
      <point x="2214" y="118" type="line"/>
      <point x="2214" y="322" type="line"/>
      <point x="1634" y="322" type="line"/>
    </contour>
    <contour>
      <point x="1924" y="472" type="curve" smooth="yes"/>
      <point x="2222" y="472"/>
      <point x="2396" y="692"/>
      <point x="2396" y="950" type="curve" smooth="yes"/>
      <point x="2396" y="1208"/>
      <point x="2222" y="1428"/>
      <point x="1924" y="1428" type="curve" smooth="yes"/>
      <point x="1626" y="1428"/>
      <point x="1452" y="1208"/>
      <point x="1452" y="950" type="curve" smooth="yes"/>
      <point x="1452" y="692"/>
      <point x="1626" y="472"/>
    </contour>
    <contour>
      <point x="1924" y="676" type="curve" smooth="yes"/>
      <point x="1776" y="676"/>
      <point x="1692" y="788"/>
      <point x="1692" y="950" type="curve" smooth="yes"/>
      <point x="1692" y="1112"/>
      <point x="1776" y="1224"/>
      <point x="1924" y="1224" type="curve" smooth="yes"/>
      <point x="2072" y="1224"/>
      <point x="2156" y="1112"/>
      <point x="2156" y="950" type="curve" smooth="yes"/>
      <point x="2156" y="788"/>
      <point x="2072" y="676"/>
    </contour>
  </outline>
</glyph>
<glyph name="trademark" format="2">
  <advance width="1478"/>
  <unicode hex="2122"/>
  <outline>
    <contour>
      <point x="612" y="674" type="line"/>
      <point x="776" y="674" type="line"/>
      <point x="844" y="1212" type="line"/>
      <point x="770" y="1196" type="line"/>
      <point x="980" y="850" type="line"/>
      <point x="1002" y="850" type="line"/>
      <point x="1214" y="1196" type="line"/>
      <point x="1140" y="1212" type="line"/>
      <point x="1206" y="674" type="line"/>
      <point x="1372" y="674" type="line"/>
      <point x="1274" y="1400" type="line"/>
      <point x="1172" y="1400" type="line"/>
      <point x="992" y="1104" type="line"/>
      <point x="810" y="1400" type="line"/>
      <point x="710" y="1400" type="line"/>
    </contour>
    <contour>
      <point x="258" y="674" type="line"/>
      <point x="418" y="674" type="line"/>
      <point x="418" y="1244" type="line"/>
      <point x="606" y="1244" type="line"/>
      <point x="626" y="1400" type="line"/>
      <point x="64" y="1400" type="line"/>
      <point x="64" y="1244" type="line"/>
      <point x="258" y="1244" type="line"/>
    </contour>
  </outline>
</glyph>
<glyph name="Ohm" format="2">
  <advance width="1630"/>
  <unicode hex="2126"/>
  <outline>
    <contour>
      <point x="100" y="0" type="line"/>
      <point x="710" y="0" type="line"/>
      <point x="710" y="202" type="line"/>
      <point x="520" y="320"/>
      <point x="418" y="488"/>
      <point x="418" y="728" type="curve" smooth="yes"/>
      <point x="418" y="994"/>
      <point x="562" y="1182"/>
      <point x="814" y="1182" type="curve" smooth="yes"/>
      <point x="1066" y="1182"/>
      <point x="1210" y="994"/>
      <point x="1210" y="728" type="curve" smooth="yes"/>
      <point x="1210" y="486"/>
      <point x="1106" y="320"/>
      <point x="916" y="202" type="curve"/>
      <point x="916" y="0" type="line"/>
      <point x="1530" y="0" type="line"/>
      <point x="1530" y="228" type="line"/>
      <point x="1232" y="228" type="line"/>
      <point x="1380" y="336"/>
      <point x="1490" y="506"/>
      <point x="1490" y="762" type="curve" smooth="yes"/>
      <point x="1490" y="1180"/>
      <point x="1218" y="1428"/>
      <point x="814" y="1428" type="curve" smooth="yes"/>
      <point x="410" y="1428"/>
      <point x="138" y="1164"/>
      <point x="138" y="762" type="curve" smooth="yes"/>
      <point x="138" y="510"/>
      <point x="254" y="332"/>
      <point x="394" y="228" type="curve"/>
      <point x="100" y="228" type="line"/>
    </contour>
  </outline>
</glyph>
<glyph name="estimated" format="2">
  <advance width="1200"/>
  <unicode hex="212E"/>
  <outline>
    <contour>
      <point x="618" y="-34" type="curve" smooth="yes"/>
      <point x="866" y="-34"/>
      <point x="980" y="90"/>
      <point x="1074" y="238" type="curve"/>
      <point x="1004" y="278" type="line"/>
      <point x="914" y="134"/>
      <point x="812" y="50"/>
      <point x="618" y="50" type="curve" smooth="yes"/>
      <point x="498" y="50"/>
      <point x="386" y="108"/>
      <point x="328" y="170" type="curve"/>
      <point x="328" y="518" type="line"/>
      <point x="1136" y="518" type="line"/>
      <point x="1136" y="858"/>
      <point x="912" y="1070"/>
      <point x="618" y="1070" type="curve" smooth="yes"/>
      <point x="372" y="1070"/>
      <point x="100" y="902"/>
      <point x="100" y="518" type="curve" smooth="yes"/>
      <point x="100" y="230"/>
      <point x="280" y="-34"/>
    </contour>
    <contour>
      <point x="910" y="602" type="line"/>
      <point x="328" y="602" type="line"/>
      <point x="328" y="874" type="line"/>
      <point x="390" y="934"/>
      <point x="484" y="988"/>
      <point x="616" y="988" type="curve" smooth="yes"/>
      <point x="754" y="988"/>
      <point x="860" y="924"/>
      <point x="910" y="872" type="curve"/>
    </contour>
  </outline>
</glyph>
<glyph name="emptyset" format="2">
  <advance width="1028"/>
  <unicode hex="2205"/>
  <outline>
    <contour>
      <point x="514" y="104" type="curve" smooth="yes"/>
      <point x="760" y="104"/>
      <point x="962" y="304"/>
      <point x="962" y="552" type="curve" smooth="yes"/>
      <point x="962" y="798"/>
      <point x="760" y="1000"/>
      <point x="514" y="1000" type="curve" smooth="yes"/>
      <point x="266" y="1000"/>
      <point x="66" y="798"/>
      <point x="66" y="552" type="curve" smooth="yes"/>
      <point x="66" y="304"/>
      <point x="266" y="104"/>
    </contour>
    <contour>
      <point x="514" y="308" type="curve" smooth="yes"/>
      <point x="378" y="308"/>
      <point x="278" y="412"/>
      <point x="278" y="552" type="curve" smooth="yes"/>
      <point x="278" y="692"/>
      <point x="378" y="796"/>
      <point x="514" y="796" type="curve" smooth="yes"/>
      <point x="650" y="796"/>
      <point x="750" y="692"/>
      <point x="750" y="552" type="curve" smooth="yes"/>
      <point x="750" y="412"/>
      <point x="650" y="308"/>
    </contour>
    <contour>
      <point x="144" y="88" type="line"/>
      <point x="968" y="932" type="line"/>
      <point x="884" y="1016" type="line"/>
      <point x="60" y="172" type="line"/>
    </contour>
  </outline>
</glyph>
<glyph name="increment" format="2">
  <advance width="1352"/>
  <unicode hex="2206"/>
  <outline>
    <contour>
      <point x="28" y="0" type="line"/>
      <point x="1324" y="0" type="line"/>
      <point x="1324" y="84" type="line"/>
      <point x="804" y="1400" type="line"/>
      <point x="548" y="1400" type="line"/>
      <point x="28" y="86" type="line"/>
    </contour>
    <contour>
      <point x="286" y="102" type="line"/>
      <point x="730" y="1214" type="line"/>
      <point x="622" y="1214" type="line"/>
      <point x="1066" y="102" type="line"/>
      <point x="1140" y="228" type="line"/>
      <point x="212" y="228" type="line"/>
    </contour>
  </outline>
</glyph>
<glyph name="product" format="2">
  <advance width="1496"/>
  <unicode hex="220F"/>
  <outline>
    <contour>
      <point x="196" y="-400" type="line"/>
      <point x="452" y="-400" type="line"/>
      <point x="452" y="1160" type="line"/>
      <point x="1044" y="1160" type="line"/>
      <point x="1044" y="-400" type="line"/>
      <point x="1300" y="-400" type="line"/>
      <point x="1300" y="1160" type="line"/>
      <point x="1476" y="1160" type="line"/>
      <point x="1476" y="1400" type="line"/>
      <point x="20" y="1400" type="line"/>
      <point x="20" y="1160" type="line"/>
      <point x="196" y="1160" type="line"/>
    </contour>
  </outline>
</glyph>
<glyph name="summation" format="2">
  <advance width="1240"/>
  <unicode hex="2211"/>
  <outline>
    <contour>
      <point x="40" y="-400" type="line"/>
      <point x="1220" y="-400" type="line"/>
      <point x="1220" y="-160" type="line"/>
      <point x="234" y="-160" type="line"/>
      <point x="308" y="-308" type="line"/>
      <point x="972" y="500" type="line"/>
      <point x="308" y="1308" type="line"/>
      <point x="234" y="1160" type="line"/>
      <point x="1200" y="1160" type="line"/>
      <point x="1200" y="1400" type="line"/>
      <point x="40" y="1400" type="line"/>
      <point x="40" y="1268" type="line"/>
      <point x="670" y="494" type="line"/>
      <point x="40" y="-280" type="line"/>
    </contour>
  </outline>
</glyph>
<glyph name="minus" format="2">
  <advance width="900"/>
  <unicode hex="2212"/>
  <outline>
    <contour>
      <point x="80" y="460" type="line"/>
      <point x="820" y="460" type="line"/>
      <point x="820" y="648" type="line"/>
      <point x="80" y="648" type="line"/>
    </contour>
  </outline>
</glyph>
<glyph name="radical" format="2">
  <advance width="1522"/>
  <unicode hex="221A"/>
  <outline>
    <contour>
      <point x="506" y="-400" type="line"/>
      <point x="696" y="-400" type="line"/>
      <point x="1248" y="1302" type="line"/>
      <point x="1138" y="1160" type="line"/>
      <point x="1502" y="1160" type="line"/>
      <point x="1502" y="1400" type="line"/>
      <point x="1026" y="1400" type="line"/>
      <point x="520" y="-174" type="line"/>
      <point x="682" y="-174" type="line"/>
      <point x="408" y="624" type="line"/>
      <point x="20" y="624" type="line"/>
      <point x="20" y="384" type="line"/>
      <point x="304" y="384" type="line"/>
      <point x="194" y="502" type="line"/>
    </contour>
  </outline>
</glyph>
<glyph name="infinity" format="2">
  <advance width="1442"/>
  <unicode hex="221E"/>
  <outline>
    <contour>
      <point x="424" y="324" type="curve" smooth="yes"/>
      <point x="640" y="324"/>
      <point x="802" y="486"/>
      <point x="802" y="704" type="curve" smooth="yes"/>
      <point x="802" y="922"/>
      <point x="640" y="1084"/>
      <point x="424" y="1084" type="curve" smooth="yes"/>
      <point x="204" y="1084"/>
      <point x="40" y="922"/>
      <point x="40" y="704" type="curve" smooth="yes"/>
      <point x="40" y="486"/>
      <point x="204" y="324"/>
    </contour>
    <contour>
      <point x="440" y="524" type="curve" smooth="yes"/>
      <point x="340" y="524"/>
      <point x="268" y="598"/>
      <point x="268" y="704" type="curve" smooth="yes"/>
      <point x="268" y="810"/>
      <point x="340" y="884"/>
      <point x="440" y="884" type="curve" smooth="yes"/>
      <point x="540" y="884"/>
      <point x="612" y="810"/>
      <point x="612" y="704" type="curve" smooth="yes"/>
      <point x="612" y="598"/>
      <point x="540" y="524"/>
    </contour>
    <contour>
      <point x="1026" y="324" type="curve" smooth="yes"/>
      <point x="1242" y="324"/>
      <point x="1402" y="486"/>
      <point x="1402" y="704" type="curve" smooth="yes"/>
      <point x="1402" y="922"/>
      <point x="1242" y="1084"/>
      <point x="1026" y="1084" type="curve" smooth="yes"/>
      <point x="810" y="1084"/>
      <point x="648" y="922"/>
      <point x="648" y="704" type="curve" smooth="yes"/>
      <point x="648" y="486"/>
      <point x="810" y="324"/>
    </contour>
    <contour>
      <point x="1010" y="524" type="curve" smooth="yes"/>
      <point x="910" y="524"/>
      <point x="838" y="598"/>
      <point x="838" y="704" type="curve" smooth="yes"/>
      <point x="838" y="810"/>
      <point x="910" y="884"/>
      <point x="1010" y="884" type="curve" smooth="yes"/>
      <point x="1106" y="884"/>
      <point x="1174" y="810"/>
      <point x="1174" y="704" type="curve" smooth="yes"/>
      <point x="1174" y="598"/>
      <point x="1106" y="524"/>
    </contour>
  </outline>
</glyph>
<glyph name="integral" format="2">
  <advance width="798"/>
  <unicode hex="222B"/>
  <outline>
    <contour>
      <point x="174" y="-428" type="curve" smooth="yes"/>
      <point x="364" y="-428"/>
      <point x="492" y="-316"/>
      <point x="502" y="-80" type="curve" smooth="yes"/>
      <point x="550" y="1026" type="line" smooth="yes"/>
      <point x="554" y="1124"/>
      <point x="600" y="1188"/>
      <point x="694" y="1188" type="curve" smooth="yes"/>
      <point x="722" y="1188"/>
      <point x="746" y="1184"/>
      <point x="768" y="1178" type="curve"/>
      <point x="782" y="1400" type="line"/>
      <point x="736" y="1418"/>
      <point x="686" y="1428"/>
      <point x="624" y="1428" type="curve" smooth="yes"/>
      <point x="434" y="1428"/>
      <point x="306" y="1316"/>
      <point x="296" y="1080" type="curve" smooth="yes"/>
      <point x="248" y="-26" type="line" smooth="yes"/>
      <point x="244" y="-124"/>
      <point x="198" y="-188"/>
      <point x="104" y="-188" type="curve" smooth="yes"/>
      <point x="76" y="-188"/>
      <point x="52" y="-184"/>
      <point x="30" y="-178" type="curve"/>
      <point x="16" y="-400" type="line"/>
      <point x="62" y="-418"/>
      <point x="112" y="-428"/>
    </contour>
  </outline>
</glyph>
<glyph name="notequal" format="2">
  <advance width="900"/>
  <unicode hex="2260"/>
  <outline>
    <contour>
      <point x="172" y="190" type="line"/>
      <point x="352" y="190" type="line"/>
      <point x="752" y="918" type="line"/>
      <point x="572" y="918" type="line"/>
    </contour>
    <component base="equal"/>
  </outline>
</glyph>
<glyph name="lessequal" format="2">
  <advance width="888"/>
  <unicode hex="2264"/>
  <outline>
    <contour>
      <point x="820" y="348" type="line"/>
      <point x="820" y="540" type="line"/>
      <point x="320" y="708" type="line"/>
      <point x="820" y="878" type="line"/>
      <point x="820" y="1070" type="line"/>
      <point x="80" y="808" type="line"/>
      <point x="80" y="608" type="line"/>
    </contour>
    <contour>
      <point x="80" y="94" type="line"/>
      <point x="820" y="94" type="line"/>
      <point x="820" y="274" type="line"/>
      <point x="80" y="274" type="line"/>
    </contour>
  </outline>
</glyph>
<glyph name="lozenge" format="2">
  <advance width="1200"/>
  <unicode hex="25CA"/>
  <outline>
    <contour>
      <point x="480" y="0" type="line"/>
      <point x="720" y="0" type="line"/>
      <point x="1180" y="700" type="line"/>
      <point x="720" y="1400" type="line"/>
      <point x="480" y="1400" type="line"/>
      <point x="20" y="700" type="line"/>
    </contour>
    <contour>
      <point x="562" y="186" type="line"/>
      <point x="634" y="186" type="line"/>
      <point x="304" y="700" type="line"/>
      <point x="634" y="1214" type="line"/>
      <point x="562" y="1214" type="line"/>
      <point x="896" y="700" type="line"/>
    </contour>
  </outline>
</glyph>
<glyph name="A.sc" format="2">
  <advance width="1116"/>
  <outline>
    <contour>
      <point x="8" y="0" type="line"/>
      <point x="264" y="0" type="line"/>
      <point x="364" y="262" type="line"/>
      <point x="752" y="262" type="line"/>
      <point x="854" y="0" type="line"/>
      <point x="1108" y="0" type="line"/>
      <point x="672" y="1162" type="line"/>
      <point x="444" y="1162" type="line"/>
    </contour>
    <contour>
      <point x="450" y="502" type="line"/>
      <point x="556" y="764" type="line"/>
      <point x="666" y="502" type="line"/>
    </contour>
  </outline>
</glyph>
<glyph name="AE.sc" format="2">
  <advance width="1536"/>
  <outline>
    <contour>
      <point x="-20" y="0" type="line"/>
      <point x="240" y="0" type="line"/>
      <point x="376" y="270" type="line"/>
      <point x="704" y="270" type="line"/>
      <point x="704" y="0" type="line"/>
      <point x="1472" y="0" type="line"/>
      <point x="1472" y="240" type="line"/>
      <point x="946" y="240" type="line"/>
      <point x="946" y="486" type="line"/>
      <point x="1338" y="486" type="line"/>
      <point x="1338" y="724" type="line"/>
      <point x="946" y="724" type="line"/>
      <point x="946" y="922" type="line"/>
      <point x="1456" y="922" type="line"/>
      <point x="1456" y="1162" type="line"/>
      <point x="580" y="1162" type="line"/>
    </contour>
    <contour>
      <point x="490" y="506" type="line"/>
      <point x="704" y="918" type="line"/>
      <point x="704" y="506" type="line"/>
    </contour>
  </outline>
</glyph>
<glyph name="B.sc" format="2">
  <advance width="1142"/>
  <outline>
    <contour>
      <point x="142" y="0" type="line"/>
      <point x="636" y="0" type="line" smooth="yes"/>
      <point x="844" y="0"/>
      <point x="1082" y="86"/>
      <point x="1082" y="340" type="curve" smooth="yes"/>
      <point x="1082" y="500"/>
      <point x="1000" y="574"/>
      <point x="864" y="622" type="curve"/>
      <point x="928" y="658"/>
      <point x="968" y="748"/>
      <point x="968" y="856" type="curve" smooth="yes"/>
      <point x="968" y="1120"/>
      <point x="776" y="1162"/>
      <point x="494" y="1162" type="curve" smooth="yes"/>
      <point x="142" y="1162" type="line"/>
    </contour>
    <contour>
      <point x="388" y="202" type="line"/>
      <point x="388" y="524" type="line"/>
      <point x="612" y="524" type="line" smooth="yes"/>
      <point x="738" y="524"/>
      <point x="828" y="482"/>
      <point x="828" y="366" type="curve" smooth="yes"/>
      <point x="828" y="254"/>
      <point x="752" y="202"/>
      <point x="628" y="202" type="curve" smooth="yes"/>
    </contour>
    <contour>
      <point x="388" y="704" type="line"/>
      <point x="388" y="960" type="line"/>
      <point x="602" y="960" type="line" smooth="yes"/>
      <point x="694" y="960"/>
      <point x="746" y="922"/>
      <point x="746" y="814" type="curve" smooth="yes"/>
      <point x="746" y="738"/>
      <point x="664" y="704"/>
      <point x="612" y="704" type="curve" smooth="yes"/>
    </contour>
  </outline>
</glyph>
<glyph name="C.sc" format="2">
  <advance width="1090"/>
  <outline>
    <contour>
      <point x="672" y="-24" type="curve" smooth="yes"/>
      <point x="802" y="-24"/>
      <point x="936" y="2"/>
      <point x="1026" y="46" type="curve"/>
      <point x="998" y="278" type="line"/>
      <point x="894" y="236"/>
      <point x="802" y="214"/>
      <point x="670" y="214" type="curve" smooth="yes"/>
      <point x="448" y="214"/>
      <point x="338" y="362"/>
      <point x="338" y="582" type="curve" smooth="yes"/>
      <point x="338" y="800"/>
      <point x="448" y="948"/>
      <point x="672" y="948" type="curve" smooth="yes"/>
      <point x="802" y="948"/>
      <point x="894" y="926"/>
      <point x="998" y="884" type="curve"/>
      <point x="1026" y="1118" type="line"/>
      <point x="934" y="1160"/>
      <point x="802" y="1186"/>
      <point x="672" y="1186" type="curve" smooth="yes"/>
      <point x="322" y="1186"/>
      <point x="68" y="944"/>
      <point x="68" y="582" type="curve" smooth="yes"/>
      <point x="68" y="218"/>
      <point x="322" y="-24"/>
    </contour>
  </outline>
</glyph>
<glyph name="D.sc" format="2">
  <advance width="1282"/>
  <outline>
    <contour>
      <point x="142" y="0" type="line"/>
      <point x="606" y="0" type="line" smooth="yes"/>
      <point x="956" y="0"/>
      <point x="1210" y="216"/>
      <point x="1210" y="582" type="curve" smooth="yes"/>
      <point x="1210" y="946"/>
      <point x="956" y="1162"/>
      <point x="606" y="1162" type="curve" smooth="yes"/>
      <point x="142" y="1162" type="line"/>
    </contour>
    <contour>
      <point x="388" y="238" type="line"/>
      <point x="388" y="924" type="line"/>
      <point x="606" y="924" type="line" smooth="yes"/>
      <point x="830" y="924"/>
      <point x="940" y="798"/>
      <point x="940" y="582" type="curve" smooth="yes"/>
      <point x="940" y="364"/>
      <point x="830" y="238"/>
      <point x="606" y="238" type="curve" smooth="yes"/>
    </contour>
  </outline>
</glyph>
<glyph name="E.sc" format="2">
  <advance width="1024"/>
  <outline>
    <contour>
      <point x="142" y="0" type="line"/>
      <point x="962" y="0" type="line"/>
      <point x="962" y="240" type="line"/>
      <point x="396" y="240" type="line"/>
      <point x="396" y="486" type="line"/>
      <point x="818" y="486" type="line"/>
      <point x="818" y="724" type="line"/>
      <point x="396" y="724" type="line"/>
      <point x="396" y="922" type="line"/>
      <point x="944" y="922" type="line"/>
      <point x="944" y="1162" type="line"/>
      <point x="142" y="1162" type="line"/>
    </contour>
  </outline>
</glyph>
<glyph name="F.sc" format="2">
  <advance width="944"/>
  <outline>
    <contour>
      <point x="142" y="0" type="line"/>
      <point x="388" y="0" type="line"/>
      <point x="388" y="486" type="line"/>
      <point x="786" y="486" type="line"/>
      <point x="786" y="724" type="line"/>
      <point x="388" y="724" type="line"/>
      <point x="388" y="922" type="line"/>
      <point x="904" y="922" type="line"/>
      <point x="904" y="1162" type="line"/>
      <point x="142" y="1162" type="line"/>
    </contour>
  </outline>
</glyph>
<glyph name="G.sc" format="2">
  <advance width="1182"/>
  <outline>
    <contour>
      <point x="670" y="-24" type="curve" smooth="yes"/>
      <point x="810" y="-24"/>
      <point x="1006" y="16"/>
      <point x="1092" y="64" type="curve"/>
      <point x="1092" y="582" type="line"/>
      <point x="732" y="582" type="line"/>
      <point x="732" y="388" type="line"/>
      <point x="846" y="388" type="line"/>
      <point x="846" y="226" type="line"/>
      <point x="788" y="220"/>
      <point x="740" y="214"/>
      <point x="690" y="214" type="curve" smooth="yes"/>
      <point x="458" y="214"/>
      <point x="338" y="366"/>
      <point x="338" y="588" type="curve" smooth="yes"/>
      <point x="338" y="798"/>
      <point x="446" y="948"/>
      <point x="686" y="948" type="curve" smooth="yes"/>
      <point x="794" y="948"/>
      <point x="932" y="918"/>
      <point x="1024" y="878" type="curve"/>
      <point x="1052" y="1116" type="line"/>
      <point x="964" y="1160"/>
      <point x="800" y="1186"/>
      <point x="680" y="1186" type="curve" smooth="yes"/>
      <point x="320" y="1186"/>
      <point x="68" y="944"/>
      <point x="68" y="582" type="curve" smooth="yes"/>
      <point x="68" y="218"/>
      <point x="324" y="-24"/>
    </contour>
  </outline>
</glyph>
<glyph name="H.sc" format="2">
  <advance width="1316"/>
  <outline>
    <contour>
      <point x="142" y="0" type="line"/>
      <point x="388" y="0" type="line"/>
      <point x="388" y="486" type="line"/>
      <point x="926" y="486" type="line"/>
      <point x="926" y="0" type="line"/>
      <point x="1174" y="0" type="line"/>
      <point x="1174" y="1162" type="line"/>
      <point x="926" y="1162" type="line"/>
      <point x="926" y="724" type="line"/>
      <point x="388" y="724" type="line"/>
      <point x="388" y="1162" type="line"/>
      <point x="142" y="1162" type="line"/>
    </contour>
  </outline>
</glyph>
<glyph name="I.sc" format="2">
  <advance width="530"/>
  <outline>
    <contour>
      <point x="142" y="0" type="line"/>
      <point x="388" y="0" type="line"/>
      <point x="388" y="1162" type="line"/>
      <point x="142" y="1162" type="line"/>
    </contour>
  </outline>
</glyph>
<glyph name="J.sc" format="2">
  <advance width="530"/>
  <outline>
    <contour>
      <point x="30" y="-286" type="line"/>
      <point x="106" y="-286" type="line" smooth="yes"/>
      <point x="272" y="-286"/>
      <point x="388" y="-208"/>
      <point x="388" y="-32" type="curve" smooth="yes"/>
      <point x="388" y="1162" type="line"/>
      <point x="142" y="1162" type="line"/>
      <point x="142" y="12" type="line" smooth="yes"/>
      <point x="142" y="-58"/>
      <point x="122" y="-90"/>
      <point x="74" y="-90" type="curve" smooth="yes"/>
      <point x="12" y="-90" type="line"/>
    </contour>
  </outline>
</glyph>
<glyph name="K.sc" format="2">
  <advance width="1140"/>
  <outline>
    <contour>
      <point x="844" y="0" type="line"/>
      <point x="1124" y="0" type="line"/>
      <point x="704" y="614" type="line"/>
      <point x="1124" y="1162" type="line"/>
      <point x="844" y="1162" type="line"/>
      <point x="424" y="614" type="line"/>
    </contour>
    <contour>
      <point x="142" y="0" type="line"/>
      <point x="388" y="0" type="line"/>
      <point x="388" y="1162" type="line"/>
      <point x="142" y="1162" type="line"/>
    </contour>
  </outline>
</glyph>
<glyph name="L.sc" format="2">
  <advance width="898"/>
  <outline>
    <contour>
      <point x="142" y="0" type="line"/>
      <point x="874" y="0" type="line"/>
      <point x="874" y="240" type="line"/>
      <point x="388" y="240" type="line"/>
      <point x="388" y="1162" type="line"/>
      <point x="142" y="1162" type="line"/>
    </contour>
  </outline>
</glyph>
<glyph name="M.sc" format="2">
  <advance width="1500"/>
  <outline>
    <contour>
      <point x="86" y="0" type="line"/>
      <point x="342" y="0" type="line"/>
      <point x="442" y="722" type="line"/>
      <point x="750" y="226" type="line"/>
      <point x="1058" y="724" type="line"/>
      <point x="1160" y="0" type="line"/>
      <point x="1416" y="0" type="line"/>
      <point x="1242" y="1162" type="line"/>
      <point x="1042" y="1162" type="line"/>
      <point x="752" y="658" type="line"/>
      <point x="458" y="1162" type="line"/>
      <point x="258" y="1162" type="line"/>
    </contour>
  </outline>
</glyph>
<glyph name="N.sc" format="2">
  <advance width="1264"/>
  <outline>
    <contour>
      <point x="142" y="0" type="line"/>
      <point x="388" y="0" type="line"/>
      <point x="388" y="732" type="line"/>
      <point x="920" y="0" type="line"/>
      <point x="1122" y="0" type="line"/>
      <point x="1122" y="1162" type="line"/>
      <point x="876" y="1162" type="line"/>
      <point x="876" y="476" type="line"/>
      <point x="378" y="1162" type="line"/>
      <point x="142" y="1162" type="line"/>
    </contour>
  </outline>
</glyph>
